%TF.GenerationSoftware,KiCad,Pcbnew,7.0.5*%
%TF.CreationDate,2025-04-07T23:35:12+08:00*%
%TF.ProjectId,audio-test-board,61756469-6f2d-4746-9573-742d626f6172,rev?*%
%TF.SameCoordinates,Original*%
%TF.FileFunction,Drillmap*%
%TF.FilePolarity,Positive*%
%FSLAX45Y45*%
G04 Gerber Fmt 4.5, Leading zero omitted, Abs format (unit mm)*
G04 Created by KiCad (PCBNEW 7.0.5) date 2025-04-07 23:35:12*
%MOMM*%
%LPD*%
G01*
G04 APERTURE LIST*
%ADD10C,0.150000*%
%ADD11C,0.200000*%
%ADD12C,0.040000*%
%ADD13C,0.100000*%
%ADD14C,0.110000*%
G04 APERTURE END LIST*
D10*
X15893680Y-14908360D02*
X15893680Y-9728360D01*
X15893680Y-14908360D02*
G75*
G03*
X16093680Y-15108360I200000J0D01*
G01*
X18403680Y-9728360D02*
X18403680Y-14908360D01*
X18203680Y-15108360D02*
G75*
G03*
X18403680Y-14908360I0J200000D01*
G01*
X16093680Y-9528360D02*
G75*
G03*
X15893680Y-9728360I0J-200000D01*
G01*
X18403680Y-9728360D02*
G75*
G03*
X18203680Y-9528360I-200000J0D01*
G01*
X18203680Y-15108360D02*
X16093680Y-15108360D01*
X16093680Y-9528360D02*
X18203680Y-9528360D01*
D11*
D12*
X16298680Y-10568360D02*
X16338680Y-10608360D01*
X16338680Y-10568360D02*
X16298680Y-10608360D01*
X16723680Y-12608360D02*
X16763680Y-12648360D01*
X16763680Y-12608360D02*
X16723680Y-12648360D01*
X16873680Y-11788360D02*
X16913680Y-11828360D01*
X16913680Y-11788360D02*
X16873680Y-11828360D01*
X16946076Y-11658360D02*
X16986076Y-11698360D01*
X16986076Y-11658360D02*
X16946076Y-11698360D01*
X16946180Y-12120860D02*
X16986180Y-12160860D01*
X16986180Y-12120860D02*
X16946180Y-12160860D01*
X17018526Y-11168360D02*
X17058526Y-11208360D01*
X17058526Y-11168360D02*
X17018526Y-11208360D01*
X17091026Y-11788360D02*
X17131026Y-11828360D01*
X17131026Y-11788360D02*
X17091026Y-11828360D01*
X17283680Y-9908360D02*
X17323680Y-9948360D01*
X17323680Y-9908360D02*
X17283680Y-9948360D01*
X17283680Y-10128360D02*
X17323680Y-10168360D01*
X17323680Y-10128360D02*
X17283680Y-10168360D01*
X17337375Y-11214665D02*
X17377375Y-11254665D01*
X17377375Y-11214665D02*
X17337375Y-11254665D01*
X17563680Y-11268360D02*
X17603680Y-11308360D01*
X17603680Y-11268360D02*
X17563680Y-11308360D01*
X17623680Y-12788360D02*
X17663680Y-12828360D01*
X17663680Y-12788360D02*
X17623680Y-12828360D01*
X17723680Y-11038360D02*
X17763680Y-11078360D01*
X17763680Y-11038360D02*
X17723680Y-11078360D01*
X17790893Y-12037061D02*
X17830893Y-12077061D01*
X17830893Y-12037061D02*
X17790893Y-12077061D01*
X17888988Y-11088360D02*
X17928988Y-11128360D01*
X17928988Y-11088360D02*
X17888988Y-11128360D01*
X18003680Y-10328360D02*
X18043680Y-10368360D01*
X18043680Y-10328360D02*
X18003680Y-10368360D01*
X18200730Y-10168360D02*
X18240730Y-10208360D01*
X18240730Y-10168360D02*
X18200730Y-10208360D01*
D13*
X16193680Y-11008360D02*
G75*
G03*
X16193680Y-11008360I-50000J0D01*
G01*
X16193680Y-11262360D02*
G75*
G03*
X16193680Y-11262360I-50000J0D01*
G01*
X16193680Y-11516360D02*
G75*
G03*
X16193680Y-11516360I-50000J0D01*
G01*
X16193680Y-11770360D02*
G75*
G03*
X16193680Y-11770360I-50000J0D01*
G01*
X16193680Y-12024360D02*
G75*
G03*
X16193680Y-12024360I-50000J0D01*
G01*
X16193680Y-12278360D02*
G75*
G03*
X16193680Y-12278360I-50000J0D01*
G01*
X16193680Y-12532360D02*
G75*
G03*
X16193680Y-12532360I-50000J0D01*
G01*
X16193680Y-12786360D02*
G75*
G03*
X16193680Y-12786360I-50000J0D01*
G01*
X18225680Y-11262360D02*
G75*
G03*
X18225680Y-11262360I-50000J0D01*
G01*
X18225680Y-11516360D02*
G75*
G03*
X18225680Y-11516360I-50000J0D01*
G01*
X18225680Y-11770360D02*
G75*
G03*
X18225680Y-11770360I-50000J0D01*
G01*
X18225680Y-12024360D02*
G75*
G03*
X18225680Y-12024360I-50000J0D01*
G01*
D14*
X16643680Y-13864760D02*
X16643680Y-13974760D01*
X16588680Y-13919760D02*
X16698680Y-13919760D01*
X17643680Y-13864760D02*
X17643680Y-13974760D01*
X17588680Y-13919760D02*
X17698680Y-13919760D01*
D11*
X16146957Y-15427344D02*
X16146957Y-15227344D01*
X16146957Y-15227344D02*
X16194576Y-15227344D01*
X16194576Y-15227344D02*
X16223147Y-15236868D01*
X16223147Y-15236868D02*
X16242195Y-15255915D01*
X16242195Y-15255915D02*
X16251719Y-15274963D01*
X16251719Y-15274963D02*
X16261242Y-15313058D01*
X16261242Y-15313058D02*
X16261242Y-15341629D01*
X16261242Y-15341629D02*
X16251719Y-15379725D01*
X16251719Y-15379725D02*
X16242195Y-15398772D01*
X16242195Y-15398772D02*
X16223147Y-15417820D01*
X16223147Y-15417820D02*
X16194576Y-15427344D01*
X16194576Y-15427344D02*
X16146957Y-15427344D01*
X16346957Y-15427344D02*
X16346957Y-15294010D01*
X16346957Y-15332106D02*
X16356481Y-15313058D01*
X16356481Y-15313058D02*
X16366004Y-15303534D01*
X16366004Y-15303534D02*
X16385052Y-15294010D01*
X16385052Y-15294010D02*
X16404100Y-15294010D01*
X16470766Y-15427344D02*
X16470766Y-15294010D01*
X16470766Y-15227344D02*
X16461242Y-15236868D01*
X16461242Y-15236868D02*
X16470766Y-15246391D01*
X16470766Y-15246391D02*
X16480290Y-15236868D01*
X16480290Y-15236868D02*
X16470766Y-15227344D01*
X16470766Y-15227344D02*
X16470766Y-15246391D01*
X16594576Y-15427344D02*
X16575528Y-15417820D01*
X16575528Y-15417820D02*
X16566004Y-15398772D01*
X16566004Y-15398772D02*
X16566004Y-15227344D01*
X16699338Y-15427344D02*
X16680290Y-15417820D01*
X16680290Y-15417820D02*
X16670766Y-15398772D01*
X16670766Y-15398772D02*
X16670766Y-15227344D01*
X16927909Y-15427344D02*
X16927909Y-15227344D01*
X16927909Y-15227344D02*
X16994576Y-15370201D01*
X16994576Y-15370201D02*
X17061243Y-15227344D01*
X17061243Y-15227344D02*
X17061243Y-15427344D01*
X17242195Y-15427344D02*
X17242195Y-15322582D01*
X17242195Y-15322582D02*
X17232671Y-15303534D01*
X17232671Y-15303534D02*
X17213624Y-15294010D01*
X17213624Y-15294010D02*
X17175528Y-15294010D01*
X17175528Y-15294010D02*
X17156481Y-15303534D01*
X17242195Y-15417820D02*
X17223147Y-15427344D01*
X17223147Y-15427344D02*
X17175528Y-15427344D01*
X17175528Y-15427344D02*
X17156481Y-15417820D01*
X17156481Y-15417820D02*
X17146957Y-15398772D01*
X17146957Y-15398772D02*
X17146957Y-15379725D01*
X17146957Y-15379725D02*
X17156481Y-15360677D01*
X17156481Y-15360677D02*
X17175528Y-15351153D01*
X17175528Y-15351153D02*
X17223147Y-15351153D01*
X17223147Y-15351153D02*
X17242195Y-15341629D01*
X17337433Y-15294010D02*
X17337433Y-15494010D01*
X17337433Y-15303534D02*
X17356481Y-15294010D01*
X17356481Y-15294010D02*
X17394576Y-15294010D01*
X17394576Y-15294010D02*
X17413624Y-15303534D01*
X17413624Y-15303534D02*
X17423147Y-15313058D01*
X17423147Y-15313058D02*
X17432671Y-15332106D01*
X17432671Y-15332106D02*
X17432671Y-15389248D01*
X17432671Y-15389248D02*
X17423147Y-15408296D01*
X17423147Y-15408296D02*
X17413624Y-15417820D01*
X17413624Y-15417820D02*
X17394576Y-15427344D01*
X17394576Y-15427344D02*
X17356481Y-15427344D01*
X17356481Y-15427344D02*
X17337433Y-15417820D01*
X17518385Y-15408296D02*
X17527909Y-15417820D01*
X17527909Y-15417820D02*
X17518385Y-15427344D01*
X17518385Y-15427344D02*
X17508862Y-15417820D01*
X17508862Y-15417820D02*
X17518385Y-15408296D01*
X17518385Y-15408296D02*
X17518385Y-15427344D01*
X17518385Y-15303534D02*
X17527909Y-15313058D01*
X17527909Y-15313058D02*
X17518385Y-15322582D01*
X17518385Y-15322582D02*
X17508862Y-15313058D01*
X17508862Y-15313058D02*
X17518385Y-15303534D01*
X17518385Y-15303534D02*
X17518385Y-15322582D01*
D12*
X15846180Y-15735860D02*
X15886180Y-15775860D01*
X15886180Y-15735860D02*
X15846180Y-15775860D01*
D11*
X16185052Y-15647344D02*
X16204100Y-15647344D01*
X16204100Y-15647344D02*
X16223147Y-15656868D01*
X16223147Y-15656868D02*
X16232671Y-15666391D01*
X16232671Y-15666391D02*
X16242195Y-15685439D01*
X16242195Y-15685439D02*
X16251719Y-15723534D01*
X16251719Y-15723534D02*
X16251719Y-15771153D01*
X16251719Y-15771153D02*
X16242195Y-15809248D01*
X16242195Y-15809248D02*
X16232671Y-15828296D01*
X16232671Y-15828296D02*
X16223147Y-15837820D01*
X16223147Y-15837820D02*
X16204100Y-15847344D01*
X16204100Y-15847344D02*
X16185052Y-15847344D01*
X16185052Y-15847344D02*
X16166004Y-15837820D01*
X16166004Y-15837820D02*
X16156481Y-15828296D01*
X16156481Y-15828296D02*
X16146957Y-15809248D01*
X16146957Y-15809248D02*
X16137433Y-15771153D01*
X16137433Y-15771153D02*
X16137433Y-15723534D01*
X16137433Y-15723534D02*
X16146957Y-15685439D01*
X16146957Y-15685439D02*
X16156481Y-15666391D01*
X16156481Y-15666391D02*
X16166004Y-15656868D01*
X16166004Y-15656868D02*
X16185052Y-15647344D01*
X16337433Y-15828296D02*
X16346957Y-15837820D01*
X16346957Y-15837820D02*
X16337433Y-15847344D01*
X16337433Y-15847344D02*
X16327909Y-15837820D01*
X16327909Y-15837820D02*
X16337433Y-15828296D01*
X16337433Y-15828296D02*
X16337433Y-15847344D01*
X16518385Y-15714010D02*
X16518385Y-15847344D01*
X16470766Y-15637820D02*
X16423147Y-15780677D01*
X16423147Y-15780677D02*
X16546957Y-15780677D01*
X16661242Y-15647344D02*
X16680290Y-15647344D01*
X16680290Y-15647344D02*
X16699338Y-15656868D01*
X16699338Y-15656868D02*
X16708862Y-15666391D01*
X16708862Y-15666391D02*
X16718385Y-15685439D01*
X16718385Y-15685439D02*
X16727909Y-15723534D01*
X16727909Y-15723534D02*
X16727909Y-15771153D01*
X16727909Y-15771153D02*
X16718385Y-15809248D01*
X16718385Y-15809248D02*
X16708862Y-15828296D01*
X16708862Y-15828296D02*
X16699338Y-15837820D01*
X16699338Y-15837820D02*
X16680290Y-15847344D01*
X16680290Y-15847344D02*
X16661242Y-15847344D01*
X16661242Y-15847344D02*
X16642195Y-15837820D01*
X16642195Y-15837820D02*
X16632671Y-15828296D01*
X16632671Y-15828296D02*
X16623147Y-15809248D01*
X16623147Y-15809248D02*
X16613623Y-15771153D01*
X16613623Y-15771153D02*
X16613623Y-15723534D01*
X16613623Y-15723534D02*
X16623147Y-15685439D01*
X16623147Y-15685439D02*
X16632671Y-15666391D01*
X16632671Y-15666391D02*
X16642195Y-15656868D01*
X16642195Y-15656868D02*
X16661242Y-15647344D01*
X16851719Y-15647344D02*
X16870766Y-15647344D01*
X16870766Y-15647344D02*
X16889814Y-15656868D01*
X16889814Y-15656868D02*
X16899338Y-15666391D01*
X16899338Y-15666391D02*
X16908862Y-15685439D01*
X16908862Y-15685439D02*
X16918385Y-15723534D01*
X16918385Y-15723534D02*
X16918385Y-15771153D01*
X16918385Y-15771153D02*
X16908862Y-15809248D01*
X16908862Y-15809248D02*
X16899338Y-15828296D01*
X16899338Y-15828296D02*
X16889814Y-15837820D01*
X16889814Y-15837820D02*
X16870766Y-15847344D01*
X16870766Y-15847344D02*
X16851719Y-15847344D01*
X16851719Y-15847344D02*
X16832671Y-15837820D01*
X16832671Y-15837820D02*
X16823147Y-15828296D01*
X16823147Y-15828296D02*
X16813624Y-15809248D01*
X16813624Y-15809248D02*
X16804100Y-15771153D01*
X16804100Y-15771153D02*
X16804100Y-15723534D01*
X16804100Y-15723534D02*
X16813624Y-15685439D01*
X16813624Y-15685439D02*
X16823147Y-15666391D01*
X16823147Y-15666391D02*
X16832671Y-15656868D01*
X16832671Y-15656868D02*
X16851719Y-15647344D01*
X17004100Y-15847344D02*
X17004100Y-15714010D01*
X17004100Y-15733058D02*
X17013624Y-15723534D01*
X17013624Y-15723534D02*
X17032671Y-15714010D01*
X17032671Y-15714010D02*
X17061243Y-15714010D01*
X17061243Y-15714010D02*
X17080290Y-15723534D01*
X17080290Y-15723534D02*
X17089814Y-15742582D01*
X17089814Y-15742582D02*
X17089814Y-15847344D01*
X17089814Y-15742582D02*
X17099338Y-15723534D01*
X17099338Y-15723534D02*
X17118385Y-15714010D01*
X17118385Y-15714010D02*
X17146957Y-15714010D01*
X17146957Y-15714010D02*
X17166005Y-15723534D01*
X17166005Y-15723534D02*
X17175528Y-15742582D01*
X17175528Y-15742582D02*
X17175528Y-15847344D01*
X17270766Y-15847344D02*
X17270766Y-15714010D01*
X17270766Y-15733058D02*
X17280290Y-15723534D01*
X17280290Y-15723534D02*
X17299338Y-15714010D01*
X17299338Y-15714010D02*
X17327909Y-15714010D01*
X17327909Y-15714010D02*
X17346957Y-15723534D01*
X17346957Y-15723534D02*
X17356481Y-15742582D01*
X17356481Y-15742582D02*
X17356481Y-15847344D01*
X17356481Y-15742582D02*
X17366005Y-15723534D01*
X17366005Y-15723534D02*
X17385052Y-15714010D01*
X17385052Y-15714010D02*
X17413624Y-15714010D01*
X17413624Y-15714010D02*
X17432671Y-15723534D01*
X17432671Y-15723534D02*
X17442195Y-15742582D01*
X17442195Y-15742582D02*
X17442195Y-15847344D01*
X17832671Y-15637820D02*
X17661243Y-15894963D01*
X18089814Y-15647344D02*
X18108862Y-15647344D01*
X18108862Y-15647344D02*
X18127909Y-15656868D01*
X18127909Y-15656868D02*
X18137433Y-15666391D01*
X18137433Y-15666391D02*
X18146957Y-15685439D01*
X18146957Y-15685439D02*
X18156481Y-15723534D01*
X18156481Y-15723534D02*
X18156481Y-15771153D01*
X18156481Y-15771153D02*
X18146957Y-15809248D01*
X18146957Y-15809248D02*
X18137433Y-15828296D01*
X18137433Y-15828296D02*
X18127909Y-15837820D01*
X18127909Y-15837820D02*
X18108862Y-15847344D01*
X18108862Y-15847344D02*
X18089814Y-15847344D01*
X18089814Y-15847344D02*
X18070767Y-15837820D01*
X18070767Y-15837820D02*
X18061243Y-15828296D01*
X18061243Y-15828296D02*
X18051719Y-15809248D01*
X18051719Y-15809248D02*
X18042195Y-15771153D01*
X18042195Y-15771153D02*
X18042195Y-15723534D01*
X18042195Y-15723534D02*
X18051719Y-15685439D01*
X18051719Y-15685439D02*
X18061243Y-15666391D01*
X18061243Y-15666391D02*
X18070767Y-15656868D01*
X18070767Y-15656868D02*
X18089814Y-15647344D01*
X18242195Y-15828296D02*
X18251719Y-15837820D01*
X18251719Y-15837820D02*
X18242195Y-15847344D01*
X18242195Y-15847344D02*
X18232671Y-15837820D01*
X18232671Y-15837820D02*
X18242195Y-15828296D01*
X18242195Y-15828296D02*
X18242195Y-15847344D01*
X18375528Y-15647344D02*
X18394576Y-15647344D01*
X18394576Y-15647344D02*
X18413624Y-15656868D01*
X18413624Y-15656868D02*
X18423148Y-15666391D01*
X18423148Y-15666391D02*
X18432671Y-15685439D01*
X18432671Y-15685439D02*
X18442195Y-15723534D01*
X18442195Y-15723534D02*
X18442195Y-15771153D01*
X18442195Y-15771153D02*
X18432671Y-15809248D01*
X18432671Y-15809248D02*
X18423148Y-15828296D01*
X18423148Y-15828296D02*
X18413624Y-15837820D01*
X18413624Y-15837820D02*
X18394576Y-15847344D01*
X18394576Y-15847344D02*
X18375528Y-15847344D01*
X18375528Y-15847344D02*
X18356481Y-15837820D01*
X18356481Y-15837820D02*
X18346957Y-15828296D01*
X18346957Y-15828296D02*
X18337433Y-15809248D01*
X18337433Y-15809248D02*
X18327909Y-15771153D01*
X18327909Y-15771153D02*
X18327909Y-15723534D01*
X18327909Y-15723534D02*
X18337433Y-15685439D01*
X18337433Y-15685439D02*
X18346957Y-15666391D01*
X18346957Y-15666391D02*
X18356481Y-15656868D01*
X18356481Y-15656868D02*
X18375528Y-15647344D01*
X18632671Y-15847344D02*
X18518386Y-15847344D01*
X18575528Y-15847344D02*
X18575528Y-15647344D01*
X18575528Y-15647344D02*
X18556481Y-15675915D01*
X18556481Y-15675915D02*
X18537433Y-15694963D01*
X18537433Y-15694963D02*
X18518386Y-15704487D01*
X18813624Y-15647344D02*
X18718386Y-15647344D01*
X18718386Y-15647344D02*
X18708862Y-15742582D01*
X18708862Y-15742582D02*
X18718386Y-15733058D01*
X18718386Y-15733058D02*
X18737433Y-15723534D01*
X18737433Y-15723534D02*
X18785052Y-15723534D01*
X18785052Y-15723534D02*
X18804100Y-15733058D01*
X18804100Y-15733058D02*
X18813624Y-15742582D01*
X18813624Y-15742582D02*
X18823148Y-15761629D01*
X18823148Y-15761629D02*
X18823148Y-15809248D01*
X18823148Y-15809248D02*
X18813624Y-15828296D01*
X18813624Y-15828296D02*
X18804100Y-15837820D01*
X18804100Y-15837820D02*
X18785052Y-15847344D01*
X18785052Y-15847344D02*
X18737433Y-15847344D01*
X18737433Y-15847344D02*
X18718386Y-15837820D01*
X18718386Y-15837820D02*
X18708862Y-15828296D01*
X18889814Y-15647344D02*
X19023148Y-15647344D01*
X19023148Y-15647344D02*
X18937433Y-15847344D01*
X19089814Y-15647344D02*
X19089814Y-15685439D01*
X19166005Y-15647344D02*
X19166005Y-15685439D01*
X19461243Y-15923534D02*
X19451719Y-15914010D01*
X19451719Y-15914010D02*
X19432671Y-15885439D01*
X19432671Y-15885439D02*
X19423148Y-15866391D01*
X19423148Y-15866391D02*
X19413624Y-15837820D01*
X19413624Y-15837820D02*
X19404100Y-15790201D01*
X19404100Y-15790201D02*
X19404100Y-15752106D01*
X19404100Y-15752106D02*
X19413624Y-15704487D01*
X19413624Y-15704487D02*
X19423148Y-15675915D01*
X19423148Y-15675915D02*
X19432671Y-15656868D01*
X19432671Y-15656868D02*
X19451719Y-15628296D01*
X19451719Y-15628296D02*
X19461243Y-15618772D01*
X19642195Y-15847344D02*
X19527910Y-15847344D01*
X19585052Y-15847344D02*
X19585052Y-15647344D01*
X19585052Y-15647344D02*
X19566005Y-15675915D01*
X19566005Y-15675915D02*
X19546957Y-15694963D01*
X19546957Y-15694963D02*
X19527910Y-15704487D01*
X19708862Y-15647344D02*
X19842195Y-15647344D01*
X19842195Y-15647344D02*
X19756481Y-15847344D01*
X20070767Y-15847344D02*
X20070767Y-15647344D01*
X20156481Y-15847344D02*
X20156481Y-15742582D01*
X20156481Y-15742582D02*
X20146957Y-15723534D01*
X20146957Y-15723534D02*
X20127910Y-15714010D01*
X20127910Y-15714010D02*
X20099338Y-15714010D01*
X20099338Y-15714010D02*
X20080291Y-15723534D01*
X20080291Y-15723534D02*
X20070767Y-15733058D01*
X20280291Y-15847344D02*
X20261243Y-15837820D01*
X20261243Y-15837820D02*
X20251719Y-15828296D01*
X20251719Y-15828296D02*
X20242195Y-15809248D01*
X20242195Y-15809248D02*
X20242195Y-15752106D01*
X20242195Y-15752106D02*
X20251719Y-15733058D01*
X20251719Y-15733058D02*
X20261243Y-15723534D01*
X20261243Y-15723534D02*
X20280291Y-15714010D01*
X20280291Y-15714010D02*
X20308862Y-15714010D01*
X20308862Y-15714010D02*
X20327910Y-15723534D01*
X20327910Y-15723534D02*
X20337433Y-15733058D01*
X20337433Y-15733058D02*
X20346957Y-15752106D01*
X20346957Y-15752106D02*
X20346957Y-15809248D01*
X20346957Y-15809248D02*
X20337433Y-15828296D01*
X20337433Y-15828296D02*
X20327910Y-15837820D01*
X20327910Y-15837820D02*
X20308862Y-15847344D01*
X20308862Y-15847344D02*
X20280291Y-15847344D01*
X20461243Y-15847344D02*
X20442195Y-15837820D01*
X20442195Y-15837820D02*
X20432672Y-15818772D01*
X20432672Y-15818772D02*
X20432672Y-15647344D01*
X20613624Y-15837820D02*
X20594576Y-15847344D01*
X20594576Y-15847344D02*
X20556481Y-15847344D01*
X20556481Y-15847344D02*
X20537433Y-15837820D01*
X20537433Y-15837820D02*
X20527910Y-15818772D01*
X20527910Y-15818772D02*
X20527910Y-15742582D01*
X20527910Y-15742582D02*
X20537433Y-15723534D01*
X20537433Y-15723534D02*
X20556481Y-15714010D01*
X20556481Y-15714010D02*
X20594576Y-15714010D01*
X20594576Y-15714010D02*
X20613624Y-15723534D01*
X20613624Y-15723534D02*
X20623148Y-15742582D01*
X20623148Y-15742582D02*
X20623148Y-15761629D01*
X20623148Y-15761629D02*
X20527910Y-15780677D01*
X20699338Y-15837820D02*
X20718386Y-15847344D01*
X20718386Y-15847344D02*
X20756481Y-15847344D01*
X20756481Y-15847344D02*
X20775529Y-15837820D01*
X20775529Y-15837820D02*
X20785053Y-15818772D01*
X20785053Y-15818772D02*
X20785053Y-15809248D01*
X20785053Y-15809248D02*
X20775529Y-15790201D01*
X20775529Y-15790201D02*
X20756481Y-15780677D01*
X20756481Y-15780677D02*
X20727910Y-15780677D01*
X20727910Y-15780677D02*
X20708862Y-15771153D01*
X20708862Y-15771153D02*
X20699338Y-15752106D01*
X20699338Y-15752106D02*
X20699338Y-15742582D01*
X20699338Y-15742582D02*
X20708862Y-15723534D01*
X20708862Y-15723534D02*
X20727910Y-15714010D01*
X20727910Y-15714010D02*
X20756481Y-15714010D01*
X20756481Y-15714010D02*
X20775529Y-15723534D01*
X20851719Y-15923534D02*
X20861243Y-15914010D01*
X20861243Y-15914010D02*
X20880291Y-15885439D01*
X20880291Y-15885439D02*
X20889814Y-15866391D01*
X20889814Y-15866391D02*
X20899338Y-15837820D01*
X20899338Y-15837820D02*
X20908862Y-15790201D01*
X20908862Y-15790201D02*
X20908862Y-15752106D01*
X20908862Y-15752106D02*
X20899338Y-15704487D01*
X20899338Y-15704487D02*
X20889814Y-15675915D01*
X20889814Y-15675915D02*
X20880291Y-15656868D01*
X20880291Y-15656868D02*
X20861243Y-15628296D01*
X20861243Y-15628296D02*
X20851719Y-15618772D01*
D13*
X15886180Y-16019860D02*
G75*
G03*
X15886180Y-16019860I-50000J0D01*
G01*
D11*
X16251719Y-16111344D02*
X16137433Y-16111344D01*
X16194576Y-16111344D02*
X16194576Y-15911344D01*
X16194576Y-15911344D02*
X16175528Y-15939915D01*
X16175528Y-15939915D02*
X16156481Y-15958963D01*
X16156481Y-15958963D02*
X16137433Y-15968487D01*
X16337433Y-16092296D02*
X16346957Y-16101820D01*
X16346957Y-16101820D02*
X16337433Y-16111344D01*
X16337433Y-16111344D02*
X16327909Y-16101820D01*
X16327909Y-16101820D02*
X16337433Y-16092296D01*
X16337433Y-16092296D02*
X16337433Y-16111344D01*
X16470766Y-15911344D02*
X16489814Y-15911344D01*
X16489814Y-15911344D02*
X16508862Y-15920868D01*
X16508862Y-15920868D02*
X16518385Y-15930391D01*
X16518385Y-15930391D02*
X16527909Y-15949439D01*
X16527909Y-15949439D02*
X16537433Y-15987534D01*
X16537433Y-15987534D02*
X16537433Y-16035153D01*
X16537433Y-16035153D02*
X16527909Y-16073248D01*
X16527909Y-16073248D02*
X16518385Y-16092296D01*
X16518385Y-16092296D02*
X16508862Y-16101820D01*
X16508862Y-16101820D02*
X16489814Y-16111344D01*
X16489814Y-16111344D02*
X16470766Y-16111344D01*
X16470766Y-16111344D02*
X16451719Y-16101820D01*
X16451719Y-16101820D02*
X16442195Y-16092296D01*
X16442195Y-16092296D02*
X16432671Y-16073248D01*
X16432671Y-16073248D02*
X16423147Y-16035153D01*
X16423147Y-16035153D02*
X16423147Y-15987534D01*
X16423147Y-15987534D02*
X16432671Y-15949439D01*
X16432671Y-15949439D02*
X16442195Y-15930391D01*
X16442195Y-15930391D02*
X16451719Y-15920868D01*
X16451719Y-15920868D02*
X16470766Y-15911344D01*
X16661242Y-15911344D02*
X16680290Y-15911344D01*
X16680290Y-15911344D02*
X16699338Y-15920868D01*
X16699338Y-15920868D02*
X16708862Y-15930391D01*
X16708862Y-15930391D02*
X16718385Y-15949439D01*
X16718385Y-15949439D02*
X16727909Y-15987534D01*
X16727909Y-15987534D02*
X16727909Y-16035153D01*
X16727909Y-16035153D02*
X16718385Y-16073248D01*
X16718385Y-16073248D02*
X16708862Y-16092296D01*
X16708862Y-16092296D02*
X16699338Y-16101820D01*
X16699338Y-16101820D02*
X16680290Y-16111344D01*
X16680290Y-16111344D02*
X16661242Y-16111344D01*
X16661242Y-16111344D02*
X16642195Y-16101820D01*
X16642195Y-16101820D02*
X16632671Y-16092296D01*
X16632671Y-16092296D02*
X16623147Y-16073248D01*
X16623147Y-16073248D02*
X16613623Y-16035153D01*
X16613623Y-16035153D02*
X16613623Y-15987534D01*
X16613623Y-15987534D02*
X16623147Y-15949439D01*
X16623147Y-15949439D02*
X16632671Y-15930391D01*
X16632671Y-15930391D02*
X16642195Y-15920868D01*
X16642195Y-15920868D02*
X16661242Y-15911344D01*
X16851719Y-15911344D02*
X16870766Y-15911344D01*
X16870766Y-15911344D02*
X16889814Y-15920868D01*
X16889814Y-15920868D02*
X16899338Y-15930391D01*
X16899338Y-15930391D02*
X16908862Y-15949439D01*
X16908862Y-15949439D02*
X16918385Y-15987534D01*
X16918385Y-15987534D02*
X16918385Y-16035153D01*
X16918385Y-16035153D02*
X16908862Y-16073248D01*
X16908862Y-16073248D02*
X16899338Y-16092296D01*
X16899338Y-16092296D02*
X16889814Y-16101820D01*
X16889814Y-16101820D02*
X16870766Y-16111344D01*
X16870766Y-16111344D02*
X16851719Y-16111344D01*
X16851719Y-16111344D02*
X16832671Y-16101820D01*
X16832671Y-16101820D02*
X16823147Y-16092296D01*
X16823147Y-16092296D02*
X16813624Y-16073248D01*
X16813624Y-16073248D02*
X16804100Y-16035153D01*
X16804100Y-16035153D02*
X16804100Y-15987534D01*
X16804100Y-15987534D02*
X16813624Y-15949439D01*
X16813624Y-15949439D02*
X16823147Y-15930391D01*
X16823147Y-15930391D02*
X16832671Y-15920868D01*
X16832671Y-15920868D02*
X16851719Y-15911344D01*
X17004100Y-16111344D02*
X17004100Y-15978010D01*
X17004100Y-15997058D02*
X17013624Y-15987534D01*
X17013624Y-15987534D02*
X17032671Y-15978010D01*
X17032671Y-15978010D02*
X17061243Y-15978010D01*
X17061243Y-15978010D02*
X17080290Y-15987534D01*
X17080290Y-15987534D02*
X17089814Y-16006582D01*
X17089814Y-16006582D02*
X17089814Y-16111344D01*
X17089814Y-16006582D02*
X17099338Y-15987534D01*
X17099338Y-15987534D02*
X17118385Y-15978010D01*
X17118385Y-15978010D02*
X17146957Y-15978010D01*
X17146957Y-15978010D02*
X17166005Y-15987534D01*
X17166005Y-15987534D02*
X17175528Y-16006582D01*
X17175528Y-16006582D02*
X17175528Y-16111344D01*
X17270766Y-16111344D02*
X17270766Y-15978010D01*
X17270766Y-15997058D02*
X17280290Y-15987534D01*
X17280290Y-15987534D02*
X17299338Y-15978010D01*
X17299338Y-15978010D02*
X17327909Y-15978010D01*
X17327909Y-15978010D02*
X17346957Y-15987534D01*
X17346957Y-15987534D02*
X17356481Y-16006582D01*
X17356481Y-16006582D02*
X17356481Y-16111344D01*
X17356481Y-16006582D02*
X17366005Y-15987534D01*
X17366005Y-15987534D02*
X17385052Y-15978010D01*
X17385052Y-15978010D02*
X17413624Y-15978010D01*
X17413624Y-15978010D02*
X17432671Y-15987534D01*
X17432671Y-15987534D02*
X17442195Y-16006582D01*
X17442195Y-16006582D02*
X17442195Y-16111344D01*
X17832671Y-15901820D02*
X17661243Y-16158963D01*
X18089814Y-15911344D02*
X18108862Y-15911344D01*
X18108862Y-15911344D02*
X18127909Y-15920868D01*
X18127909Y-15920868D02*
X18137433Y-15930391D01*
X18137433Y-15930391D02*
X18146957Y-15949439D01*
X18146957Y-15949439D02*
X18156481Y-15987534D01*
X18156481Y-15987534D02*
X18156481Y-16035153D01*
X18156481Y-16035153D02*
X18146957Y-16073248D01*
X18146957Y-16073248D02*
X18137433Y-16092296D01*
X18137433Y-16092296D02*
X18127909Y-16101820D01*
X18127909Y-16101820D02*
X18108862Y-16111344D01*
X18108862Y-16111344D02*
X18089814Y-16111344D01*
X18089814Y-16111344D02*
X18070767Y-16101820D01*
X18070767Y-16101820D02*
X18061243Y-16092296D01*
X18061243Y-16092296D02*
X18051719Y-16073248D01*
X18051719Y-16073248D02*
X18042195Y-16035153D01*
X18042195Y-16035153D02*
X18042195Y-15987534D01*
X18042195Y-15987534D02*
X18051719Y-15949439D01*
X18051719Y-15949439D02*
X18061243Y-15930391D01*
X18061243Y-15930391D02*
X18070767Y-15920868D01*
X18070767Y-15920868D02*
X18089814Y-15911344D01*
X18242195Y-16092296D02*
X18251719Y-16101820D01*
X18251719Y-16101820D02*
X18242195Y-16111344D01*
X18242195Y-16111344D02*
X18232671Y-16101820D01*
X18232671Y-16101820D02*
X18242195Y-16092296D01*
X18242195Y-16092296D02*
X18242195Y-16111344D01*
X18375528Y-15911344D02*
X18394576Y-15911344D01*
X18394576Y-15911344D02*
X18413624Y-15920868D01*
X18413624Y-15920868D02*
X18423148Y-15930391D01*
X18423148Y-15930391D02*
X18432671Y-15949439D01*
X18432671Y-15949439D02*
X18442195Y-15987534D01*
X18442195Y-15987534D02*
X18442195Y-16035153D01*
X18442195Y-16035153D02*
X18432671Y-16073248D01*
X18432671Y-16073248D02*
X18423148Y-16092296D01*
X18423148Y-16092296D02*
X18413624Y-16101820D01*
X18413624Y-16101820D02*
X18394576Y-16111344D01*
X18394576Y-16111344D02*
X18375528Y-16111344D01*
X18375528Y-16111344D02*
X18356481Y-16101820D01*
X18356481Y-16101820D02*
X18346957Y-16092296D01*
X18346957Y-16092296D02*
X18337433Y-16073248D01*
X18337433Y-16073248D02*
X18327909Y-16035153D01*
X18327909Y-16035153D02*
X18327909Y-15987534D01*
X18327909Y-15987534D02*
X18337433Y-15949439D01*
X18337433Y-15949439D02*
X18346957Y-15930391D01*
X18346957Y-15930391D02*
X18356481Y-15920868D01*
X18356481Y-15920868D02*
X18375528Y-15911344D01*
X18508862Y-15911344D02*
X18632671Y-15911344D01*
X18632671Y-15911344D02*
X18566005Y-15987534D01*
X18566005Y-15987534D02*
X18594576Y-15987534D01*
X18594576Y-15987534D02*
X18613624Y-15997058D01*
X18613624Y-15997058D02*
X18623148Y-16006582D01*
X18623148Y-16006582D02*
X18632671Y-16025629D01*
X18632671Y-16025629D02*
X18632671Y-16073248D01*
X18632671Y-16073248D02*
X18623148Y-16092296D01*
X18623148Y-16092296D02*
X18613624Y-16101820D01*
X18613624Y-16101820D02*
X18594576Y-16111344D01*
X18594576Y-16111344D02*
X18537433Y-16111344D01*
X18537433Y-16111344D02*
X18518386Y-16101820D01*
X18518386Y-16101820D02*
X18508862Y-16092296D01*
X18727909Y-16111344D02*
X18766005Y-16111344D01*
X18766005Y-16111344D02*
X18785052Y-16101820D01*
X18785052Y-16101820D02*
X18794576Y-16092296D01*
X18794576Y-16092296D02*
X18813624Y-16063725D01*
X18813624Y-16063725D02*
X18823148Y-16025629D01*
X18823148Y-16025629D02*
X18823148Y-15949439D01*
X18823148Y-15949439D02*
X18813624Y-15930391D01*
X18813624Y-15930391D02*
X18804100Y-15920868D01*
X18804100Y-15920868D02*
X18785052Y-15911344D01*
X18785052Y-15911344D02*
X18746957Y-15911344D01*
X18746957Y-15911344D02*
X18727909Y-15920868D01*
X18727909Y-15920868D02*
X18718386Y-15930391D01*
X18718386Y-15930391D02*
X18708862Y-15949439D01*
X18708862Y-15949439D02*
X18708862Y-15997058D01*
X18708862Y-15997058D02*
X18718386Y-16016106D01*
X18718386Y-16016106D02*
X18727909Y-16025629D01*
X18727909Y-16025629D02*
X18746957Y-16035153D01*
X18746957Y-16035153D02*
X18785052Y-16035153D01*
X18785052Y-16035153D02*
X18804100Y-16025629D01*
X18804100Y-16025629D02*
X18813624Y-16016106D01*
X18813624Y-16016106D02*
X18823148Y-15997058D01*
X18994576Y-15978010D02*
X18994576Y-16111344D01*
X18946957Y-15901820D02*
X18899338Y-16044677D01*
X18899338Y-16044677D02*
X19023148Y-16044677D01*
X19089814Y-15911344D02*
X19089814Y-15949439D01*
X19166005Y-15911344D02*
X19166005Y-15949439D01*
X19461243Y-16187534D02*
X19451719Y-16178010D01*
X19451719Y-16178010D02*
X19432671Y-16149439D01*
X19432671Y-16149439D02*
X19423148Y-16130391D01*
X19423148Y-16130391D02*
X19413624Y-16101820D01*
X19413624Y-16101820D02*
X19404100Y-16054201D01*
X19404100Y-16054201D02*
X19404100Y-16016106D01*
X19404100Y-16016106D02*
X19413624Y-15968487D01*
X19413624Y-15968487D02*
X19423148Y-15939915D01*
X19423148Y-15939915D02*
X19432671Y-15920868D01*
X19432671Y-15920868D02*
X19451719Y-15892296D01*
X19451719Y-15892296D02*
X19461243Y-15882772D01*
X19642195Y-16111344D02*
X19527910Y-16111344D01*
X19585052Y-16111344D02*
X19585052Y-15911344D01*
X19585052Y-15911344D02*
X19566005Y-15939915D01*
X19566005Y-15939915D02*
X19546957Y-15958963D01*
X19546957Y-15958963D02*
X19527910Y-15968487D01*
X19718386Y-15930391D02*
X19727910Y-15920868D01*
X19727910Y-15920868D02*
X19746957Y-15911344D01*
X19746957Y-15911344D02*
X19794576Y-15911344D01*
X19794576Y-15911344D02*
X19813624Y-15920868D01*
X19813624Y-15920868D02*
X19823148Y-15930391D01*
X19823148Y-15930391D02*
X19832671Y-15949439D01*
X19832671Y-15949439D02*
X19832671Y-15968487D01*
X19832671Y-15968487D02*
X19823148Y-15997058D01*
X19823148Y-15997058D02*
X19708862Y-16111344D01*
X19708862Y-16111344D02*
X19832671Y-16111344D01*
X20070767Y-16111344D02*
X20070767Y-15911344D01*
X20156481Y-16111344D02*
X20156481Y-16006582D01*
X20156481Y-16006582D02*
X20146957Y-15987534D01*
X20146957Y-15987534D02*
X20127910Y-15978010D01*
X20127910Y-15978010D02*
X20099338Y-15978010D01*
X20099338Y-15978010D02*
X20080291Y-15987534D01*
X20080291Y-15987534D02*
X20070767Y-15997058D01*
X20280291Y-16111344D02*
X20261243Y-16101820D01*
X20261243Y-16101820D02*
X20251719Y-16092296D01*
X20251719Y-16092296D02*
X20242195Y-16073248D01*
X20242195Y-16073248D02*
X20242195Y-16016106D01*
X20242195Y-16016106D02*
X20251719Y-15997058D01*
X20251719Y-15997058D02*
X20261243Y-15987534D01*
X20261243Y-15987534D02*
X20280291Y-15978010D01*
X20280291Y-15978010D02*
X20308862Y-15978010D01*
X20308862Y-15978010D02*
X20327910Y-15987534D01*
X20327910Y-15987534D02*
X20337433Y-15997058D01*
X20337433Y-15997058D02*
X20346957Y-16016106D01*
X20346957Y-16016106D02*
X20346957Y-16073248D01*
X20346957Y-16073248D02*
X20337433Y-16092296D01*
X20337433Y-16092296D02*
X20327910Y-16101820D01*
X20327910Y-16101820D02*
X20308862Y-16111344D01*
X20308862Y-16111344D02*
X20280291Y-16111344D01*
X20461243Y-16111344D02*
X20442195Y-16101820D01*
X20442195Y-16101820D02*
X20432672Y-16082772D01*
X20432672Y-16082772D02*
X20432672Y-15911344D01*
X20613624Y-16101820D02*
X20594576Y-16111344D01*
X20594576Y-16111344D02*
X20556481Y-16111344D01*
X20556481Y-16111344D02*
X20537433Y-16101820D01*
X20537433Y-16101820D02*
X20527910Y-16082772D01*
X20527910Y-16082772D02*
X20527910Y-16006582D01*
X20527910Y-16006582D02*
X20537433Y-15987534D01*
X20537433Y-15987534D02*
X20556481Y-15978010D01*
X20556481Y-15978010D02*
X20594576Y-15978010D01*
X20594576Y-15978010D02*
X20613624Y-15987534D01*
X20613624Y-15987534D02*
X20623148Y-16006582D01*
X20623148Y-16006582D02*
X20623148Y-16025629D01*
X20623148Y-16025629D02*
X20527910Y-16044677D01*
X20699338Y-16101820D02*
X20718386Y-16111344D01*
X20718386Y-16111344D02*
X20756481Y-16111344D01*
X20756481Y-16111344D02*
X20775529Y-16101820D01*
X20775529Y-16101820D02*
X20785053Y-16082772D01*
X20785053Y-16082772D02*
X20785053Y-16073248D01*
X20785053Y-16073248D02*
X20775529Y-16054201D01*
X20775529Y-16054201D02*
X20756481Y-16044677D01*
X20756481Y-16044677D02*
X20727910Y-16044677D01*
X20727910Y-16044677D02*
X20708862Y-16035153D01*
X20708862Y-16035153D02*
X20699338Y-16016106D01*
X20699338Y-16016106D02*
X20699338Y-16006582D01*
X20699338Y-16006582D02*
X20708862Y-15987534D01*
X20708862Y-15987534D02*
X20727910Y-15978010D01*
X20727910Y-15978010D02*
X20756481Y-15978010D01*
X20756481Y-15978010D02*
X20775529Y-15987534D01*
X20851719Y-16187534D02*
X20861243Y-16178010D01*
X20861243Y-16178010D02*
X20880291Y-16149439D01*
X20880291Y-16149439D02*
X20889814Y-16130391D01*
X20889814Y-16130391D02*
X20899338Y-16101820D01*
X20899338Y-16101820D02*
X20908862Y-16054201D01*
X20908862Y-16054201D02*
X20908862Y-16016106D01*
X20908862Y-16016106D02*
X20899338Y-15968487D01*
X20899338Y-15968487D02*
X20889814Y-15939915D01*
X20889814Y-15939915D02*
X20880291Y-15920868D01*
X20880291Y-15920868D02*
X20861243Y-15892296D01*
X20861243Y-15892296D02*
X20851719Y-15882772D01*
D14*
X15831180Y-16228860D02*
X15831180Y-16338860D01*
X15776180Y-16283860D02*
X15886180Y-16283860D01*
D11*
X16251719Y-16375344D02*
X16137433Y-16375344D01*
X16194576Y-16375344D02*
X16194576Y-16175344D01*
X16194576Y-16175344D02*
X16175528Y-16203915D01*
X16175528Y-16203915D02*
X16156481Y-16222963D01*
X16156481Y-16222963D02*
X16137433Y-16232487D01*
X16337433Y-16356296D02*
X16346957Y-16365820D01*
X16346957Y-16365820D02*
X16337433Y-16375344D01*
X16337433Y-16375344D02*
X16327909Y-16365820D01*
X16327909Y-16365820D02*
X16337433Y-16356296D01*
X16337433Y-16356296D02*
X16337433Y-16375344D01*
X16537433Y-16375344D02*
X16423147Y-16375344D01*
X16480290Y-16375344D02*
X16480290Y-16175344D01*
X16480290Y-16175344D02*
X16461242Y-16203915D01*
X16461242Y-16203915D02*
X16442195Y-16222963D01*
X16442195Y-16222963D02*
X16423147Y-16232487D01*
X16661242Y-16175344D02*
X16680290Y-16175344D01*
X16680290Y-16175344D02*
X16699338Y-16184868D01*
X16699338Y-16184868D02*
X16708862Y-16194391D01*
X16708862Y-16194391D02*
X16718385Y-16213439D01*
X16718385Y-16213439D02*
X16727909Y-16251534D01*
X16727909Y-16251534D02*
X16727909Y-16299153D01*
X16727909Y-16299153D02*
X16718385Y-16337248D01*
X16718385Y-16337248D02*
X16708862Y-16356296D01*
X16708862Y-16356296D02*
X16699338Y-16365820D01*
X16699338Y-16365820D02*
X16680290Y-16375344D01*
X16680290Y-16375344D02*
X16661242Y-16375344D01*
X16661242Y-16375344D02*
X16642195Y-16365820D01*
X16642195Y-16365820D02*
X16632671Y-16356296D01*
X16632671Y-16356296D02*
X16623147Y-16337248D01*
X16623147Y-16337248D02*
X16613623Y-16299153D01*
X16613623Y-16299153D02*
X16613623Y-16251534D01*
X16613623Y-16251534D02*
X16623147Y-16213439D01*
X16623147Y-16213439D02*
X16632671Y-16194391D01*
X16632671Y-16194391D02*
X16642195Y-16184868D01*
X16642195Y-16184868D02*
X16661242Y-16175344D01*
X16851719Y-16175344D02*
X16870766Y-16175344D01*
X16870766Y-16175344D02*
X16889814Y-16184868D01*
X16889814Y-16184868D02*
X16899338Y-16194391D01*
X16899338Y-16194391D02*
X16908862Y-16213439D01*
X16908862Y-16213439D02*
X16918385Y-16251534D01*
X16918385Y-16251534D02*
X16918385Y-16299153D01*
X16918385Y-16299153D02*
X16908862Y-16337248D01*
X16908862Y-16337248D02*
X16899338Y-16356296D01*
X16899338Y-16356296D02*
X16889814Y-16365820D01*
X16889814Y-16365820D02*
X16870766Y-16375344D01*
X16870766Y-16375344D02*
X16851719Y-16375344D01*
X16851719Y-16375344D02*
X16832671Y-16365820D01*
X16832671Y-16365820D02*
X16823147Y-16356296D01*
X16823147Y-16356296D02*
X16813624Y-16337248D01*
X16813624Y-16337248D02*
X16804100Y-16299153D01*
X16804100Y-16299153D02*
X16804100Y-16251534D01*
X16804100Y-16251534D02*
X16813624Y-16213439D01*
X16813624Y-16213439D02*
X16823147Y-16194391D01*
X16823147Y-16194391D02*
X16832671Y-16184868D01*
X16832671Y-16184868D02*
X16851719Y-16175344D01*
X17004100Y-16375344D02*
X17004100Y-16242010D01*
X17004100Y-16261058D02*
X17013624Y-16251534D01*
X17013624Y-16251534D02*
X17032671Y-16242010D01*
X17032671Y-16242010D02*
X17061243Y-16242010D01*
X17061243Y-16242010D02*
X17080290Y-16251534D01*
X17080290Y-16251534D02*
X17089814Y-16270582D01*
X17089814Y-16270582D02*
X17089814Y-16375344D01*
X17089814Y-16270582D02*
X17099338Y-16251534D01*
X17099338Y-16251534D02*
X17118385Y-16242010D01*
X17118385Y-16242010D02*
X17146957Y-16242010D01*
X17146957Y-16242010D02*
X17166005Y-16251534D01*
X17166005Y-16251534D02*
X17175528Y-16270582D01*
X17175528Y-16270582D02*
X17175528Y-16375344D01*
X17270766Y-16375344D02*
X17270766Y-16242010D01*
X17270766Y-16261058D02*
X17280290Y-16251534D01*
X17280290Y-16251534D02*
X17299338Y-16242010D01*
X17299338Y-16242010D02*
X17327909Y-16242010D01*
X17327909Y-16242010D02*
X17346957Y-16251534D01*
X17346957Y-16251534D02*
X17356481Y-16270582D01*
X17356481Y-16270582D02*
X17356481Y-16375344D01*
X17356481Y-16270582D02*
X17366005Y-16251534D01*
X17366005Y-16251534D02*
X17385052Y-16242010D01*
X17385052Y-16242010D02*
X17413624Y-16242010D01*
X17413624Y-16242010D02*
X17432671Y-16251534D01*
X17432671Y-16251534D02*
X17442195Y-16270582D01*
X17442195Y-16270582D02*
X17442195Y-16375344D01*
X17832671Y-16165820D02*
X17661243Y-16422963D01*
X18089814Y-16175344D02*
X18108862Y-16175344D01*
X18108862Y-16175344D02*
X18127909Y-16184868D01*
X18127909Y-16184868D02*
X18137433Y-16194391D01*
X18137433Y-16194391D02*
X18146957Y-16213439D01*
X18146957Y-16213439D02*
X18156481Y-16251534D01*
X18156481Y-16251534D02*
X18156481Y-16299153D01*
X18156481Y-16299153D02*
X18146957Y-16337248D01*
X18146957Y-16337248D02*
X18137433Y-16356296D01*
X18137433Y-16356296D02*
X18127909Y-16365820D01*
X18127909Y-16365820D02*
X18108862Y-16375344D01*
X18108862Y-16375344D02*
X18089814Y-16375344D01*
X18089814Y-16375344D02*
X18070767Y-16365820D01*
X18070767Y-16365820D02*
X18061243Y-16356296D01*
X18061243Y-16356296D02*
X18051719Y-16337248D01*
X18051719Y-16337248D02*
X18042195Y-16299153D01*
X18042195Y-16299153D02*
X18042195Y-16251534D01*
X18042195Y-16251534D02*
X18051719Y-16213439D01*
X18051719Y-16213439D02*
X18061243Y-16194391D01*
X18061243Y-16194391D02*
X18070767Y-16184868D01*
X18070767Y-16184868D02*
X18089814Y-16175344D01*
X18242195Y-16356296D02*
X18251719Y-16365820D01*
X18251719Y-16365820D02*
X18242195Y-16375344D01*
X18242195Y-16375344D02*
X18232671Y-16365820D01*
X18232671Y-16365820D02*
X18242195Y-16356296D01*
X18242195Y-16356296D02*
X18242195Y-16375344D01*
X18375528Y-16175344D02*
X18394576Y-16175344D01*
X18394576Y-16175344D02*
X18413624Y-16184868D01*
X18413624Y-16184868D02*
X18423148Y-16194391D01*
X18423148Y-16194391D02*
X18432671Y-16213439D01*
X18432671Y-16213439D02*
X18442195Y-16251534D01*
X18442195Y-16251534D02*
X18442195Y-16299153D01*
X18442195Y-16299153D02*
X18432671Y-16337248D01*
X18432671Y-16337248D02*
X18423148Y-16356296D01*
X18423148Y-16356296D02*
X18413624Y-16365820D01*
X18413624Y-16365820D02*
X18394576Y-16375344D01*
X18394576Y-16375344D02*
X18375528Y-16375344D01*
X18375528Y-16375344D02*
X18356481Y-16365820D01*
X18356481Y-16365820D02*
X18346957Y-16356296D01*
X18346957Y-16356296D02*
X18337433Y-16337248D01*
X18337433Y-16337248D02*
X18327909Y-16299153D01*
X18327909Y-16299153D02*
X18327909Y-16251534D01*
X18327909Y-16251534D02*
X18337433Y-16213439D01*
X18337433Y-16213439D02*
X18346957Y-16194391D01*
X18346957Y-16194391D02*
X18356481Y-16184868D01*
X18356481Y-16184868D02*
X18375528Y-16175344D01*
X18613624Y-16242010D02*
X18613624Y-16375344D01*
X18566005Y-16165820D02*
X18518386Y-16308677D01*
X18518386Y-16308677D02*
X18642195Y-16308677D01*
X18699338Y-16175344D02*
X18823148Y-16175344D01*
X18823148Y-16175344D02*
X18756481Y-16251534D01*
X18756481Y-16251534D02*
X18785052Y-16251534D01*
X18785052Y-16251534D02*
X18804100Y-16261058D01*
X18804100Y-16261058D02*
X18813624Y-16270582D01*
X18813624Y-16270582D02*
X18823148Y-16289629D01*
X18823148Y-16289629D02*
X18823148Y-16337248D01*
X18823148Y-16337248D02*
X18813624Y-16356296D01*
X18813624Y-16356296D02*
X18804100Y-16365820D01*
X18804100Y-16365820D02*
X18785052Y-16375344D01*
X18785052Y-16375344D02*
X18727909Y-16375344D01*
X18727909Y-16375344D02*
X18708862Y-16365820D01*
X18708862Y-16365820D02*
X18699338Y-16356296D01*
X18889814Y-16175344D02*
X19013624Y-16175344D01*
X19013624Y-16175344D02*
X18946957Y-16251534D01*
X18946957Y-16251534D02*
X18975529Y-16251534D01*
X18975529Y-16251534D02*
X18994576Y-16261058D01*
X18994576Y-16261058D02*
X19004100Y-16270582D01*
X19004100Y-16270582D02*
X19013624Y-16289629D01*
X19013624Y-16289629D02*
X19013624Y-16337248D01*
X19013624Y-16337248D02*
X19004100Y-16356296D01*
X19004100Y-16356296D02*
X18994576Y-16365820D01*
X18994576Y-16365820D02*
X18975529Y-16375344D01*
X18975529Y-16375344D02*
X18918386Y-16375344D01*
X18918386Y-16375344D02*
X18899338Y-16365820D01*
X18899338Y-16365820D02*
X18889814Y-16356296D01*
X19089814Y-16175344D02*
X19089814Y-16213439D01*
X19166005Y-16175344D02*
X19166005Y-16213439D01*
X19461243Y-16451534D02*
X19451719Y-16442010D01*
X19451719Y-16442010D02*
X19432671Y-16413439D01*
X19432671Y-16413439D02*
X19423148Y-16394391D01*
X19423148Y-16394391D02*
X19413624Y-16365820D01*
X19413624Y-16365820D02*
X19404100Y-16318201D01*
X19404100Y-16318201D02*
X19404100Y-16280106D01*
X19404100Y-16280106D02*
X19413624Y-16232487D01*
X19413624Y-16232487D02*
X19423148Y-16203915D01*
X19423148Y-16203915D02*
X19432671Y-16184868D01*
X19432671Y-16184868D02*
X19451719Y-16156296D01*
X19451719Y-16156296D02*
X19461243Y-16146772D01*
X19527910Y-16194391D02*
X19537433Y-16184868D01*
X19537433Y-16184868D02*
X19556481Y-16175344D01*
X19556481Y-16175344D02*
X19604100Y-16175344D01*
X19604100Y-16175344D02*
X19623148Y-16184868D01*
X19623148Y-16184868D02*
X19632671Y-16194391D01*
X19632671Y-16194391D02*
X19642195Y-16213439D01*
X19642195Y-16213439D02*
X19642195Y-16232487D01*
X19642195Y-16232487D02*
X19632671Y-16261058D01*
X19632671Y-16261058D02*
X19518386Y-16375344D01*
X19518386Y-16375344D02*
X19642195Y-16375344D01*
X19880291Y-16375344D02*
X19880291Y-16175344D01*
X19966005Y-16375344D02*
X19966005Y-16270582D01*
X19966005Y-16270582D02*
X19956481Y-16251534D01*
X19956481Y-16251534D02*
X19937433Y-16242010D01*
X19937433Y-16242010D02*
X19908862Y-16242010D01*
X19908862Y-16242010D02*
X19889814Y-16251534D01*
X19889814Y-16251534D02*
X19880291Y-16261058D01*
X20089814Y-16375344D02*
X20070767Y-16365820D01*
X20070767Y-16365820D02*
X20061243Y-16356296D01*
X20061243Y-16356296D02*
X20051719Y-16337248D01*
X20051719Y-16337248D02*
X20051719Y-16280106D01*
X20051719Y-16280106D02*
X20061243Y-16261058D01*
X20061243Y-16261058D02*
X20070767Y-16251534D01*
X20070767Y-16251534D02*
X20089814Y-16242010D01*
X20089814Y-16242010D02*
X20118386Y-16242010D01*
X20118386Y-16242010D02*
X20137433Y-16251534D01*
X20137433Y-16251534D02*
X20146957Y-16261058D01*
X20146957Y-16261058D02*
X20156481Y-16280106D01*
X20156481Y-16280106D02*
X20156481Y-16337248D01*
X20156481Y-16337248D02*
X20146957Y-16356296D01*
X20146957Y-16356296D02*
X20137433Y-16365820D01*
X20137433Y-16365820D02*
X20118386Y-16375344D01*
X20118386Y-16375344D02*
X20089814Y-16375344D01*
X20270767Y-16375344D02*
X20251719Y-16365820D01*
X20251719Y-16365820D02*
X20242195Y-16346772D01*
X20242195Y-16346772D02*
X20242195Y-16175344D01*
X20423148Y-16365820D02*
X20404100Y-16375344D01*
X20404100Y-16375344D02*
X20366005Y-16375344D01*
X20366005Y-16375344D02*
X20346957Y-16365820D01*
X20346957Y-16365820D02*
X20337433Y-16346772D01*
X20337433Y-16346772D02*
X20337433Y-16270582D01*
X20337433Y-16270582D02*
X20346957Y-16251534D01*
X20346957Y-16251534D02*
X20366005Y-16242010D01*
X20366005Y-16242010D02*
X20404100Y-16242010D01*
X20404100Y-16242010D02*
X20423148Y-16251534D01*
X20423148Y-16251534D02*
X20432672Y-16270582D01*
X20432672Y-16270582D02*
X20432672Y-16289629D01*
X20432672Y-16289629D02*
X20337433Y-16308677D01*
X20508862Y-16365820D02*
X20527910Y-16375344D01*
X20527910Y-16375344D02*
X20566005Y-16375344D01*
X20566005Y-16375344D02*
X20585053Y-16365820D01*
X20585053Y-16365820D02*
X20594576Y-16346772D01*
X20594576Y-16346772D02*
X20594576Y-16337248D01*
X20594576Y-16337248D02*
X20585053Y-16318201D01*
X20585053Y-16318201D02*
X20566005Y-16308677D01*
X20566005Y-16308677D02*
X20537433Y-16308677D01*
X20537433Y-16308677D02*
X20518386Y-16299153D01*
X20518386Y-16299153D02*
X20508862Y-16280106D01*
X20508862Y-16280106D02*
X20508862Y-16270582D01*
X20508862Y-16270582D02*
X20518386Y-16251534D01*
X20518386Y-16251534D02*
X20537433Y-16242010D01*
X20537433Y-16242010D02*
X20566005Y-16242010D01*
X20566005Y-16242010D02*
X20585053Y-16251534D01*
X20661243Y-16451534D02*
X20670767Y-16442010D01*
X20670767Y-16442010D02*
X20689814Y-16413439D01*
X20689814Y-16413439D02*
X20699338Y-16394391D01*
X20699338Y-16394391D02*
X20708862Y-16365820D01*
X20708862Y-16365820D02*
X20718386Y-16318201D01*
X20718386Y-16318201D02*
X20718386Y-16280106D01*
X20718386Y-16280106D02*
X20708862Y-16232487D01*
X20708862Y-16232487D02*
X20699338Y-16203915D01*
X20699338Y-16203915D02*
X20689814Y-16184868D01*
X20689814Y-16184868D02*
X20670767Y-16156296D01*
X20670767Y-16156296D02*
X20661243Y-16146772D01*
M02*
