%TF.GenerationSoftware,KiCad,Pcbnew,7.0.5*%
%TF.CreationDate,2025-04-07T23:35:03+08:00*%
%TF.ProjectId,audio-test-board,61756469-6f2d-4746-9573-742d626f6172,rev?*%
%TF.SameCoordinates,Original*%
%TF.FileFunction,Soldermask,Top*%
%TF.FilePolarity,Negative*%
%FSLAX46Y46*%
G04 Gerber Fmt 4.6, Leading zero omitted, Abs format (unit mm)*
G04 Created by KiCad (PCBNEW 7.0.5) date 2025-04-07 23:35:03*
%MOMM*%
%LPD*%
G01*
G04 APERTURE LIST*
G04 Aperture macros list*
%AMRoundRect*
0 Rectangle with rounded corners*
0 $1 Rounding radius*
0 $2 $3 $4 $5 $6 $7 $8 $9 X,Y pos of 4 corners*
0 Add a 4 corners polygon primitive as box body*
4,1,4,$2,$3,$4,$5,$6,$7,$8,$9,$2,$3,0*
0 Add four circle primitives for the rounded corners*
1,1,$1+$1,$2,$3*
1,1,$1+$1,$4,$5*
1,1,$1+$1,$6,$7*
1,1,$1+$1,$8,$9*
0 Add four rect primitives between the rounded corners*
20,1,$1+$1,$2,$3,$4,$5,0*
20,1,$1+$1,$4,$5,$6,$7,0*
20,1,$1+$1,$6,$7,$8,$9,0*
20,1,$1+$1,$8,$9,$2,$3,0*%
G04 Aperture macros list end*
%ADD10RoundRect,0.237500X-0.237500X0.300000X-0.237500X-0.300000X0.237500X-0.300000X0.237500X0.300000X0*%
%ADD11R,1.000000X1.500000*%
%ADD12RoundRect,0.237500X0.237500X-0.300000X0.237500X0.300000X-0.237500X0.300000X-0.237500X-0.300000X0*%
%ADD13RoundRect,0.237500X-0.250000X-0.237500X0.250000X-0.237500X0.250000X0.237500X-0.250000X0.237500X0*%
%ADD14RoundRect,0.237500X-0.300000X-0.237500X0.300000X-0.237500X0.300000X0.237500X-0.300000X0.237500X0*%
%ADD15RoundRect,0.237500X0.250000X0.237500X-0.250000X0.237500X-0.250000X-0.237500X0.250000X-0.237500X0*%
%ADD16R,1.200000X2.300000*%
%ADD17RoundRect,0.237500X0.300000X0.237500X-0.300000X0.237500X-0.300000X-0.237500X0.300000X-0.237500X0*%
%ADD18RoundRect,0.237500X-0.237500X0.250000X-0.237500X-0.250000X0.237500X-0.250000X0.237500X0.250000X0*%
%ADD19RoundRect,0.237500X-0.380070X0.044194X0.044194X-0.380070X0.380070X-0.044194X-0.044194X0.380070X0*%
%ADD20RoundRect,0.062500X0.350000X0.062500X-0.350000X0.062500X-0.350000X-0.062500X0.350000X-0.062500X0*%
%ADD21RoundRect,0.062500X0.062500X0.350000X-0.062500X0.350000X-0.062500X-0.350000X0.062500X-0.350000X0*%
%ADD22R,1.680000X1.680000*%
%ADD23RoundRect,0.100000X0.637500X0.100000X-0.637500X0.100000X-0.637500X-0.100000X0.637500X-0.100000X0*%
%ADD24C,2.000000*%
%ADD25RoundRect,0.075000X0.650000X0.075000X-0.650000X0.075000X-0.650000X-0.075000X0.650000X-0.075000X0*%
%ADD26R,1.570000X1.880000*%
%ADD27R,1.700000X1.700000*%
%ADD28O,1.700000X1.700000*%
G04 APERTURE END LIST*
D10*
%TO.C,C3*%
X175586800Y-125321100D03*
X175586800Y-127046100D03*
%TD*%
D11*
%TO.C,JP2*%
X164336800Y-107883600D03*
X165636800Y-107883600D03*
X166936800Y-107883600D03*
%TD*%
D12*
%TO.C,C6*%
X176636800Y-106746100D03*
X176636800Y-105021100D03*
%TD*%
D13*
%TO.C,R3*%
X175524300Y-115553600D03*
X177349300Y-115553600D03*
%TD*%
D14*
%TO.C,C17*%
X166786800Y-120333600D03*
X168511800Y-120333600D03*
%TD*%
D15*
%TO.C,R2*%
X179349300Y-124883600D03*
X177524300Y-124883600D03*
%TD*%
D16*
%TO.C,J2*%
X167436800Y-104697600D03*
X165636800Y-98197600D03*
X164536800Y-104697600D03*
X162736800Y-98197600D03*
X161636800Y-104697600D03*
X160836800Y-98197600D03*
X169736800Y-104697600D03*
X167736800Y-98197600D03*
%TD*%
D10*
%TO.C,C4*%
X166836800Y-123421100D03*
X166836800Y-125146100D03*
%TD*%
%TO.C,C18*%
X175936800Y-117621100D03*
X175936800Y-119346100D03*
%TD*%
%TO.C,C13*%
X172796799Y-109529974D03*
X172796799Y-111254974D03*
%TD*%
D17*
%TO.C,C1*%
X179299300Y-126883600D03*
X177574300Y-126883600D03*
%TD*%
D18*
%TO.C,R1*%
X175436800Y-120883600D03*
X175436800Y-122708600D03*
%TD*%
D14*
%TO.C,C15*%
X166786800Y-121833600D03*
X168511800Y-121833600D03*
%TD*%
D12*
%TO.C,C14*%
X174436800Y-119346100D03*
X174436800Y-117621100D03*
%TD*%
D17*
%TO.C,C12*%
X177299300Y-114093600D03*
X175574300Y-114093600D03*
%TD*%
%TO.C,C8*%
X178119300Y-99083600D03*
X176394300Y-99083600D03*
%TD*%
D19*
%TO.C,C7*%
X180067040Y-99263840D03*
X181286800Y-100483600D03*
%TD*%
D17*
%TO.C,C11*%
X172882732Y-120333600D03*
X171157732Y-120333600D03*
%TD*%
D10*
%TO.C,C16*%
X177436800Y-117621100D03*
X177436800Y-119346100D03*
%TD*%
D11*
%TO.C,JP3*%
X164336800Y-110883600D03*
X165636800Y-110883600D03*
X166936800Y-110883600D03*
%TD*%
D18*
%TO.C,R4*%
X174396799Y-109479974D03*
X174396799Y-111304974D03*
%TD*%
D20*
%TO.C,U2*%
X178919300Y-102833600D03*
X178919300Y-102333600D03*
X178919300Y-101833600D03*
X178919300Y-101333600D03*
D21*
X178206800Y-100621100D03*
X177706800Y-100621100D03*
X177206800Y-100621100D03*
X176706800Y-100621100D03*
D20*
X175994300Y-101333600D03*
X175994300Y-101833600D03*
X175994300Y-102333600D03*
X175994300Y-102833600D03*
D21*
X176706800Y-103546100D03*
X177206800Y-103546100D03*
X177706800Y-103546100D03*
X178206800Y-103546100D03*
D22*
X177456800Y-102083600D03*
%TD*%
D17*
%TO.C,C10*%
X172882732Y-121833600D03*
X171157732Y-121833600D03*
%TD*%
D23*
%TO.C,U1*%
X172699300Y-119008600D03*
X172699300Y-118358600D03*
X172699300Y-117708600D03*
X172699300Y-117058600D03*
X172699300Y-116408600D03*
X172699300Y-115758600D03*
X172699300Y-115108600D03*
X172699300Y-114458600D03*
X172699300Y-113808600D03*
X172699300Y-113158600D03*
X166974300Y-113158600D03*
X166974300Y-113808600D03*
X166974300Y-114458600D03*
X166974300Y-115108600D03*
X166974300Y-115758600D03*
X166974300Y-116408600D03*
X166974300Y-117058600D03*
X166974300Y-117708600D03*
X166974300Y-118358600D03*
X166974300Y-119008600D03*
%TD*%
D12*
%TO.C,C2*%
X177036800Y-122658600D03*
X177036800Y-120933600D03*
%TD*%
D24*
%TO.C,LS1*%
X176436800Y-139197600D03*
X166436800Y-139197600D03*
%TD*%
D12*
%TO.C,C9*%
X174436800Y-100946100D03*
X174436800Y-99221100D03*
%TD*%
D25*
%TO.C,U3*%
X173586800Y-125483600D03*
X173586800Y-124983600D03*
X173586800Y-124483600D03*
X173586800Y-123983600D03*
X173586800Y-123483600D03*
X169286800Y-123483600D03*
X169286800Y-123983600D03*
X169286800Y-124483600D03*
X169286800Y-124983600D03*
X169286800Y-125483600D03*
D26*
X171436800Y-124483600D03*
%TD*%
D12*
%TO.C,C5*%
X178636800Y-106746100D03*
X178636800Y-105021100D03*
%TD*%
D27*
%TO.C,J3*%
X181756800Y-112623600D03*
D28*
X181756800Y-115163600D03*
X181756800Y-117703600D03*
X181756800Y-120243600D03*
%TD*%
D27*
%TO.C,J1*%
X161436800Y-110083600D03*
D28*
X161436800Y-112623600D03*
X161436800Y-115163600D03*
X161436800Y-117703600D03*
X161436800Y-120243600D03*
X161436800Y-122783600D03*
X161436800Y-125323600D03*
X161436800Y-127863600D03*
%TD*%
M02*
