%TF.GenerationSoftware,KiCad,Pcbnew,7.0.5*%
%TF.CreationDate,2025-04-23T02:04:11+08:00*%
%TF.ProjectId,touch-test-board,746f7563-682d-4746-9573-742d626f6172,rev?*%
%TF.SameCoordinates,Original*%
%TF.FileFunction,Soldermask,Top*%
%TF.FilePolarity,Negative*%
%FSLAX46Y46*%
G04 Gerber Fmt 4.6, Leading zero omitted, Abs format (unit mm)*
G04 Created by KiCad (PCBNEW 7.0.5) date 2025-04-23 02:04:11*
%MOMM*%
%LPD*%
G01*
G04 APERTURE LIST*
G04 Aperture macros list*
%AMRoundRect*
0 Rectangle with rounded corners*
0 $1 Rounding radius*
0 $2 $3 $4 $5 $6 $7 $8 $9 X,Y pos of 4 corners*
0 Add a 4 corners polygon primitive as box body*
4,1,4,$2,$3,$4,$5,$6,$7,$8,$9,$2,$3,0*
0 Add four circle primitives for the rounded corners*
1,1,$1+$1,$2,$3*
1,1,$1+$1,$4,$5*
1,1,$1+$1,$6,$7*
1,1,$1+$1,$8,$9*
0 Add four rect primitives between the rounded corners*
20,1,$1+$1,$2,$3,$4,$5,0*
20,1,$1+$1,$4,$5,$6,$7,0*
20,1,$1+$1,$6,$7,$8,$9,0*
20,1,$1+$1,$8,$9,$2,$3,0*%
%AMFreePoly0*
4,1,7,2.000000,3.000000,6.000000,3.000000,6.000000,-8.000000,-4.000000,-8.000000,-4.000000,17.000000,2.000000,17.000000,2.000000,3.000000,2.000000,3.000000,$1*%
%AMFreePoly1*
4,1,9,2.000000,5.957574,5.000000,5.957574,5.000000,-5.000000,-5.000000,-5.000000,-5.000000,6.000000,-2.000000,6.000000,-2.000000,20.000000,2.000000,20.000000,2.000000,5.957574,2.000000,5.957574,$1*%
%AMFreePoly2*
4,1,7,5.000000,-5.060000,-5.000000,-5.060000,-5.000000,6.000000,-1.000000,6.000000,-1.000000,19.940000,5.000000,19.940000,5.000000,-5.060000,5.000000,-5.060000,$1*%
%AMFreePoly3*
4,1,7,-2.250000,6.000000,3.500000,6.000000,3.500000,-5.000000,-6.500000,-5.000000,-6.500000,20.000000,-2.250000,20.000000,-2.250000,6.000000,-2.250000,6.000000,$1*%
%AMFreePoly4*
4,1,9,2.500000,7.000000,6.000000,7.000000,6.000000,-4.000000,-4.500000,-4.000000,-4.500000,7.000000,-3.250000,7.000000,-3.250000,21.000000,2.500000,21.000000,2.500000,7.000000,2.500000,7.000000,$1*%
%AMFreePoly5*
4,1,9,4.250000,7.000000,6.000000,7.000000,6.000000,-4.000000,-4.500000,-4.000000,-4.500000,7.000000,-1.000000,7.000000,-1.000000,21.000000,4.250000,21.000000,4.250000,7.000000,4.250000,7.000000,$1*%
%AMFreePoly6*
4,1,7,5.000000,-4.000000,-4.500000,-4.000000,-4.500000,7.000000,0.750000,7.000000,0.750000,21.000000,5.000000,21.000000,5.000000,-4.000000,5.000000,-4.000000,$1*%
G04 Aperture macros list end*
%ADD10RoundRect,0.237500X0.237500X-0.250000X0.237500X0.250000X-0.237500X0.250000X-0.237500X-0.250000X0*%
%ADD11RoundRect,0.237500X-0.237500X0.300000X-0.237500X-0.300000X0.237500X-0.300000X0.237500X0.300000X0*%
%ADD12FreePoly0,0.000000*%
%ADD13R,6.000000X13.000000*%
%ADD14FreePoly1,0.000000*%
%ADD15FreePoly2,0.000000*%
%ADD16FreePoly3,0.000000*%
%ADD17FreePoly4,0.000000*%
%ADD18FreePoly5,0.000000*%
%ADD19FreePoly6,0.000000*%
%ADD20RoundRect,0.237500X-0.250000X-0.237500X0.250000X-0.237500X0.250000X0.237500X-0.250000X0.237500X0*%
%ADD21RoundRect,0.237500X0.250000X0.237500X-0.250000X0.237500X-0.250000X-0.237500X0.250000X-0.237500X0*%
%ADD22RoundRect,0.062500X-0.350000X-0.062500X0.350000X-0.062500X0.350000X0.062500X-0.350000X0.062500X0*%
%ADD23RoundRect,0.062500X-0.062500X-0.350000X0.062500X-0.350000X0.062500X0.350000X-0.062500X0.350000X0*%
%ADD24R,2.600000X2.600000*%
%ADD25R,10.000000X10.000000*%
%ADD26R,1.700000X1.700000*%
%ADD27O,1.700000X1.700000*%
G04 APERTURE END LIST*
D10*
%TO.C,R9*%
X145034000Y-94105500D03*
X145034000Y-92280500D03*
%TD*%
%TO.C,R10*%
X143510000Y-94105500D03*
X143510000Y-92280500D03*
%TD*%
D11*
%TO.C,C3*%
X132334000Y-92330500D03*
X132334000Y-94055500D03*
%TD*%
D10*
%TO.C,R18*%
X137036037Y-83591500D03*
X137036037Y-81766500D03*
%TD*%
%TO.C,R13*%
X138938000Y-94105500D03*
X138938000Y-92280500D03*
%TD*%
D12*
%TO.C,J1*%
X108465611Y-115742574D03*
D13*
X114465611Y-105242574D03*
D14*
X120465611Y-118742574D03*
D13*
X126465611Y-105242574D03*
D15*
X131465611Y-118682574D03*
D16*
X143965611Y-118742574D03*
D13*
X145715611Y-105242574D03*
D17*
X152965611Y-119742574D03*
D13*
X159465611Y-105242574D03*
D18*
X164465611Y-119742574D03*
D13*
X172715611Y-105242574D03*
D19*
X175965611Y-119742574D03*
%TD*%
D20*
%TO.C,R2*%
X129519537Y-85065000D03*
X131344537Y-85065000D03*
%TD*%
%TO.C,R4*%
X129519537Y-88113000D03*
X131344537Y-88113000D03*
%TD*%
D11*
%TO.C,C1*%
X129286000Y-92330500D03*
X129286000Y-94055500D03*
%TD*%
D21*
%TO.C,R8*%
X146050000Y-88113000D03*
X144225000Y-88113000D03*
%TD*%
%TO.C,R20*%
X107090574Y-94209000D03*
X105265574Y-94209000D03*
%TD*%
D11*
%TO.C,C2*%
X127762000Y-92330500D03*
X127762000Y-94055500D03*
%TD*%
D10*
%TO.C,R17*%
X138501611Y-83591500D03*
X138501611Y-81766500D03*
%TD*%
D21*
%TO.C,R5*%
X146076537Y-83541000D03*
X144251537Y-83541000D03*
%TD*%
D22*
%TO.C,U2*%
X135730500Y-86863000D03*
X135730500Y-87363000D03*
X135730500Y-87863000D03*
X135730500Y-88363000D03*
X135730500Y-88863000D03*
X135730500Y-89363000D03*
D23*
X136418000Y-90050500D03*
X136918000Y-90050500D03*
X137418000Y-90050500D03*
X137918000Y-90050500D03*
X138418000Y-90050500D03*
X138918000Y-90050500D03*
D22*
X139605500Y-89363000D03*
X139605500Y-88863000D03*
X139605500Y-88363000D03*
X139605500Y-87863000D03*
X139605500Y-87363000D03*
X139605500Y-86863000D03*
D23*
X138918000Y-86175500D03*
X138418000Y-86175500D03*
X137918000Y-86175500D03*
X137418000Y-86175500D03*
X136918000Y-86175500D03*
X136418000Y-86175500D03*
D24*
X137668000Y-88113000D03*
%TD*%
D21*
%TO.C,R7*%
X146076537Y-86589000D03*
X144251537Y-86589000D03*
%TD*%
D10*
%TO.C,R14*%
X137414000Y-94105500D03*
X137414000Y-92280500D03*
%TD*%
%TO.C,R16*%
X134366000Y-94105500D03*
X134366000Y-92280500D03*
%TD*%
D20*
%TO.C,R1*%
X129493000Y-83541000D03*
X131318000Y-83541000D03*
%TD*%
D10*
%TO.C,R11*%
X141986000Y-94105500D03*
X141986000Y-92280500D03*
%TD*%
D11*
%TO.C,C4*%
X130810000Y-92330500D03*
X130810000Y-94055500D03*
%TD*%
D25*
%TO.C,J2*%
X164643648Y-78535000D03*
X175643648Y-78535000D03*
X164643648Y-89535000D03*
X175643648Y-89535000D03*
%TD*%
D10*
%TO.C,R15*%
X135890000Y-94105500D03*
X135890000Y-92280500D03*
%TD*%
D21*
%TO.C,R6*%
X146076537Y-85065000D03*
X144251537Y-85065000D03*
%TD*%
%TO.C,R19*%
X107090574Y-92685000D03*
X105265574Y-92685000D03*
%TD*%
D20*
%TO.C,R3*%
X129519537Y-86589000D03*
X131344537Y-86589000D03*
%TD*%
D10*
%TO.C,R12*%
X140462000Y-94105500D03*
X140462000Y-92280500D03*
%TD*%
D26*
%TO.C,J3*%
X105918000Y-75413000D03*
D27*
X105918000Y-77953000D03*
X105918000Y-80493000D03*
X105918000Y-83033000D03*
X105918000Y-85573000D03*
X105918000Y-88113000D03*
%TD*%
M02*
