%TF.GenerationSoftware,KiCad,Pcbnew,7.0.5*%
%TF.CreationDate,2025-04-23T02:04:17+08:00*%
%TF.ProjectId,touch-test-board,746f7563-682d-4746-9573-742d626f6172,rev?*%
%TF.SameCoordinates,Original*%
%TF.FileFunction,Drillmap*%
%TF.FilePolarity,Positive*%
%FSLAX45Y45*%
G04 Gerber Fmt 4.5, Leading zero omitted, Abs format (unit mm)*
G04 Created by KiCad (PCBNEW 7.0.5) date 2025-04-23 02:04:17*
%MOMM*%
%LPD*%
G01*
G04 APERTURE LIST*
%ADD10C,0.100000*%
%ADD11C,0.200000*%
G04 APERTURE END LIST*
D10*
X10444961Y-7302700D02*
X18116765Y-7302700D01*
X18216760Y-7402700D02*
G75*
G03*
X18116765Y-7302700I-100000J0D01*
G01*
X10344961Y-12375857D02*
X10344961Y-7402700D01*
X10344963Y-12375857D02*
G75*
G03*
X10444961Y-12475857I99997J-3D01*
G01*
X18216765Y-7402700D02*
X18216765Y-12375857D01*
X18116765Y-12475865D02*
G75*
G03*
X18216765Y-12375857I5J99995D01*
G01*
X18116765Y-12475857D02*
X10444961Y-12475857D01*
X10444961Y-7302701D02*
G75*
G03*
X10344961Y-7402700I-1J-99999D01*
G01*
D11*
X10600738Y-12792349D02*
X10600738Y-12592349D01*
X10600738Y-12592349D02*
X10648357Y-12592349D01*
X10648357Y-12592349D02*
X10676928Y-12601872D01*
X10676928Y-12601872D02*
X10695976Y-12620920D01*
X10695976Y-12620920D02*
X10705500Y-12639968D01*
X10705500Y-12639968D02*
X10715024Y-12678063D01*
X10715024Y-12678063D02*
X10715024Y-12706634D01*
X10715024Y-12706634D02*
X10705500Y-12744729D01*
X10705500Y-12744729D02*
X10695976Y-12763777D01*
X10695976Y-12763777D02*
X10676928Y-12782825D01*
X10676928Y-12782825D02*
X10648357Y-12792349D01*
X10648357Y-12792349D02*
X10600738Y-12792349D01*
X10800738Y-12792349D02*
X10800738Y-12659015D01*
X10800738Y-12697110D02*
X10810262Y-12678063D01*
X10810262Y-12678063D02*
X10819786Y-12668539D01*
X10819786Y-12668539D02*
X10838833Y-12659015D01*
X10838833Y-12659015D02*
X10857881Y-12659015D01*
X10924547Y-12792349D02*
X10924547Y-12659015D01*
X10924547Y-12592349D02*
X10915024Y-12601872D01*
X10915024Y-12601872D02*
X10924547Y-12611396D01*
X10924547Y-12611396D02*
X10934071Y-12601872D01*
X10934071Y-12601872D02*
X10924547Y-12592349D01*
X10924547Y-12592349D02*
X10924547Y-12611396D01*
X11048357Y-12792349D02*
X11029309Y-12782825D01*
X11029309Y-12782825D02*
X11019786Y-12763777D01*
X11019786Y-12763777D02*
X11019786Y-12592349D01*
X11153119Y-12792349D02*
X11134071Y-12782825D01*
X11134071Y-12782825D02*
X11124547Y-12763777D01*
X11124547Y-12763777D02*
X11124547Y-12592349D01*
X11381690Y-12792349D02*
X11381690Y-12592349D01*
X11381690Y-12592349D02*
X11448357Y-12735206D01*
X11448357Y-12735206D02*
X11515024Y-12592349D01*
X11515024Y-12592349D02*
X11515024Y-12792349D01*
X11695976Y-12792349D02*
X11695976Y-12687587D01*
X11695976Y-12687587D02*
X11686452Y-12668539D01*
X11686452Y-12668539D02*
X11667405Y-12659015D01*
X11667405Y-12659015D02*
X11629309Y-12659015D01*
X11629309Y-12659015D02*
X11610262Y-12668539D01*
X11695976Y-12782825D02*
X11676928Y-12792349D01*
X11676928Y-12792349D02*
X11629309Y-12792349D01*
X11629309Y-12792349D02*
X11610262Y-12782825D01*
X11610262Y-12782825D02*
X11600738Y-12763777D01*
X11600738Y-12763777D02*
X11600738Y-12744729D01*
X11600738Y-12744729D02*
X11610262Y-12725682D01*
X11610262Y-12725682D02*
X11629309Y-12716158D01*
X11629309Y-12716158D02*
X11676928Y-12716158D01*
X11676928Y-12716158D02*
X11695976Y-12706634D01*
X11791214Y-12659015D02*
X11791214Y-12859015D01*
X11791214Y-12668539D02*
X11810262Y-12659015D01*
X11810262Y-12659015D02*
X11848357Y-12659015D01*
X11848357Y-12659015D02*
X11867405Y-12668539D01*
X11867405Y-12668539D02*
X11876928Y-12678063D01*
X11876928Y-12678063D02*
X11886452Y-12697110D01*
X11886452Y-12697110D02*
X11886452Y-12754253D01*
X11886452Y-12754253D02*
X11876928Y-12773301D01*
X11876928Y-12773301D02*
X11867405Y-12782825D01*
X11867405Y-12782825D02*
X11848357Y-12792349D01*
X11848357Y-12792349D02*
X11810262Y-12792349D01*
X11810262Y-12792349D02*
X11791214Y-12782825D01*
X11972166Y-12773301D02*
X11981690Y-12782825D01*
X11981690Y-12782825D02*
X11972166Y-12792349D01*
X11972166Y-12792349D02*
X11962643Y-12782825D01*
X11962643Y-12782825D02*
X11972166Y-12773301D01*
X11972166Y-12773301D02*
X11972166Y-12792349D01*
X11972166Y-12668539D02*
X11981690Y-12678063D01*
X11981690Y-12678063D02*
X11972166Y-12687587D01*
X11972166Y-12687587D02*
X11962643Y-12678063D01*
X11962643Y-12678063D02*
X11972166Y-12668539D01*
X11972166Y-12668539D02*
X11972166Y-12687587D01*
M02*
