M48
; DRILL file {KiCad 7.0.5} date Wed Apr 30 23:03:43 2025
; FORMAT={-:-/ absolute / metric / decimal}
; #@! TF.CreationDate,2025-04-30T23:03:43+08:00
; #@! TF.GenerationSoftware,Kicad,Pcbnew,7.0.5
; #@! TF.FileFunction,Plated,1,2,PTH
FMAT,2
METRIC
; #@! TA.AperFunction,Plated,PTH,ViaDrill
T1C0.400
; #@! TA.AperFunction,Plated,PTH,ComponentDrill
T2C1.000
; #@! TA.AperFunction,Plated,PTH,ComponentDrill
T3C1.100
%
G90
G05
T1
X163.187Y-105.884
X167.437Y-126.284
X168.937Y-118.084
X169.661Y-116.784
X169.662Y-121.409
X170.385Y-111.884
X171.11Y-118.084
X173.037Y-99.284
X173.037Y-101.484
X173.574Y-112.347
X175.837Y-112.884
X176.437Y-128.084
X177.437Y-110.584
X178.109Y-120.571
X179.09Y-111.084
X180.237Y-103.484
X182.207Y-101.884
T2
X161.437Y-110.084
X161.437Y-112.624
X161.437Y-115.164
X161.437Y-117.704
X161.437Y-120.244
X161.437Y-122.784
X161.437Y-125.324
X161.437Y-127.864
X181.757Y-112.624
X181.757Y-115.164
X181.757Y-117.704
X181.757Y-120.244
T3
X166.437Y-139.198
X176.437Y-139.198
T0
M30
