%TF.GenerationSoftware,KiCad,Pcbnew,7.0.5*%
%TF.CreationDate,2025-04-30T23:03:42+08:00*%
%TF.ProjectId,audio-test-board,61756469-6f2d-4746-9573-742d626f6172,rev?*%
%TF.SameCoordinates,Original*%
%TF.FileFunction,Legend,Bot*%
%TF.FilePolarity,Positive*%
%FSLAX46Y46*%
G04 Gerber Fmt 4.6, Leading zero omitted, Abs format (unit mm)*
G04 Created by KiCad (PCBNEW 7.0.5) date 2025-04-30 23:03:42*
%MOMM*%
%LPD*%
G01*
G04 APERTURE LIST*
%ADD10C,0.150000*%
%ADD11C,0.120000*%
%ADD12C,2.000000*%
%ADD13R,1.500000X1.000000*%
%ADD14R,1.700000X1.700000*%
%ADD15O,1.700000X1.700000*%
G04 APERTURE END LIST*
D10*
G36*
X163095307Y-99025011D02*
G01*
X163125712Y-99055416D01*
X163159971Y-99123932D01*
X163159971Y-99374236D01*
X163125712Y-99442753D01*
X163095304Y-99473161D01*
X163026790Y-99507419D01*
X162871725Y-99507419D01*
X162833781Y-99488447D01*
X162833781Y-99009723D01*
X162871723Y-98990752D01*
X163026789Y-98990752D01*
X163095307Y-99025011D01*
G37*
G36*
X164386220Y-99279180D02*
G01*
X164392764Y-99276466D01*
X164598218Y-99276466D01*
X164655260Y-99304987D01*
X164683781Y-99362027D01*
X164683781Y-99421855D01*
X164655259Y-99478898D01*
X164598219Y-99507419D01*
X164395535Y-99507419D01*
X164357591Y-99488447D01*
X164357591Y-99276466D01*
X164371137Y-99276466D01*
X164386220Y-99279180D01*
G37*
G36*
X169226689Y-99019273D02*
G01*
X169255210Y-99076313D01*
X169255210Y-99157599D01*
X168929020Y-99092361D01*
X168929020Y-99076314D01*
X168957541Y-99019272D01*
X169014581Y-98990752D01*
X169169647Y-98990752D01*
X169226689Y-99019273D01*
G37*
G36*
X161428641Y-97415011D02*
G01*
X161459046Y-97445416D01*
X161493305Y-97513932D01*
X161493305Y-97764236D01*
X161459046Y-97832753D01*
X161428638Y-97863161D01*
X161360124Y-97897419D01*
X161205059Y-97897419D01*
X161167115Y-97878447D01*
X161167115Y-97399723D01*
X161205057Y-97380752D01*
X161360123Y-97380752D01*
X161428641Y-97415011D01*
G37*
G36*
X162719554Y-97669180D02*
G01*
X162726098Y-97666466D01*
X162931552Y-97666466D01*
X162988594Y-97694987D01*
X163017115Y-97752027D01*
X163017115Y-97811855D01*
X162988593Y-97868898D01*
X162931553Y-97897419D01*
X162728869Y-97897419D01*
X162690925Y-97878447D01*
X162690925Y-97666466D01*
X162704471Y-97666466D01*
X162719554Y-97669180D01*
G37*
G36*
X167571499Y-97415011D02*
G01*
X167601904Y-97445416D01*
X167636163Y-97513932D01*
X167636163Y-97764236D01*
X167601904Y-97832753D01*
X167571496Y-97863161D01*
X167502982Y-97897419D01*
X167395536Y-97897419D01*
X167327018Y-97863160D01*
X167296610Y-97832751D01*
X167262354Y-97764237D01*
X167262354Y-97513934D01*
X167296613Y-97445416D01*
X167327018Y-97415010D01*
X167395534Y-97380752D01*
X167502981Y-97380752D01*
X167571499Y-97415011D01*
G37*
G36*
X168952451Y-97415011D02*
G01*
X168982856Y-97445416D01*
X169017115Y-97513932D01*
X169017115Y-97764236D01*
X168982856Y-97832753D01*
X168952448Y-97863161D01*
X168883934Y-97897419D01*
X168728869Y-97897419D01*
X168690925Y-97878447D01*
X168690925Y-97399723D01*
X168728867Y-97380752D01*
X168883933Y-97380752D01*
X168952451Y-97415011D01*
G37*
G36*
X170529078Y-97669180D02*
G01*
X170535622Y-97666466D01*
X170741076Y-97666466D01*
X170798118Y-97694987D01*
X170826639Y-97752027D01*
X170826639Y-97811855D01*
X170798117Y-97868898D01*
X170741077Y-97897419D01*
X170538393Y-97897419D01*
X170500449Y-97878447D01*
X170500449Y-97666466D01*
X170513995Y-97666466D01*
X170529078Y-97669180D01*
G37*
G36*
X171558657Y-100080457D02*
G01*
X160409847Y-100080457D01*
X160409847Y-98966126D01*
X162680664Y-98966126D01*
X162683780Y-98975505D01*
X162683781Y-99533489D01*
X162683052Y-99554165D01*
X162683781Y-99555392D01*
X162683781Y-99593201D01*
X162693024Y-99624679D01*
X162726310Y-99653521D01*
X162769905Y-99659789D01*
X162807090Y-99642807D01*
X162816870Y-99647697D01*
X162831997Y-99657419D01*
X162847327Y-99657419D01*
X162862410Y-99660133D01*
X162868954Y-99657419D01*
X163040455Y-99657419D01*
X163058339Y-99659350D01*
X163072052Y-99652493D01*
X163086755Y-99648176D01*
X163091393Y-99642822D01*
X163164861Y-99606087D01*
X163177195Y-99603405D01*
X163191826Y-99588772D01*
X163206939Y-99574716D01*
X163207301Y-99573296D01*
X163233735Y-99546862D01*
X163244586Y-99540418D01*
X163253842Y-99521904D01*
X163263732Y-99503794D01*
X163263627Y-99502334D01*
X163300249Y-99429090D01*
X163309971Y-99413964D01*
X163309971Y-99398634D01*
X163312685Y-99383551D01*
X163309971Y-99377007D01*
X163309971Y-99110258D01*
X163311901Y-99092384D01*
X163305046Y-99078674D01*
X163300728Y-99063968D01*
X163295373Y-99059328D01*
X163258639Y-98985859D01*
X163255957Y-98973529D01*
X163241337Y-98958909D01*
X163227268Y-98943784D01*
X163225849Y-98943421D01*
X163209304Y-98926876D01*
X163443316Y-98926876D01*
X163461612Y-98966940D01*
X163498664Y-98990752D01*
X163598218Y-98990752D01*
X163666736Y-99025011D01*
X163697141Y-99055416D01*
X163731400Y-99123932D01*
X163731400Y-99593201D01*
X163740643Y-99624679D01*
X163773929Y-99653521D01*
X163817524Y-99659789D01*
X163857588Y-99641493D01*
X163881400Y-99604441D01*
X163881400Y-99110258D01*
X163883330Y-99092384D01*
X163881400Y-99088523D01*
X163881400Y-99067000D01*
X164204877Y-99067000D01*
X164207591Y-99073543D01*
X164207591Y-99152536D01*
X164206862Y-99173212D01*
X164207591Y-99174439D01*
X164207591Y-99533489D01*
X164206862Y-99554165D01*
X164207591Y-99555392D01*
X164207591Y-99593201D01*
X164216834Y-99624679D01*
X164250120Y-99653521D01*
X164293715Y-99659789D01*
X164330900Y-99642807D01*
X164340680Y-99647697D01*
X164355807Y-99657419D01*
X164371137Y-99657419D01*
X164386220Y-99660133D01*
X164392764Y-99657419D01*
X164611884Y-99657419D01*
X164629768Y-99659350D01*
X164643481Y-99652493D01*
X164658184Y-99648176D01*
X164662822Y-99642822D01*
X164727613Y-99610426D01*
X164730528Y-99610529D01*
X164747135Y-99600665D01*
X164754346Y-99597060D01*
X164756360Y-99595186D01*
X164768396Y-99588038D01*
X164772178Y-99580473D01*
X164778368Y-99574716D01*
X164781833Y-99561162D01*
X164824058Y-99476712D01*
X164833781Y-99461583D01*
X164833781Y-99446252D01*
X164836495Y-99431170D01*
X164833781Y-99424626D01*
X164833781Y-99348353D01*
X164835711Y-99330479D01*
X164828856Y-99316769D01*
X164824538Y-99302063D01*
X164819183Y-99297423D01*
X164786788Y-99232632D01*
X164786891Y-99229720D01*
X164777031Y-99213119D01*
X164773422Y-99205900D01*
X164771546Y-99203883D01*
X164764400Y-99191851D01*
X164756835Y-99188068D01*
X164751078Y-99181879D01*
X164737524Y-99178413D01*
X164653075Y-99136189D01*
X164637946Y-99126466D01*
X164622616Y-99126466D01*
X164607533Y-99123752D01*
X164600989Y-99126466D01*
X164395535Y-99126466D01*
X164357591Y-99107494D01*
X164357591Y-99076314D01*
X164362248Y-99067000D01*
X165109639Y-99067000D01*
X165112353Y-99073543D01*
X165112353Y-99593201D01*
X165121596Y-99624679D01*
X165154882Y-99653521D01*
X165198477Y-99659789D01*
X165238541Y-99641493D01*
X165262353Y-99604441D01*
X165262353Y-99076314D01*
X165290874Y-99019272D01*
X165347914Y-98990752D01*
X165455361Y-98990752D01*
X165523879Y-99025011D01*
X165540924Y-99042056D01*
X165540924Y-99593201D01*
X165550167Y-99624679D01*
X165583453Y-99653521D01*
X165627048Y-99659789D01*
X165667112Y-99641493D01*
X165690924Y-99604441D01*
X165690924Y-99400333D01*
X166728687Y-99400333D01*
X166731401Y-99406876D01*
X166731401Y-99435520D01*
X166729470Y-99453405D01*
X166736326Y-99467118D01*
X166740644Y-99481821D01*
X166745997Y-99486459D01*
X166778393Y-99551251D01*
X166778291Y-99554165D01*
X166788152Y-99570769D01*
X166791760Y-99577984D01*
X166793634Y-99579998D01*
X166800782Y-99592034D01*
X166808346Y-99595816D01*
X166814104Y-99602006D01*
X166827657Y-99605471D01*
X166912109Y-99647697D01*
X166927236Y-99657419D01*
X166942566Y-99657419D01*
X166957649Y-99660133D01*
X166964193Y-99657419D01*
X167135694Y-99657419D01*
X167153578Y-99659350D01*
X167167291Y-99652493D01*
X167181994Y-99648176D01*
X167186632Y-99642822D01*
X167278156Y-99597060D01*
X167282305Y-99593201D01*
X167588543Y-99593201D01*
X167597786Y-99624679D01*
X167631072Y-99653521D01*
X167674667Y-99659789D01*
X167714731Y-99641493D01*
X167738543Y-99604441D01*
X167738543Y-99149581D01*
X168775971Y-99149581D01*
X168779020Y-99162545D01*
X168779020Y-99164629D01*
X168781480Y-99173008D01*
X168786054Y-99192456D01*
X168787641Y-99193991D01*
X168788263Y-99196107D01*
X168803346Y-99209176D01*
X168817717Y-99223072D01*
X168819882Y-99223505D01*
X168821549Y-99224949D01*
X168841302Y-99227789D01*
X169255210Y-99310570D01*
X169255210Y-99421855D01*
X169226688Y-99478898D01*
X169169648Y-99507419D01*
X169014583Y-99507419D01*
X168925536Y-99462896D01*
X168893248Y-99457086D01*
X168852565Y-99473959D01*
X168827462Y-99510149D01*
X168825910Y-99554165D01*
X168848401Y-99592034D01*
X168959728Y-99647697D01*
X168974855Y-99657419D01*
X168990185Y-99657419D01*
X169005268Y-99660133D01*
X169011812Y-99657419D01*
X169183313Y-99657419D01*
X169201197Y-99659350D01*
X169214910Y-99652493D01*
X169229613Y-99648176D01*
X169234251Y-99642822D01*
X169299042Y-99610426D01*
X169301957Y-99610529D01*
X169318564Y-99600665D01*
X169325775Y-99597060D01*
X169327789Y-99595186D01*
X169339825Y-99588038D01*
X169343607Y-99580473D01*
X169349797Y-99574716D01*
X169353262Y-99561162D01*
X169395487Y-99476712D01*
X169405210Y-99461583D01*
X169405210Y-99446252D01*
X169407924Y-99431170D01*
X169405210Y-99424626D01*
X169405210Y-99261964D01*
X169408259Y-99253350D01*
X169405210Y-99240386D01*
X169405210Y-99062639D01*
X169407140Y-99044765D01*
X169400285Y-99031055D01*
X169395967Y-99016349D01*
X169390612Y-99011709D01*
X169358217Y-98946918D01*
X169358320Y-98944006D01*
X169348460Y-98927405D01*
X169348196Y-98926876D01*
X169538555Y-98926876D01*
X169556851Y-98966940D01*
X169593903Y-98990752D01*
X169779020Y-98990752D01*
X169779020Y-99593201D01*
X169788263Y-99624679D01*
X169821549Y-99653521D01*
X169865144Y-99659789D01*
X169905208Y-99641493D01*
X169929020Y-99604441D01*
X169929020Y-99593201D01*
X170255210Y-99593201D01*
X170264453Y-99624679D01*
X170297739Y-99653521D01*
X170341334Y-99659789D01*
X170381398Y-99641493D01*
X170405210Y-99604441D01*
X170405210Y-99585174D01*
X170633046Y-99585174D01*
X170646936Y-99626970D01*
X170681218Y-99654622D01*
X170725007Y-99659350D01*
X170822852Y-99610426D01*
X170825767Y-99610529D01*
X170842374Y-99600665D01*
X170849585Y-99597060D01*
X170851599Y-99595186D01*
X170863635Y-99588038D01*
X170867417Y-99580473D01*
X170873607Y-99574716D01*
X170877072Y-99561162D01*
X170919297Y-99476712D01*
X170929020Y-99461583D01*
X170929020Y-99446252D01*
X170931734Y-99431170D01*
X170929019Y-99424626D01*
X170929020Y-98571637D01*
X170919777Y-98540159D01*
X170886491Y-98511317D01*
X170842896Y-98505049D01*
X170802832Y-98523345D01*
X170779020Y-98560397D01*
X170779020Y-99421855D01*
X170750498Y-99478898D01*
X170667978Y-99520159D01*
X170643957Y-99542503D01*
X170633046Y-99585174D01*
X170405210Y-99585174D01*
X170405210Y-98904970D01*
X170395967Y-98873492D01*
X170362681Y-98844650D01*
X170319086Y-98838382D01*
X170279022Y-98856678D01*
X170255210Y-98893730D01*
X170255210Y-99593201D01*
X169929020Y-99593201D01*
X169929020Y-98990752D01*
X170007659Y-98990752D01*
X170039137Y-98981509D01*
X170067979Y-98948223D01*
X170074247Y-98904628D01*
X170055951Y-98864564D01*
X170018899Y-98840752D01*
X169929020Y-98840752D01*
X169929020Y-98729306D01*
X169930950Y-98711432D01*
X169924095Y-98697722D01*
X169919777Y-98683016D01*
X169914422Y-98678376D01*
X169887465Y-98624462D01*
X170204624Y-98624462D01*
X170208165Y-98640742D01*
X170209354Y-98657354D01*
X170212772Y-98661920D01*
X170213986Y-98667499D01*
X170225768Y-98679281D01*
X170235748Y-98692613D01*
X170241093Y-98694606D01*
X170263641Y-98717154D01*
X170264453Y-98719917D01*
X170275002Y-98729057D01*
X170283367Y-98740232D01*
X170291322Y-98743199D01*
X170297739Y-98748759D01*
X170306143Y-98749967D01*
X170313595Y-98754036D01*
X170319285Y-98753629D01*
X170324634Y-98755624D01*
X170332931Y-98753818D01*
X170341334Y-98755027D01*
X170349058Y-98751499D01*
X170357526Y-98750894D01*
X170362092Y-98747475D01*
X170367671Y-98746262D01*
X170373675Y-98740257D01*
X170381398Y-98736731D01*
X170385989Y-98729586D01*
X170392784Y-98724500D01*
X170394777Y-98719155D01*
X170427073Y-98686859D01*
X170440403Y-98676881D01*
X170446224Y-98661274D01*
X170454208Y-98646653D01*
X170453800Y-98640962D01*
X170455796Y-98635614D01*
X170452253Y-98619330D01*
X170451066Y-98602722D01*
X170447647Y-98598155D01*
X170446434Y-98592577D01*
X170434650Y-98580793D01*
X170424672Y-98567464D01*
X170419327Y-98565470D01*
X170396778Y-98542921D01*
X170395967Y-98540159D01*
X170385416Y-98531016D01*
X170377053Y-98519845D01*
X170369098Y-98516878D01*
X170362681Y-98511317D01*
X170354278Y-98510108D01*
X170346825Y-98506039D01*
X170341132Y-98506446D01*
X170335786Y-98504452D01*
X170327488Y-98506257D01*
X170319086Y-98505049D01*
X170311362Y-98508576D01*
X170302894Y-98509182D01*
X170298327Y-98512600D01*
X170292749Y-98513814D01*
X170286744Y-98519818D01*
X170279022Y-98523345D01*
X170274431Y-98530488D01*
X170267635Y-98535576D01*
X170265641Y-98540921D01*
X170233347Y-98573215D01*
X170220016Y-98583195D01*
X170214194Y-98598802D01*
X170206211Y-98613423D01*
X170206618Y-98619115D01*
X170204624Y-98624462D01*
X169887465Y-98624462D01*
X169882027Y-98613585D01*
X169882130Y-98610673D01*
X169872270Y-98594072D01*
X169868661Y-98586853D01*
X169866785Y-98584836D01*
X169859639Y-98572804D01*
X169852074Y-98569021D01*
X169846317Y-98562832D01*
X169832763Y-98559366D01*
X169748314Y-98517142D01*
X169733185Y-98507419D01*
X169717855Y-98507419D01*
X169702772Y-98504705D01*
X169696228Y-98507419D01*
X169605143Y-98507419D01*
X169573665Y-98516662D01*
X169544823Y-98549948D01*
X169538555Y-98593543D01*
X169556851Y-98633607D01*
X169593903Y-98657419D01*
X169693457Y-98657419D01*
X169750499Y-98685940D01*
X169779020Y-98742980D01*
X169779020Y-98840752D01*
X169605143Y-98840752D01*
X169573665Y-98849995D01*
X169544823Y-98883281D01*
X169538555Y-98926876D01*
X169348196Y-98926876D01*
X169344851Y-98920186D01*
X169342975Y-98918169D01*
X169335829Y-98906137D01*
X169328264Y-98902354D01*
X169322507Y-98896165D01*
X169308953Y-98892699D01*
X169224504Y-98850475D01*
X169209375Y-98840752D01*
X169194045Y-98840752D01*
X169178962Y-98838038D01*
X169172418Y-98840752D01*
X169000908Y-98840752D01*
X168983033Y-98838822D01*
X168969323Y-98845676D01*
X168954617Y-98849995D01*
X168949977Y-98855349D01*
X168885186Y-98887744D01*
X168882274Y-98887642D01*
X168865673Y-98897501D01*
X168858454Y-98901111D01*
X168856437Y-98902986D01*
X168844405Y-98910133D01*
X168840622Y-98917697D01*
X168834433Y-98923455D01*
X168830967Y-98937008D01*
X168788743Y-99021457D01*
X168779020Y-99036587D01*
X168779020Y-99051917D01*
X168776306Y-99067000D01*
X168779020Y-99073543D01*
X168779020Y-99140966D01*
X168775971Y-99149581D01*
X167738543Y-99149581D01*
X167738543Y-98904970D01*
X167729300Y-98873492D01*
X167696014Y-98844650D01*
X167652419Y-98838382D01*
X167612355Y-98856678D01*
X167588543Y-98893730D01*
X167588543Y-99593201D01*
X167282305Y-99593201D01*
X167302178Y-99574716D01*
X167313089Y-99532045D01*
X167299199Y-99490250D01*
X167264917Y-99462598D01*
X167221128Y-99457870D01*
X167122029Y-99507419D01*
X166966964Y-99507419D01*
X166909922Y-99478898D01*
X166881401Y-99421856D01*
X166881401Y-99409648D01*
X166909922Y-99352605D01*
X166966962Y-99324085D01*
X167088075Y-99324085D01*
X167105959Y-99326016D01*
X167119672Y-99319159D01*
X167134375Y-99314842D01*
X167139013Y-99309488D01*
X167203804Y-99277092D01*
X167206718Y-99277195D01*
X167223322Y-99267333D01*
X167230537Y-99263726D01*
X167232551Y-99261851D01*
X167244587Y-99254704D01*
X167248369Y-99247139D01*
X167254559Y-99241382D01*
X167258024Y-99227828D01*
X167300250Y-99143376D01*
X167309972Y-99128250D01*
X167309972Y-99112920D01*
X167312686Y-99097837D01*
X167309972Y-99091293D01*
X167309972Y-99062639D01*
X167311902Y-99044765D01*
X167305047Y-99031055D01*
X167300729Y-99016349D01*
X167295374Y-99011709D01*
X167262979Y-98946918D01*
X167263082Y-98944006D01*
X167253222Y-98927405D01*
X167249613Y-98920186D01*
X167247737Y-98918169D01*
X167240591Y-98906137D01*
X167233026Y-98902354D01*
X167227269Y-98896165D01*
X167213715Y-98892699D01*
X167129266Y-98850475D01*
X167114137Y-98840752D01*
X167098807Y-98840752D01*
X167083724Y-98838038D01*
X167077180Y-98840752D01*
X166953289Y-98840752D01*
X166935414Y-98838822D01*
X166921704Y-98845676D01*
X166906998Y-98849995D01*
X166902358Y-98855349D01*
X166810835Y-98901111D01*
X166786814Y-98923455D01*
X166775903Y-98966126D01*
X166789793Y-99007922D01*
X166824075Y-99035574D01*
X166867864Y-99040302D01*
X166966962Y-98990752D01*
X167074409Y-98990752D01*
X167131451Y-99019273D01*
X167159972Y-99076313D01*
X167159972Y-99088522D01*
X167131450Y-99145564D01*
X167074410Y-99174085D01*
X166953289Y-99174085D01*
X166935414Y-99172155D01*
X166921704Y-99179009D01*
X166906998Y-99183328D01*
X166902358Y-99188682D01*
X166837567Y-99221077D01*
X166834655Y-99220975D01*
X166818054Y-99230834D01*
X166810835Y-99234444D01*
X166808818Y-99236319D01*
X166796786Y-99243466D01*
X166793003Y-99251030D01*
X166786814Y-99256788D01*
X166783348Y-99270341D01*
X166741124Y-99354790D01*
X166731401Y-99369920D01*
X166731401Y-99385250D01*
X166728687Y-99400333D01*
X165690924Y-99400333D01*
X165690924Y-99024520D01*
X165693891Y-99016566D01*
X165690924Y-99002926D01*
X165690924Y-98624462D01*
X167537957Y-98624462D01*
X167541498Y-98640742D01*
X167542687Y-98657354D01*
X167546105Y-98661920D01*
X167547319Y-98667499D01*
X167559101Y-98679281D01*
X167569081Y-98692613D01*
X167574426Y-98694606D01*
X167596974Y-98717154D01*
X167597786Y-98719917D01*
X167608335Y-98729057D01*
X167616700Y-98740232D01*
X167624655Y-98743199D01*
X167631072Y-98748759D01*
X167639476Y-98749967D01*
X167646928Y-98754036D01*
X167652618Y-98753629D01*
X167657967Y-98755624D01*
X167666264Y-98753818D01*
X167674667Y-98755027D01*
X167682391Y-98751499D01*
X167690859Y-98750894D01*
X167695425Y-98747475D01*
X167701004Y-98746262D01*
X167707008Y-98740257D01*
X167714731Y-98736731D01*
X167719322Y-98729586D01*
X167726117Y-98724500D01*
X167728110Y-98719155D01*
X167760406Y-98686859D01*
X167773736Y-98676881D01*
X167779557Y-98661274D01*
X167787541Y-98646653D01*
X167787133Y-98640962D01*
X167789129Y-98635614D01*
X167785586Y-98619330D01*
X167784399Y-98602722D01*
X167780980Y-98598155D01*
X167779767Y-98592577D01*
X167767983Y-98580793D01*
X167758005Y-98567464D01*
X167752660Y-98565470D01*
X167730111Y-98542921D01*
X167729300Y-98540159D01*
X167718749Y-98531016D01*
X167710386Y-98519845D01*
X167702431Y-98516878D01*
X167696014Y-98511317D01*
X167687611Y-98510108D01*
X167680158Y-98506039D01*
X167674465Y-98506446D01*
X167669119Y-98504452D01*
X167660821Y-98506257D01*
X167652419Y-98505049D01*
X167644695Y-98508576D01*
X167636227Y-98509182D01*
X167631660Y-98512600D01*
X167626082Y-98513814D01*
X167620077Y-98519818D01*
X167612355Y-98523345D01*
X167607764Y-98530488D01*
X167600968Y-98535576D01*
X167598974Y-98540921D01*
X167566680Y-98573215D01*
X167553349Y-98583195D01*
X167547527Y-98598802D01*
X167539544Y-98613423D01*
X167539951Y-98619115D01*
X167537957Y-98624462D01*
X165690924Y-98624462D01*
X165690924Y-98571637D01*
X165681681Y-98540159D01*
X165648395Y-98511317D01*
X165604800Y-98505049D01*
X165564736Y-98523345D01*
X165540924Y-98560397D01*
X165540924Y-98865827D01*
X165510218Y-98850475D01*
X165495089Y-98840752D01*
X165479759Y-98840752D01*
X165464676Y-98838038D01*
X165458132Y-98840752D01*
X165334241Y-98840752D01*
X165316366Y-98838822D01*
X165302656Y-98845676D01*
X165287950Y-98849995D01*
X165283310Y-98855349D01*
X165218519Y-98887744D01*
X165215607Y-98887642D01*
X165199006Y-98897501D01*
X165191787Y-98901111D01*
X165189770Y-98902986D01*
X165177738Y-98910133D01*
X165173955Y-98917697D01*
X165167766Y-98923455D01*
X165164300Y-98937008D01*
X165122076Y-99021457D01*
X165112353Y-99036587D01*
X165112353Y-99051917D01*
X165109639Y-99067000D01*
X164362248Y-99067000D01*
X164386112Y-99019272D01*
X164443152Y-98990752D01*
X164598218Y-98990752D01*
X164687264Y-99035275D01*
X164719553Y-99041085D01*
X164760236Y-99024212D01*
X164785338Y-98988022D01*
X164786891Y-98944006D01*
X164764400Y-98906137D01*
X164653075Y-98850475D01*
X164637946Y-98840752D01*
X164622616Y-98840752D01*
X164607533Y-98838038D01*
X164600989Y-98840752D01*
X164429479Y-98840752D01*
X164411604Y-98838822D01*
X164397894Y-98845676D01*
X164383188Y-98849995D01*
X164378548Y-98855349D01*
X164313757Y-98887744D01*
X164310845Y-98887642D01*
X164294244Y-98897501D01*
X164287025Y-98901111D01*
X164285008Y-98902986D01*
X164272976Y-98910133D01*
X164269193Y-98917697D01*
X164263004Y-98923455D01*
X164259538Y-98937008D01*
X164217314Y-99021457D01*
X164207591Y-99036587D01*
X164207591Y-99051917D01*
X164204877Y-99067000D01*
X163881400Y-99067000D01*
X163881400Y-98904970D01*
X163872157Y-98873492D01*
X163838871Y-98844650D01*
X163795276Y-98838382D01*
X163755212Y-98856678D01*
X163733664Y-98890206D01*
X163727777Y-98886991D01*
X163726316Y-98887095D01*
X163653075Y-98850475D01*
X163637946Y-98840752D01*
X163622616Y-98840752D01*
X163607533Y-98838038D01*
X163600989Y-98840752D01*
X163509904Y-98840752D01*
X163478426Y-98849995D01*
X163449584Y-98883281D01*
X163443316Y-98926876D01*
X163209304Y-98926876D01*
X163199414Y-98916986D01*
X163192971Y-98906137D01*
X163174470Y-98896886D01*
X163156348Y-98886991D01*
X163154887Y-98887095D01*
X163081646Y-98850475D01*
X163066517Y-98840752D01*
X163051187Y-98840752D01*
X163036104Y-98838038D01*
X163029560Y-98840752D01*
X162858050Y-98840752D01*
X162840175Y-98838822D01*
X162833781Y-98842018D01*
X162833781Y-98571637D01*
X162824538Y-98540159D01*
X162791252Y-98511317D01*
X162747657Y-98505049D01*
X162707593Y-98523345D01*
X162683781Y-98560397D01*
X162683781Y-98953935D01*
X162680664Y-98966126D01*
X160409847Y-98966126D01*
X160409847Y-97356126D01*
X161013998Y-97356126D01*
X161017115Y-97365505D01*
X161017115Y-97923489D01*
X161016386Y-97944165D01*
X161017115Y-97945392D01*
X161017115Y-97983201D01*
X161026358Y-98014679D01*
X161059644Y-98043521D01*
X161103239Y-98049789D01*
X161140424Y-98032807D01*
X161150204Y-98037697D01*
X161165331Y-98047419D01*
X161180661Y-98047419D01*
X161195744Y-98050133D01*
X161202288Y-98047419D01*
X161373789Y-98047419D01*
X161391673Y-98049350D01*
X161405386Y-98042493D01*
X161420089Y-98038176D01*
X161424727Y-98032822D01*
X161498195Y-97996087D01*
X161510529Y-97993405D01*
X161525160Y-97978772D01*
X161540273Y-97964716D01*
X161540635Y-97963296D01*
X161567069Y-97936862D01*
X161577920Y-97930418D01*
X161587176Y-97911904D01*
X161597066Y-97893794D01*
X161596961Y-97892334D01*
X161633583Y-97819090D01*
X161643305Y-97803964D01*
X161643305Y-97788634D01*
X161646019Y-97773551D01*
X161643305Y-97767007D01*
X161643305Y-97500258D01*
X161645235Y-97482384D01*
X161638380Y-97468674D01*
X161634062Y-97453968D01*
X161628707Y-97449328D01*
X161591973Y-97375859D01*
X161589291Y-97363529D01*
X161574671Y-97348909D01*
X161560602Y-97333784D01*
X161559183Y-97333421D01*
X161542638Y-97316876D01*
X161776650Y-97316876D01*
X161794946Y-97356940D01*
X161831998Y-97380752D01*
X161931552Y-97380752D01*
X162000070Y-97415011D01*
X162030475Y-97445416D01*
X162064734Y-97513932D01*
X162064734Y-97983201D01*
X162073977Y-98014679D01*
X162107263Y-98043521D01*
X162150858Y-98049789D01*
X162190922Y-98031493D01*
X162214734Y-97994441D01*
X162214734Y-97500258D01*
X162216664Y-97482384D01*
X162214734Y-97478523D01*
X162214734Y-97457000D01*
X162538211Y-97457000D01*
X162540925Y-97463543D01*
X162540925Y-97542536D01*
X162540196Y-97563212D01*
X162540925Y-97564439D01*
X162540925Y-97923489D01*
X162540196Y-97944165D01*
X162540925Y-97945392D01*
X162540925Y-97983201D01*
X162550168Y-98014679D01*
X162583454Y-98043521D01*
X162627049Y-98049789D01*
X162664234Y-98032807D01*
X162674014Y-98037697D01*
X162689141Y-98047419D01*
X162704471Y-98047419D01*
X162719554Y-98050133D01*
X162726098Y-98047419D01*
X162945218Y-98047419D01*
X162963102Y-98049350D01*
X162976815Y-98042493D01*
X162991518Y-98038176D01*
X162996156Y-98032822D01*
X163060947Y-98000426D01*
X163063862Y-98000529D01*
X163080469Y-97990665D01*
X163087680Y-97987060D01*
X163089694Y-97985186D01*
X163101730Y-97978038D01*
X163105512Y-97970473D01*
X163111702Y-97964716D01*
X163115167Y-97951162D01*
X163157392Y-97866712D01*
X163167115Y-97851583D01*
X163167115Y-97836252D01*
X163169829Y-97821170D01*
X163167115Y-97814626D01*
X163167115Y-97738353D01*
X163169045Y-97720479D01*
X163162190Y-97706769D01*
X163157872Y-97692063D01*
X163152517Y-97687423D01*
X163120122Y-97622632D01*
X163120225Y-97619720D01*
X163110365Y-97603119D01*
X163106756Y-97595900D01*
X163104880Y-97593883D01*
X163097734Y-97581851D01*
X163090169Y-97578068D01*
X163084412Y-97571879D01*
X163070858Y-97568413D01*
X162986409Y-97526189D01*
X162971280Y-97516466D01*
X162955950Y-97516466D01*
X162940867Y-97513752D01*
X162934323Y-97516466D01*
X162728869Y-97516466D01*
X162690925Y-97497494D01*
X162690925Y-97466314D01*
X162695582Y-97457000D01*
X163442973Y-97457000D01*
X163445687Y-97463543D01*
X163445687Y-97983201D01*
X163454930Y-98014679D01*
X163488216Y-98043521D01*
X163531811Y-98049789D01*
X163571875Y-98031493D01*
X163595687Y-97994441D01*
X163595687Y-97466314D01*
X163624208Y-97409272D01*
X163681248Y-97380752D01*
X163788695Y-97380752D01*
X163857213Y-97415011D01*
X163874258Y-97432055D01*
X163874258Y-97983201D01*
X163883501Y-98014679D01*
X163916787Y-98043521D01*
X163960382Y-98049789D01*
X164000446Y-98031493D01*
X164024258Y-97994441D01*
X164024258Y-97790333D01*
X165062021Y-97790333D01*
X165064735Y-97796876D01*
X165064735Y-97825520D01*
X165062804Y-97843405D01*
X165069660Y-97857118D01*
X165073978Y-97871821D01*
X165079331Y-97876459D01*
X165111727Y-97941251D01*
X165111625Y-97944165D01*
X165121486Y-97960769D01*
X165125094Y-97967984D01*
X165126968Y-97969998D01*
X165134116Y-97982034D01*
X165141680Y-97985816D01*
X165147438Y-97992006D01*
X165160991Y-97995471D01*
X165245443Y-98037697D01*
X165260570Y-98047419D01*
X165275900Y-98047419D01*
X165290983Y-98050133D01*
X165297527Y-98047419D01*
X165469028Y-98047419D01*
X165486912Y-98049350D01*
X165500625Y-98042493D01*
X165515328Y-98038176D01*
X165519966Y-98032822D01*
X165611490Y-97987060D01*
X165615639Y-97983201D01*
X165921877Y-97983201D01*
X165931120Y-98014679D01*
X165964406Y-98043521D01*
X166008001Y-98049789D01*
X166048065Y-98031493D01*
X166071877Y-97994441D01*
X166071877Y-97504619D01*
X167109640Y-97504619D01*
X167112354Y-97511162D01*
X167112354Y-97777901D01*
X167110423Y-97795786D01*
X167117279Y-97809499D01*
X167121597Y-97824202D01*
X167126950Y-97828840D01*
X167163685Y-97902309D01*
X167166368Y-97914640D01*
X167180987Y-97929260D01*
X167195057Y-97944386D01*
X167196475Y-97944748D01*
X167222909Y-97971183D01*
X167229354Y-97982034D01*
X167247865Y-97991289D01*
X167265976Y-98001179D01*
X167267435Y-98001074D01*
X167340681Y-98037697D01*
X167355808Y-98047419D01*
X167371138Y-98047419D01*
X167386221Y-98050133D01*
X167392765Y-98047419D01*
X167516647Y-98047419D01*
X167534531Y-98049350D01*
X167548244Y-98042493D01*
X167562947Y-98038176D01*
X167567585Y-98032822D01*
X167641053Y-97996087D01*
X167653387Y-97993405D01*
X167663590Y-97983201D01*
X168064734Y-97983201D01*
X168073977Y-98014679D01*
X168107263Y-98043521D01*
X168150858Y-98049789D01*
X168190922Y-98031493D01*
X168214734Y-97994441D01*
X168214734Y-97356126D01*
X168537808Y-97356126D01*
X168540925Y-97365505D01*
X168540925Y-97923489D01*
X168540196Y-97944165D01*
X168540925Y-97945392D01*
X168540925Y-97983201D01*
X168550168Y-98014679D01*
X168583454Y-98043521D01*
X168627049Y-98049789D01*
X168664234Y-98032807D01*
X168674014Y-98037697D01*
X168689141Y-98047419D01*
X168704471Y-98047419D01*
X168719554Y-98050133D01*
X168726098Y-98047419D01*
X168897599Y-98047419D01*
X168915483Y-98049350D01*
X168929196Y-98042493D01*
X168943899Y-98038176D01*
X168948537Y-98032822D01*
X169022005Y-97996087D01*
X169034339Y-97993405D01*
X169048970Y-97978772D01*
X169064083Y-97964716D01*
X169064445Y-97963296D01*
X169090879Y-97936862D01*
X169101730Y-97930418D01*
X169110986Y-97911904D01*
X169120876Y-97893794D01*
X169120771Y-97892334D01*
X169131137Y-97871603D01*
X169442720Y-97871603D01*
X169445687Y-97885242D01*
X169445687Y-97983201D01*
X169454930Y-98014679D01*
X169488216Y-98043521D01*
X169531811Y-98049789D01*
X169571875Y-98031493D01*
X169582115Y-98015557D01*
X169626395Y-98037697D01*
X169641522Y-98047419D01*
X169656852Y-98047419D01*
X169671935Y-98050133D01*
X169678479Y-98047419D01*
X169802361Y-98047419D01*
X169820245Y-98049350D01*
X169833958Y-98042493D01*
X169848661Y-98038176D01*
X169853299Y-98032822D01*
X169918090Y-98000426D01*
X169921005Y-98000529D01*
X169937612Y-97990665D01*
X169944823Y-97987060D01*
X169946837Y-97985186D01*
X169958873Y-97978038D01*
X169962655Y-97970473D01*
X169968845Y-97964716D01*
X169972310Y-97951162D01*
X170014535Y-97866712D01*
X170024258Y-97851583D01*
X170024258Y-97836252D01*
X170026972Y-97821170D01*
X170024258Y-97814626D01*
X170024258Y-97457000D01*
X170347735Y-97457000D01*
X170350449Y-97463543D01*
X170350449Y-97542536D01*
X170349720Y-97563212D01*
X170350449Y-97564439D01*
X170350449Y-97923489D01*
X170349720Y-97944165D01*
X170350449Y-97945392D01*
X170350449Y-97983201D01*
X170359692Y-98014679D01*
X170392978Y-98043521D01*
X170436573Y-98049789D01*
X170473758Y-98032807D01*
X170483538Y-98037697D01*
X170498665Y-98047419D01*
X170513995Y-98047419D01*
X170529078Y-98050133D01*
X170535622Y-98047419D01*
X170754742Y-98047419D01*
X170772626Y-98049350D01*
X170786339Y-98042493D01*
X170801042Y-98038176D01*
X170805680Y-98032822D01*
X170870471Y-98000426D01*
X170873386Y-98000529D01*
X170889993Y-97990665D01*
X170897204Y-97987060D01*
X170899218Y-97985186D01*
X170911254Y-97978038D01*
X170915036Y-97970473D01*
X170921226Y-97964716D01*
X170924691Y-97951162D01*
X170966916Y-97866712D01*
X170976639Y-97851583D01*
X170976639Y-97836252D01*
X170979353Y-97821170D01*
X170976639Y-97814626D01*
X170976639Y-97738353D01*
X170978569Y-97720479D01*
X170971714Y-97706769D01*
X170967396Y-97692063D01*
X170962041Y-97687423D01*
X170929646Y-97622632D01*
X170929749Y-97619720D01*
X170919889Y-97603119D01*
X170916280Y-97595900D01*
X170914404Y-97593883D01*
X170907258Y-97581851D01*
X170899693Y-97578068D01*
X170893936Y-97571879D01*
X170880382Y-97568413D01*
X170795933Y-97526189D01*
X170780804Y-97516466D01*
X170765474Y-97516466D01*
X170750391Y-97513752D01*
X170743847Y-97516466D01*
X170538393Y-97516466D01*
X170500449Y-97497494D01*
X170500449Y-97466314D01*
X170528970Y-97409272D01*
X170586010Y-97380752D01*
X170741076Y-97380752D01*
X170830122Y-97425275D01*
X170862411Y-97431085D01*
X170903094Y-97414212D01*
X170928196Y-97378022D01*
X170929749Y-97334006D01*
X170907258Y-97296137D01*
X170795933Y-97240475D01*
X170780804Y-97230752D01*
X170765474Y-97230752D01*
X170750391Y-97228038D01*
X170743847Y-97230752D01*
X170572337Y-97230752D01*
X170554462Y-97228822D01*
X170540752Y-97235676D01*
X170526046Y-97239995D01*
X170521406Y-97245349D01*
X170456615Y-97277744D01*
X170453703Y-97277642D01*
X170437102Y-97287501D01*
X170429883Y-97291111D01*
X170427866Y-97292986D01*
X170415834Y-97300133D01*
X170412051Y-97307697D01*
X170405862Y-97313455D01*
X170402396Y-97327008D01*
X170360172Y-97411457D01*
X170350449Y-97426587D01*
X170350449Y-97441917D01*
X170347735Y-97457000D01*
X170024258Y-97457000D01*
X170024258Y-97294970D01*
X170015015Y-97263492D01*
X169981729Y-97234650D01*
X169938134Y-97228382D01*
X169898070Y-97246678D01*
X169874258Y-97283730D01*
X169874258Y-97811855D01*
X169845736Y-97868898D01*
X169788696Y-97897419D01*
X169681250Y-97897419D01*
X169612732Y-97863160D01*
X169595687Y-97846114D01*
X169595687Y-97294970D01*
X169586444Y-97263492D01*
X169553158Y-97234650D01*
X169509563Y-97228382D01*
X169469499Y-97246678D01*
X169445687Y-97283730D01*
X169445687Y-97863648D01*
X169442720Y-97871603D01*
X169131137Y-97871603D01*
X169157393Y-97819090D01*
X169167115Y-97803964D01*
X169167115Y-97788634D01*
X169169829Y-97773551D01*
X169167115Y-97767007D01*
X169167115Y-97500258D01*
X169169045Y-97482384D01*
X169162190Y-97468674D01*
X169157872Y-97453968D01*
X169152517Y-97449328D01*
X169115783Y-97375859D01*
X169113101Y-97363529D01*
X169098481Y-97348909D01*
X169084412Y-97333784D01*
X169082993Y-97333421D01*
X169056558Y-97306986D01*
X169050115Y-97296137D01*
X169031614Y-97286886D01*
X169013492Y-97276991D01*
X169012031Y-97277095D01*
X168938790Y-97240475D01*
X168923661Y-97230752D01*
X168908331Y-97230752D01*
X168893248Y-97228038D01*
X168886704Y-97230752D01*
X168715194Y-97230752D01*
X168697319Y-97228822D01*
X168690925Y-97232018D01*
X168690925Y-96961637D01*
X168681682Y-96930159D01*
X168648396Y-96901317D01*
X168604801Y-96895049D01*
X168564737Y-96913345D01*
X168540925Y-96950397D01*
X168540925Y-97343935D01*
X168537808Y-97356126D01*
X168214734Y-97356126D01*
X168214734Y-97294970D01*
X168205491Y-97263492D01*
X168172205Y-97234650D01*
X168128610Y-97228382D01*
X168088546Y-97246678D01*
X168064734Y-97283730D01*
X168064734Y-97983201D01*
X167663590Y-97983201D01*
X167668018Y-97978772D01*
X167683131Y-97964716D01*
X167683493Y-97963296D01*
X167709927Y-97936862D01*
X167720778Y-97930418D01*
X167730034Y-97911904D01*
X167739924Y-97893794D01*
X167739819Y-97892334D01*
X167776441Y-97819090D01*
X167786163Y-97803964D01*
X167786163Y-97788634D01*
X167788877Y-97773551D01*
X167786163Y-97767007D01*
X167786163Y-97500258D01*
X167788093Y-97482384D01*
X167781238Y-97468674D01*
X167776920Y-97453968D01*
X167771565Y-97449328D01*
X167734831Y-97375859D01*
X167732149Y-97363529D01*
X167717529Y-97348909D01*
X167703460Y-97333784D01*
X167702041Y-97333421D01*
X167675606Y-97306986D01*
X167669163Y-97296137D01*
X167650662Y-97286886D01*
X167632540Y-97276991D01*
X167631079Y-97277095D01*
X167557838Y-97240475D01*
X167542709Y-97230752D01*
X167527379Y-97230752D01*
X167512296Y-97228038D01*
X167505752Y-97230752D01*
X167381861Y-97230752D01*
X167363986Y-97228822D01*
X167350276Y-97235676D01*
X167335570Y-97239995D01*
X167330930Y-97245349D01*
X167257461Y-97282083D01*
X167245131Y-97284766D01*
X167230511Y-97299385D01*
X167215386Y-97313455D01*
X167215023Y-97314873D01*
X167188588Y-97341308D01*
X167177739Y-97347752D01*
X167168488Y-97366252D01*
X167158593Y-97384375D01*
X167158697Y-97385835D01*
X167122077Y-97459076D01*
X167112354Y-97474206D01*
X167112354Y-97489536D01*
X167109640Y-97504619D01*
X166071877Y-97504619D01*
X166071877Y-97294970D01*
X166062634Y-97263492D01*
X166029348Y-97234650D01*
X165985753Y-97228382D01*
X165945689Y-97246678D01*
X165921877Y-97283730D01*
X165921877Y-97983201D01*
X165615639Y-97983201D01*
X165635512Y-97964716D01*
X165646423Y-97922045D01*
X165632533Y-97880250D01*
X165598251Y-97852598D01*
X165554462Y-97847870D01*
X165455363Y-97897419D01*
X165300298Y-97897419D01*
X165243256Y-97868898D01*
X165214735Y-97811856D01*
X165214735Y-97799648D01*
X165243256Y-97742605D01*
X165300296Y-97714085D01*
X165421409Y-97714085D01*
X165439293Y-97716016D01*
X165453006Y-97709159D01*
X165467709Y-97704842D01*
X165472347Y-97699488D01*
X165537138Y-97667092D01*
X165540052Y-97667195D01*
X165556656Y-97657333D01*
X165563871Y-97653726D01*
X165565885Y-97651851D01*
X165577921Y-97644704D01*
X165581703Y-97637139D01*
X165587893Y-97631382D01*
X165591358Y-97617828D01*
X165633584Y-97533376D01*
X165643306Y-97518250D01*
X165643306Y-97502920D01*
X165646020Y-97487837D01*
X165643306Y-97481293D01*
X165643306Y-97452639D01*
X165645236Y-97434765D01*
X165638381Y-97421055D01*
X165634063Y-97406349D01*
X165628708Y-97401709D01*
X165596313Y-97336918D01*
X165596416Y-97334006D01*
X165586556Y-97317405D01*
X165582947Y-97310186D01*
X165581071Y-97308169D01*
X165573925Y-97296137D01*
X165566360Y-97292354D01*
X165560603Y-97286165D01*
X165547049Y-97282699D01*
X165462600Y-97240475D01*
X165447471Y-97230752D01*
X165432141Y-97230752D01*
X165417058Y-97228038D01*
X165410514Y-97230752D01*
X165286623Y-97230752D01*
X165268748Y-97228822D01*
X165255038Y-97235676D01*
X165240332Y-97239995D01*
X165235692Y-97245349D01*
X165144169Y-97291111D01*
X165120148Y-97313455D01*
X165109237Y-97356126D01*
X165123127Y-97397922D01*
X165157409Y-97425574D01*
X165201198Y-97430302D01*
X165300296Y-97380752D01*
X165407743Y-97380752D01*
X165464785Y-97409273D01*
X165493306Y-97466313D01*
X165493306Y-97478522D01*
X165464784Y-97535564D01*
X165407744Y-97564085D01*
X165286623Y-97564085D01*
X165268748Y-97562155D01*
X165255038Y-97569009D01*
X165240332Y-97573328D01*
X165235692Y-97578682D01*
X165170901Y-97611077D01*
X165167989Y-97610975D01*
X165151388Y-97620834D01*
X165144169Y-97624444D01*
X165142152Y-97626319D01*
X165130120Y-97633466D01*
X165126337Y-97641030D01*
X165120148Y-97646788D01*
X165116682Y-97660341D01*
X165074458Y-97744790D01*
X165064735Y-97759920D01*
X165064735Y-97775250D01*
X165062021Y-97790333D01*
X164024258Y-97790333D01*
X164024258Y-97414520D01*
X164027225Y-97406566D01*
X164024258Y-97392926D01*
X164024258Y-97014462D01*
X165871291Y-97014462D01*
X165874832Y-97030742D01*
X165876021Y-97047354D01*
X165879439Y-97051920D01*
X165880653Y-97057499D01*
X165892435Y-97069281D01*
X165902415Y-97082613D01*
X165907760Y-97084606D01*
X165930308Y-97107154D01*
X165931120Y-97109917D01*
X165941669Y-97119057D01*
X165950034Y-97130232D01*
X165957989Y-97133199D01*
X165964406Y-97138759D01*
X165972810Y-97139967D01*
X165980262Y-97144036D01*
X165985952Y-97143629D01*
X165991301Y-97145624D01*
X165999598Y-97143818D01*
X166008001Y-97145027D01*
X166015725Y-97141499D01*
X166024193Y-97140894D01*
X166028759Y-97137475D01*
X166034338Y-97136262D01*
X166040342Y-97130257D01*
X166048065Y-97126731D01*
X166052656Y-97119586D01*
X166059451Y-97114500D01*
X166061444Y-97109155D01*
X166093740Y-97076859D01*
X166107070Y-97066881D01*
X166112891Y-97051274D01*
X166120875Y-97036653D01*
X166120467Y-97030962D01*
X166122463Y-97025614D01*
X166120037Y-97014462D01*
X168014148Y-97014462D01*
X168017689Y-97030742D01*
X168018878Y-97047354D01*
X168022296Y-97051920D01*
X168023510Y-97057499D01*
X168035292Y-97069281D01*
X168045272Y-97082613D01*
X168050617Y-97084606D01*
X168073165Y-97107154D01*
X168073977Y-97109917D01*
X168084526Y-97119057D01*
X168092891Y-97130232D01*
X168100846Y-97133199D01*
X168107263Y-97138759D01*
X168115667Y-97139967D01*
X168123119Y-97144036D01*
X168128809Y-97143629D01*
X168134158Y-97145624D01*
X168142455Y-97143818D01*
X168150858Y-97145027D01*
X168158582Y-97141499D01*
X168167050Y-97140894D01*
X168171616Y-97137475D01*
X168177195Y-97136262D01*
X168183199Y-97130257D01*
X168190922Y-97126731D01*
X168195513Y-97119586D01*
X168202308Y-97114500D01*
X168204301Y-97109155D01*
X168236597Y-97076859D01*
X168249927Y-97066881D01*
X168255748Y-97051274D01*
X168263732Y-97036653D01*
X168263324Y-97030962D01*
X168265320Y-97025614D01*
X168261777Y-97009330D01*
X168260590Y-96992722D01*
X168257171Y-96988155D01*
X168255958Y-96982577D01*
X168244174Y-96970793D01*
X168234196Y-96957464D01*
X168228851Y-96955470D01*
X168206302Y-96932921D01*
X168205491Y-96930159D01*
X168194940Y-96921016D01*
X168186577Y-96909845D01*
X168178622Y-96906878D01*
X168172205Y-96901317D01*
X168163802Y-96900108D01*
X168156349Y-96896039D01*
X168150656Y-96896446D01*
X168145310Y-96894452D01*
X168137012Y-96896257D01*
X168128610Y-96895049D01*
X168120886Y-96898576D01*
X168112418Y-96899182D01*
X168107851Y-96902600D01*
X168102273Y-96903814D01*
X168096268Y-96909818D01*
X168088546Y-96913345D01*
X168083955Y-96920488D01*
X168077159Y-96925576D01*
X168075165Y-96930921D01*
X168042871Y-96963215D01*
X168029540Y-96973195D01*
X168023718Y-96988802D01*
X168015735Y-97003423D01*
X168016142Y-97009115D01*
X168014148Y-97014462D01*
X166120037Y-97014462D01*
X166118920Y-97009330D01*
X166117733Y-96992722D01*
X166114314Y-96988155D01*
X166113101Y-96982577D01*
X166101317Y-96970793D01*
X166091339Y-96957464D01*
X166085994Y-96955470D01*
X166063445Y-96932921D01*
X166062634Y-96930159D01*
X166052083Y-96921016D01*
X166043720Y-96909845D01*
X166035765Y-96906878D01*
X166029348Y-96901317D01*
X166020945Y-96900108D01*
X166013492Y-96896039D01*
X166007799Y-96896446D01*
X166002453Y-96894452D01*
X165994155Y-96896257D01*
X165985753Y-96895049D01*
X165978029Y-96898576D01*
X165969561Y-96899182D01*
X165964994Y-96902600D01*
X165959416Y-96903814D01*
X165953411Y-96909818D01*
X165945689Y-96913345D01*
X165941098Y-96920488D01*
X165934302Y-96925576D01*
X165932308Y-96930921D01*
X165900014Y-96963215D01*
X165886683Y-96973195D01*
X165880861Y-96988802D01*
X165872878Y-97003423D01*
X165873285Y-97009115D01*
X165871291Y-97014462D01*
X164024258Y-97014462D01*
X164024258Y-96961637D01*
X164015015Y-96930159D01*
X163981729Y-96901317D01*
X163938134Y-96895049D01*
X163898070Y-96913345D01*
X163874258Y-96950397D01*
X163874258Y-97255827D01*
X163843552Y-97240475D01*
X163828423Y-97230752D01*
X163813093Y-97230752D01*
X163798010Y-97228038D01*
X163791466Y-97230752D01*
X163667575Y-97230752D01*
X163649700Y-97228822D01*
X163635990Y-97235676D01*
X163621284Y-97239995D01*
X163616644Y-97245349D01*
X163551853Y-97277744D01*
X163548941Y-97277642D01*
X163532340Y-97287501D01*
X163525121Y-97291111D01*
X163523104Y-97292986D01*
X163511072Y-97300133D01*
X163507289Y-97307697D01*
X163501100Y-97313455D01*
X163497634Y-97327008D01*
X163455410Y-97411457D01*
X163445687Y-97426587D01*
X163445687Y-97441917D01*
X163442973Y-97457000D01*
X162695582Y-97457000D01*
X162719446Y-97409272D01*
X162776486Y-97380752D01*
X162931552Y-97380752D01*
X163020598Y-97425275D01*
X163052887Y-97431085D01*
X163093570Y-97414212D01*
X163118672Y-97378022D01*
X163120225Y-97334006D01*
X163097734Y-97296137D01*
X162986409Y-97240475D01*
X162971280Y-97230752D01*
X162955950Y-97230752D01*
X162940867Y-97228038D01*
X162934323Y-97230752D01*
X162762813Y-97230752D01*
X162744938Y-97228822D01*
X162731228Y-97235676D01*
X162716522Y-97239995D01*
X162711882Y-97245349D01*
X162647091Y-97277744D01*
X162644179Y-97277642D01*
X162627578Y-97287501D01*
X162620359Y-97291111D01*
X162618342Y-97292986D01*
X162606310Y-97300133D01*
X162602527Y-97307697D01*
X162596338Y-97313455D01*
X162592872Y-97327008D01*
X162550648Y-97411457D01*
X162540925Y-97426587D01*
X162540925Y-97441917D01*
X162538211Y-97457000D01*
X162214734Y-97457000D01*
X162214734Y-97294970D01*
X162205491Y-97263492D01*
X162172205Y-97234650D01*
X162128610Y-97228382D01*
X162088546Y-97246678D01*
X162066998Y-97280206D01*
X162061111Y-97276991D01*
X162059650Y-97277095D01*
X161986409Y-97240475D01*
X161971280Y-97230752D01*
X161955950Y-97230752D01*
X161940867Y-97228038D01*
X161934323Y-97230752D01*
X161843238Y-97230752D01*
X161811760Y-97239995D01*
X161782918Y-97273281D01*
X161776650Y-97316876D01*
X161542638Y-97316876D01*
X161532748Y-97306986D01*
X161526305Y-97296137D01*
X161507804Y-97286886D01*
X161489682Y-97276991D01*
X161488221Y-97277095D01*
X161414980Y-97240475D01*
X161399851Y-97230752D01*
X161384521Y-97230752D01*
X161369438Y-97228038D01*
X161362894Y-97230752D01*
X161191384Y-97230752D01*
X161173509Y-97228822D01*
X161167115Y-97232018D01*
X161167115Y-96961637D01*
X161157872Y-96930159D01*
X161124586Y-96901317D01*
X161080991Y-96895049D01*
X161040927Y-96913345D01*
X161017115Y-96950397D01*
X161017115Y-97343935D01*
X161013998Y-97356126D01*
X160409847Y-97356126D01*
X160409847Y-96359743D01*
X171558657Y-96359743D01*
X171558657Y-100080457D01*
G37*
X180607220Y-148815419D02*
X180607220Y-148148752D01*
X180607220Y-147815419D02*
X180654839Y-147863038D01*
X180654839Y-147863038D02*
X180607220Y-147910657D01*
X180607220Y-147910657D02*
X180559601Y-147863038D01*
X180559601Y-147863038D02*
X180607220Y-147815419D01*
X180607220Y-147815419D02*
X180607220Y-147910657D01*
X179369125Y-148815419D02*
X179369125Y-148148752D01*
X179369125Y-148339228D02*
X179321506Y-148243990D01*
X179321506Y-148243990D02*
X179273887Y-148196371D01*
X179273887Y-148196371D02*
X179178649Y-148148752D01*
X179178649Y-148148752D02*
X179083411Y-148148752D01*
X178369125Y-148767800D02*
X178464363Y-148815419D01*
X178464363Y-148815419D02*
X178654839Y-148815419D01*
X178654839Y-148815419D02*
X178750077Y-148767800D01*
X178750077Y-148767800D02*
X178797696Y-148672561D01*
X178797696Y-148672561D02*
X178797696Y-148291609D01*
X178797696Y-148291609D02*
X178750077Y-148196371D01*
X178750077Y-148196371D02*
X178654839Y-148148752D01*
X178654839Y-148148752D02*
X178464363Y-148148752D01*
X178464363Y-148148752D02*
X178369125Y-148196371D01*
X178369125Y-148196371D02*
X178321506Y-148291609D01*
X178321506Y-148291609D02*
X178321506Y-148386847D01*
X178321506Y-148386847D02*
X178797696Y-148482085D01*
X177464363Y-148815419D02*
X177464363Y-148291609D01*
X177464363Y-148291609D02*
X177511982Y-148196371D01*
X177511982Y-148196371D02*
X177607220Y-148148752D01*
X177607220Y-148148752D02*
X177797696Y-148148752D01*
X177797696Y-148148752D02*
X177892934Y-148196371D01*
X177464363Y-148767800D02*
X177559601Y-148815419D01*
X177559601Y-148815419D02*
X177797696Y-148815419D01*
X177797696Y-148815419D02*
X177892934Y-148767800D01*
X177892934Y-148767800D02*
X177940553Y-148672561D01*
X177940553Y-148672561D02*
X177940553Y-148577323D01*
X177940553Y-148577323D02*
X177892934Y-148482085D01*
X177892934Y-148482085D02*
X177797696Y-148434466D01*
X177797696Y-148434466D02*
X177559601Y-148434466D01*
X177559601Y-148434466D02*
X177464363Y-148386847D01*
X176845315Y-148815419D02*
X176940553Y-148767800D01*
X176940553Y-148767800D02*
X176988172Y-148672561D01*
X176988172Y-148672561D02*
X176988172Y-147815419D01*
X176321505Y-148815419D02*
X176416743Y-148767800D01*
X176416743Y-148767800D02*
X176464362Y-148672561D01*
X176464362Y-148672561D02*
X176464362Y-147815419D01*
X176035790Y-148148752D02*
X175797695Y-148815419D01*
X175559600Y-148148752D02*
X175797695Y-148815419D01*
X175797695Y-148815419D02*
X175892933Y-149053514D01*
X175892933Y-149053514D02*
X175940552Y-149101133D01*
X175940552Y-149101133D02*
X176035790Y-149148752D01*
X174416742Y-148815419D02*
X174416742Y-147815419D01*
X173988171Y-148815419D02*
X173988171Y-148291609D01*
X173988171Y-148291609D02*
X174035790Y-148196371D01*
X174035790Y-148196371D02*
X174131028Y-148148752D01*
X174131028Y-148148752D02*
X174273885Y-148148752D01*
X174273885Y-148148752D02*
X174369123Y-148196371D01*
X174369123Y-148196371D02*
X174416742Y-148243990D01*
X173369123Y-148815419D02*
X173464361Y-148767800D01*
X173464361Y-148767800D02*
X173511980Y-148720180D01*
X173511980Y-148720180D02*
X173559599Y-148624942D01*
X173559599Y-148624942D02*
X173559599Y-148339228D01*
X173559599Y-148339228D02*
X173511980Y-148243990D01*
X173511980Y-148243990D02*
X173464361Y-148196371D01*
X173464361Y-148196371D02*
X173369123Y-148148752D01*
X173369123Y-148148752D02*
X173226266Y-148148752D01*
X173226266Y-148148752D02*
X173131028Y-148196371D01*
X173131028Y-148196371D02*
X173083409Y-148243990D01*
X173083409Y-148243990D02*
X173035790Y-148339228D01*
X173035790Y-148339228D02*
X173035790Y-148624942D01*
X173035790Y-148624942D02*
X173083409Y-148720180D01*
X173083409Y-148720180D02*
X173131028Y-148767800D01*
X173131028Y-148767800D02*
X173226266Y-148815419D01*
X173226266Y-148815419D02*
X173369123Y-148815419D01*
X172607218Y-148148752D02*
X172607218Y-149148752D01*
X172607218Y-148196371D02*
X172511980Y-148148752D01*
X172511980Y-148148752D02*
X172321504Y-148148752D01*
X172321504Y-148148752D02*
X172226266Y-148196371D01*
X172226266Y-148196371D02*
X172178647Y-148243990D01*
X172178647Y-148243990D02*
X172131028Y-148339228D01*
X172131028Y-148339228D02*
X172131028Y-148624942D01*
X172131028Y-148624942D02*
X172178647Y-148720180D01*
X172178647Y-148720180D02*
X172226266Y-148767800D01*
X172226266Y-148767800D02*
X172321504Y-148815419D01*
X172321504Y-148815419D02*
X172511980Y-148815419D01*
X172511980Y-148815419D02*
X172607218Y-148767800D01*
X171321504Y-148767800D02*
X171416742Y-148815419D01*
X171416742Y-148815419D02*
X171607218Y-148815419D01*
X171607218Y-148815419D02*
X171702456Y-148767800D01*
X171702456Y-148767800D02*
X171750075Y-148672561D01*
X171750075Y-148672561D02*
X171750075Y-148291609D01*
X171750075Y-148291609D02*
X171702456Y-148196371D01*
X171702456Y-148196371D02*
X171607218Y-148148752D01*
X171607218Y-148148752D02*
X171416742Y-148148752D01*
X171416742Y-148148752D02*
X171321504Y-148196371D01*
X171321504Y-148196371D02*
X171273885Y-148291609D01*
X171273885Y-148291609D02*
X171273885Y-148386847D01*
X171273885Y-148386847D02*
X171750075Y-148482085D01*
X170226265Y-148148752D02*
X169845313Y-148148752D01*
X170083408Y-147815419D02*
X170083408Y-148672561D01*
X170083408Y-148672561D02*
X170035789Y-148767800D01*
X170035789Y-148767800D02*
X169940551Y-148815419D01*
X169940551Y-148815419D02*
X169845313Y-148815419D01*
X169511979Y-148815419D02*
X169511979Y-147815419D01*
X169083408Y-148815419D02*
X169083408Y-148291609D01*
X169083408Y-148291609D02*
X169131027Y-148196371D01*
X169131027Y-148196371D02*
X169226265Y-148148752D01*
X169226265Y-148148752D02*
X169369122Y-148148752D01*
X169369122Y-148148752D02*
X169464360Y-148196371D01*
X169464360Y-148196371D02*
X169511979Y-148243990D01*
X168607217Y-148815419D02*
X168607217Y-148148752D01*
X168607217Y-147815419D02*
X168654836Y-147863038D01*
X168654836Y-147863038D02*
X168607217Y-147910657D01*
X168607217Y-147910657D02*
X168559598Y-147863038D01*
X168559598Y-147863038D02*
X168607217Y-147815419D01*
X168607217Y-147815419D02*
X168607217Y-147910657D01*
X168178646Y-148767800D02*
X168083408Y-148815419D01*
X168083408Y-148815419D02*
X167892932Y-148815419D01*
X167892932Y-148815419D02*
X167797694Y-148767800D01*
X167797694Y-148767800D02*
X167750075Y-148672561D01*
X167750075Y-148672561D02*
X167750075Y-148624942D01*
X167750075Y-148624942D02*
X167797694Y-148529704D01*
X167797694Y-148529704D02*
X167892932Y-148482085D01*
X167892932Y-148482085D02*
X168035789Y-148482085D01*
X168035789Y-148482085D02*
X168131027Y-148434466D01*
X168131027Y-148434466D02*
X168178646Y-148339228D01*
X168178646Y-148339228D02*
X168178646Y-148291609D01*
X168178646Y-148291609D02*
X168131027Y-148196371D01*
X168131027Y-148196371D02*
X168035789Y-148148752D01*
X168035789Y-148148752D02*
X167892932Y-148148752D01*
X167892932Y-148148752D02*
X167797694Y-148196371D01*
X166654836Y-148148752D02*
X166464360Y-148815419D01*
X166464360Y-148815419D02*
X166273884Y-148339228D01*
X166273884Y-148339228D02*
X166083408Y-148815419D01*
X166083408Y-148815419D02*
X165892932Y-148148752D01*
X165369122Y-148815419D02*
X165464360Y-148767800D01*
X165464360Y-148767800D02*
X165511979Y-148720180D01*
X165511979Y-148720180D02*
X165559598Y-148624942D01*
X165559598Y-148624942D02*
X165559598Y-148339228D01*
X165559598Y-148339228D02*
X165511979Y-148243990D01*
X165511979Y-148243990D02*
X165464360Y-148196371D01*
X165464360Y-148196371D02*
X165369122Y-148148752D01*
X165369122Y-148148752D02*
X165226265Y-148148752D01*
X165226265Y-148148752D02*
X165131027Y-148196371D01*
X165131027Y-148196371D02*
X165083408Y-148243990D01*
X165083408Y-148243990D02*
X165035789Y-148339228D01*
X165035789Y-148339228D02*
X165035789Y-148624942D01*
X165035789Y-148624942D02*
X165083408Y-148720180D01*
X165083408Y-148720180D02*
X165131027Y-148767800D01*
X165131027Y-148767800D02*
X165226265Y-148815419D01*
X165226265Y-148815419D02*
X165369122Y-148815419D01*
X164607217Y-148815419D02*
X164607217Y-148148752D01*
X164607217Y-148339228D02*
X164559598Y-148243990D01*
X164559598Y-148243990D02*
X164511979Y-148196371D01*
X164511979Y-148196371D02*
X164416741Y-148148752D01*
X164416741Y-148148752D02*
X164321503Y-148148752D01*
X163988169Y-148815419D02*
X163988169Y-147815419D01*
X163892931Y-148434466D02*
X163607217Y-148815419D01*
X163607217Y-148148752D02*
X163988169Y-148529704D01*
X163226264Y-148767800D02*
X163131026Y-148815419D01*
X163131026Y-148815419D02*
X162940550Y-148815419D01*
X162940550Y-148815419D02*
X162845312Y-148767800D01*
X162845312Y-148767800D02*
X162797693Y-148672561D01*
X162797693Y-148672561D02*
X162797693Y-148624942D01*
X162797693Y-148624942D02*
X162845312Y-148529704D01*
X162845312Y-148529704D02*
X162940550Y-148482085D01*
X162940550Y-148482085D02*
X163083407Y-148482085D01*
X163083407Y-148482085D02*
X163178645Y-148434466D01*
X163178645Y-148434466D02*
X163226264Y-148339228D01*
X163226264Y-148339228D02*
X163226264Y-148291609D01*
X163226264Y-148291609D02*
X163178645Y-148196371D01*
X163178645Y-148196371D02*
X163083407Y-148148752D01*
X163083407Y-148148752D02*
X162940550Y-148148752D01*
X162940550Y-148148752D02*
X162845312Y-148196371D01*
X166878809Y-111261712D02*
X166878809Y-110928379D01*
X167402619Y-110928379D02*
X166402619Y-110928379D01*
X166402619Y-110928379D02*
X166402619Y-111404569D01*
X167402619Y-111785522D02*
X166402619Y-111785522D01*
X166402619Y-111785522D02*
X167116904Y-112118855D01*
X167116904Y-112118855D02*
X166402619Y-112452188D01*
X166402619Y-112452188D02*
X167402619Y-112452188D01*
X166402619Y-112785522D02*
X166402619Y-113356950D01*
X167402619Y-113071236D02*
X166402619Y-113071236D01*
X167497857Y-113452189D02*
X167497857Y-114214093D01*
X167355000Y-114404570D02*
X167402619Y-114547427D01*
X167402619Y-114547427D02*
X167402619Y-114785522D01*
X167402619Y-114785522D02*
X167355000Y-114880760D01*
X167355000Y-114880760D02*
X167307380Y-114928379D01*
X167307380Y-114928379D02*
X167212142Y-114975998D01*
X167212142Y-114975998D02*
X167116904Y-114975998D01*
X167116904Y-114975998D02*
X167021666Y-114928379D01*
X167021666Y-114928379D02*
X166974047Y-114880760D01*
X166974047Y-114880760D02*
X166926428Y-114785522D01*
X166926428Y-114785522D02*
X166878809Y-114595046D01*
X166878809Y-114595046D02*
X166831190Y-114499808D01*
X166831190Y-114499808D02*
X166783571Y-114452189D01*
X166783571Y-114452189D02*
X166688333Y-114404570D01*
X166688333Y-114404570D02*
X166593095Y-114404570D01*
X166593095Y-114404570D02*
X166497857Y-114452189D01*
X166497857Y-114452189D02*
X166450238Y-114499808D01*
X166450238Y-114499808D02*
X166402619Y-114595046D01*
X166402619Y-114595046D02*
X166402619Y-114833141D01*
X166402619Y-114833141D02*
X166450238Y-114975998D01*
X166878809Y-115404570D02*
X166878809Y-115737903D01*
X167402619Y-115880760D02*
X167402619Y-115404570D01*
X167402619Y-115404570D02*
X166402619Y-115404570D01*
X166402619Y-115404570D02*
X166402619Y-115880760D01*
X167402619Y-116785522D02*
X167402619Y-116309332D01*
X167402619Y-116309332D02*
X166402619Y-116309332D01*
X178680449Y-122046800D02*
X178775687Y-122094419D01*
X178775687Y-122094419D02*
X178966163Y-122094419D01*
X178966163Y-122094419D02*
X179061401Y-122046800D01*
X179061401Y-122046800D02*
X179109020Y-121999180D01*
X179109020Y-121999180D02*
X179156639Y-121903942D01*
X179156639Y-121903942D02*
X179156639Y-121618228D01*
X179156639Y-121618228D02*
X179109020Y-121522990D01*
X179109020Y-121522990D02*
X179061401Y-121475371D01*
X179061401Y-121475371D02*
X178966163Y-121427752D01*
X178966163Y-121427752D02*
X178775687Y-121427752D01*
X178775687Y-121427752D02*
X178680449Y-121475371D01*
X178109020Y-122094419D02*
X178204258Y-122046800D01*
X178204258Y-122046800D02*
X178251877Y-121999180D01*
X178251877Y-121999180D02*
X178299496Y-121903942D01*
X178299496Y-121903942D02*
X178299496Y-121618228D01*
X178299496Y-121618228D02*
X178251877Y-121522990D01*
X178251877Y-121522990D02*
X178204258Y-121475371D01*
X178204258Y-121475371D02*
X178109020Y-121427752D01*
X178109020Y-121427752D02*
X177966163Y-121427752D01*
X177966163Y-121427752D02*
X177870925Y-121475371D01*
X177870925Y-121475371D02*
X177823306Y-121522990D01*
X177823306Y-121522990D02*
X177775687Y-121618228D01*
X177775687Y-121618228D02*
X177775687Y-121903942D01*
X177775687Y-121903942D02*
X177823306Y-121999180D01*
X177823306Y-121999180D02*
X177870925Y-122046800D01*
X177870925Y-122046800D02*
X177966163Y-122094419D01*
X177966163Y-122094419D02*
X178109020Y-122094419D01*
X177347115Y-122094419D02*
X177347115Y-121427752D01*
X177347115Y-121522990D02*
X177299496Y-121475371D01*
X177299496Y-121475371D02*
X177204258Y-121427752D01*
X177204258Y-121427752D02*
X177061401Y-121427752D01*
X177061401Y-121427752D02*
X176966163Y-121475371D01*
X176966163Y-121475371D02*
X176918544Y-121570609D01*
X176918544Y-121570609D02*
X176918544Y-122094419D01*
X176918544Y-121570609D02*
X176870925Y-121475371D01*
X176870925Y-121475371D02*
X176775687Y-121427752D01*
X176775687Y-121427752D02*
X176632830Y-121427752D01*
X176632830Y-121427752D02*
X176537591Y-121475371D01*
X176537591Y-121475371D02*
X176489972Y-121570609D01*
X176489972Y-121570609D02*
X176489972Y-122094419D01*
X176013782Y-122094419D02*
X176013782Y-121094419D01*
X176013782Y-121475371D02*
X175918544Y-121427752D01*
X175918544Y-121427752D02*
X175728068Y-121427752D01*
X175728068Y-121427752D02*
X175632830Y-121475371D01*
X175632830Y-121475371D02*
X175585211Y-121522990D01*
X175585211Y-121522990D02*
X175537592Y-121618228D01*
X175537592Y-121618228D02*
X175537592Y-121903942D01*
X175537592Y-121903942D02*
X175585211Y-121999180D01*
X175585211Y-121999180D02*
X175632830Y-122046800D01*
X175632830Y-122046800D02*
X175728068Y-122094419D01*
X175728068Y-122094419D02*
X175918544Y-122094419D01*
X175918544Y-122094419D02*
X176013782Y-122046800D01*
X174966163Y-122094419D02*
X175061401Y-122046800D01*
X175061401Y-122046800D02*
X175109020Y-121999180D01*
X175109020Y-121999180D02*
X175156639Y-121903942D01*
X175156639Y-121903942D02*
X175156639Y-121618228D01*
X175156639Y-121618228D02*
X175109020Y-121522990D01*
X175109020Y-121522990D02*
X175061401Y-121475371D01*
X175061401Y-121475371D02*
X174966163Y-121427752D01*
X174966163Y-121427752D02*
X174823306Y-121427752D01*
X174823306Y-121427752D02*
X174728068Y-121475371D01*
X174728068Y-121475371D02*
X174680449Y-121522990D01*
X174680449Y-121522990D02*
X174632830Y-121618228D01*
X174632830Y-121618228D02*
X174632830Y-121903942D01*
X174632830Y-121903942D02*
X174680449Y-121999180D01*
X174680449Y-121999180D02*
X174728068Y-122046800D01*
X174728068Y-122046800D02*
X174823306Y-122094419D01*
X174823306Y-122094419D02*
X174966163Y-122094419D01*
X173442353Y-122094419D02*
X173442353Y-121094419D01*
X173442353Y-121094419D02*
X173204258Y-121094419D01*
X173204258Y-121094419D02*
X173061401Y-121142038D01*
X173061401Y-121142038D02*
X172966163Y-121237276D01*
X172966163Y-121237276D02*
X172918544Y-121332514D01*
X172918544Y-121332514D02*
X172870925Y-121522990D01*
X172870925Y-121522990D02*
X172870925Y-121665847D01*
X172870925Y-121665847D02*
X172918544Y-121856323D01*
X172918544Y-121856323D02*
X172966163Y-121951561D01*
X172966163Y-121951561D02*
X173061401Y-122046800D01*
X173061401Y-122046800D02*
X173204258Y-122094419D01*
X173204258Y-122094419D02*
X173442353Y-122094419D01*
X172489972Y-121808704D02*
X172013782Y-121808704D01*
X172585210Y-122094419D02*
X172251877Y-121094419D01*
X172251877Y-121094419D02*
X171918544Y-122094419D01*
X171013782Y-121999180D02*
X171061401Y-122046800D01*
X171061401Y-122046800D02*
X171204258Y-122094419D01*
X171204258Y-122094419D02*
X171299496Y-122094419D01*
X171299496Y-122094419D02*
X171442353Y-122046800D01*
X171442353Y-122046800D02*
X171537591Y-121951561D01*
X171537591Y-121951561D02*
X171585210Y-121856323D01*
X171585210Y-121856323D02*
X171632829Y-121665847D01*
X171632829Y-121665847D02*
X171632829Y-121522990D01*
X171632829Y-121522990D02*
X171585210Y-121332514D01*
X171585210Y-121332514D02*
X171537591Y-121237276D01*
X171537591Y-121237276D02*
X171442353Y-121142038D01*
X171442353Y-121142038D02*
X171299496Y-121094419D01*
X171299496Y-121094419D02*
X171204258Y-121094419D01*
X171204258Y-121094419D02*
X171061401Y-121142038D01*
X171061401Y-121142038D02*
X171013782Y-121189657D01*
X179109020Y-123323466D02*
X178347116Y-123323466D01*
X178728068Y-123704419D02*
X178728068Y-122942514D01*
X177109020Y-123704419D02*
X177109020Y-122704419D01*
X176680449Y-123704419D02*
X176680449Y-123180609D01*
X176680449Y-123180609D02*
X176728068Y-123085371D01*
X176728068Y-123085371D02*
X176823306Y-123037752D01*
X176823306Y-123037752D02*
X176966163Y-123037752D01*
X176966163Y-123037752D02*
X177061401Y-123085371D01*
X177061401Y-123085371D02*
X177109020Y-123132990D01*
X175823306Y-123656800D02*
X175918544Y-123704419D01*
X175918544Y-123704419D02*
X176109020Y-123704419D01*
X176109020Y-123704419D02*
X176204258Y-123656800D01*
X176204258Y-123656800D02*
X176251877Y-123561561D01*
X176251877Y-123561561D02*
X176251877Y-123180609D01*
X176251877Y-123180609D02*
X176204258Y-123085371D01*
X176204258Y-123085371D02*
X176109020Y-123037752D01*
X176109020Y-123037752D02*
X175918544Y-123037752D01*
X175918544Y-123037752D02*
X175823306Y-123085371D01*
X175823306Y-123085371D02*
X175775687Y-123180609D01*
X175775687Y-123180609D02*
X175775687Y-123275847D01*
X175775687Y-123275847D02*
X176251877Y-123371085D01*
X174918544Y-123704419D02*
X174918544Y-123180609D01*
X174918544Y-123180609D02*
X174966163Y-123085371D01*
X174966163Y-123085371D02*
X175061401Y-123037752D01*
X175061401Y-123037752D02*
X175251877Y-123037752D01*
X175251877Y-123037752D02*
X175347115Y-123085371D01*
X174918544Y-123656800D02*
X175013782Y-123704419D01*
X175013782Y-123704419D02*
X175251877Y-123704419D01*
X175251877Y-123704419D02*
X175347115Y-123656800D01*
X175347115Y-123656800D02*
X175394734Y-123561561D01*
X175394734Y-123561561D02*
X175394734Y-123466323D01*
X175394734Y-123466323D02*
X175347115Y-123371085D01*
X175347115Y-123371085D02*
X175251877Y-123323466D01*
X175251877Y-123323466D02*
X175013782Y-123323466D01*
X175013782Y-123323466D02*
X174918544Y-123275847D01*
X174013782Y-123704419D02*
X174013782Y-122704419D01*
X174013782Y-123656800D02*
X174109020Y-123704419D01*
X174109020Y-123704419D02*
X174299496Y-123704419D01*
X174299496Y-123704419D02*
X174394734Y-123656800D01*
X174394734Y-123656800D02*
X174442353Y-123609180D01*
X174442353Y-123609180D02*
X174489972Y-123513942D01*
X174489972Y-123513942D02*
X174489972Y-123228228D01*
X174489972Y-123228228D02*
X174442353Y-123132990D01*
X174442353Y-123132990D02*
X174394734Y-123085371D01*
X174394734Y-123085371D02*
X174299496Y-123037752D01*
X174299496Y-123037752D02*
X174109020Y-123037752D01*
X174109020Y-123037752D02*
X174013782Y-123085371D01*
X173537591Y-123037752D02*
X173537591Y-124037752D01*
X173537591Y-123085371D02*
X173442353Y-123037752D01*
X173442353Y-123037752D02*
X173251877Y-123037752D01*
X173251877Y-123037752D02*
X173156639Y-123085371D01*
X173156639Y-123085371D02*
X173109020Y-123132990D01*
X173109020Y-123132990D02*
X173061401Y-123228228D01*
X173061401Y-123228228D02*
X173061401Y-123513942D01*
X173061401Y-123513942D02*
X173109020Y-123609180D01*
X173109020Y-123609180D02*
X173156639Y-123656800D01*
X173156639Y-123656800D02*
X173251877Y-123704419D01*
X173251877Y-123704419D02*
X173442353Y-123704419D01*
X173442353Y-123704419D02*
X173537591Y-123656800D01*
X172632829Y-123704419D02*
X172632829Y-122704419D01*
X172204258Y-123704419D02*
X172204258Y-123180609D01*
X172204258Y-123180609D02*
X172251877Y-123085371D01*
X172251877Y-123085371D02*
X172347115Y-123037752D01*
X172347115Y-123037752D02*
X172489972Y-123037752D01*
X172489972Y-123037752D02*
X172585210Y-123085371D01*
X172585210Y-123085371D02*
X172632829Y-123132990D01*
X171585210Y-123704419D02*
X171680448Y-123656800D01*
X171680448Y-123656800D02*
X171728067Y-123609180D01*
X171728067Y-123609180D02*
X171775686Y-123513942D01*
X171775686Y-123513942D02*
X171775686Y-123228228D01*
X171775686Y-123228228D02*
X171728067Y-123132990D01*
X171728067Y-123132990D02*
X171680448Y-123085371D01*
X171680448Y-123085371D02*
X171585210Y-123037752D01*
X171585210Y-123037752D02*
X171442353Y-123037752D01*
X171442353Y-123037752D02*
X171347115Y-123085371D01*
X171347115Y-123085371D02*
X171299496Y-123132990D01*
X171299496Y-123132990D02*
X171251877Y-123228228D01*
X171251877Y-123228228D02*
X171251877Y-123513942D01*
X171251877Y-123513942D02*
X171299496Y-123609180D01*
X171299496Y-123609180D02*
X171347115Y-123656800D01*
X171347115Y-123656800D02*
X171442353Y-123704419D01*
X171442353Y-123704419D02*
X171585210Y-123704419D01*
X170823305Y-123037752D02*
X170823305Y-123704419D01*
X170823305Y-123132990D02*
X170775686Y-123085371D01*
X170775686Y-123085371D02*
X170680448Y-123037752D01*
X170680448Y-123037752D02*
X170537591Y-123037752D01*
X170537591Y-123037752D02*
X170442353Y-123085371D01*
X170442353Y-123085371D02*
X170394734Y-123180609D01*
X170394734Y-123180609D02*
X170394734Y-123704419D01*
X169537591Y-123656800D02*
X169632829Y-123704419D01*
X169632829Y-123704419D02*
X169823305Y-123704419D01*
X169823305Y-123704419D02*
X169918543Y-123656800D01*
X169918543Y-123656800D02*
X169966162Y-123561561D01*
X169966162Y-123561561D02*
X169966162Y-123180609D01*
X169966162Y-123180609D02*
X169918543Y-123085371D01*
X169918543Y-123085371D02*
X169823305Y-123037752D01*
X169823305Y-123037752D02*
X169632829Y-123037752D01*
X169632829Y-123037752D02*
X169537591Y-123085371D01*
X169537591Y-123085371D02*
X169489972Y-123180609D01*
X169489972Y-123180609D02*
X169489972Y-123275847D01*
X169489972Y-123275847D02*
X169966162Y-123371085D01*
X167870924Y-123704419D02*
X167870924Y-123180609D01*
X167870924Y-123180609D02*
X167918543Y-123085371D01*
X167918543Y-123085371D02*
X168013781Y-123037752D01*
X168013781Y-123037752D02*
X168204257Y-123037752D01*
X168204257Y-123037752D02*
X168299495Y-123085371D01*
X167870924Y-123656800D02*
X167966162Y-123704419D01*
X167966162Y-123704419D02*
X168204257Y-123704419D01*
X168204257Y-123704419D02*
X168299495Y-123656800D01*
X168299495Y-123656800D02*
X168347114Y-123561561D01*
X168347114Y-123561561D02*
X168347114Y-123466323D01*
X168347114Y-123466323D02*
X168299495Y-123371085D01*
X168299495Y-123371085D02*
X168204257Y-123323466D01*
X168204257Y-123323466D02*
X167966162Y-123323466D01*
X167966162Y-123323466D02*
X167870924Y-123275847D01*
X167394733Y-123704419D02*
X167394733Y-123037752D01*
X167394733Y-123132990D02*
X167347114Y-123085371D01*
X167347114Y-123085371D02*
X167251876Y-123037752D01*
X167251876Y-123037752D02*
X167109019Y-123037752D01*
X167109019Y-123037752D02*
X167013781Y-123085371D01*
X167013781Y-123085371D02*
X166966162Y-123180609D01*
X166966162Y-123180609D02*
X166966162Y-123704419D01*
X166966162Y-123180609D02*
X166918543Y-123085371D01*
X166918543Y-123085371D02*
X166823305Y-123037752D01*
X166823305Y-123037752D02*
X166680448Y-123037752D01*
X166680448Y-123037752D02*
X166585209Y-123085371D01*
X166585209Y-123085371D02*
X166537590Y-123180609D01*
X166537590Y-123180609D02*
X166537590Y-123704419D01*
X166061400Y-123037752D02*
X166061400Y-124037752D01*
X166061400Y-123085371D02*
X165966162Y-123037752D01*
X165966162Y-123037752D02*
X165775686Y-123037752D01*
X165775686Y-123037752D02*
X165680448Y-123085371D01*
X165680448Y-123085371D02*
X165632829Y-123132990D01*
X165632829Y-123132990D02*
X165585210Y-123228228D01*
X165585210Y-123228228D02*
X165585210Y-123513942D01*
X165585210Y-123513942D02*
X165632829Y-123609180D01*
X165632829Y-123609180D02*
X165680448Y-123656800D01*
X165680448Y-123656800D02*
X165775686Y-123704419D01*
X165775686Y-123704419D02*
X165966162Y-123704419D01*
X165966162Y-123704419D02*
X166061400Y-123656800D01*
X179109020Y-124933466D02*
X178347116Y-124933466D01*
X178728068Y-125314419D02*
X178728068Y-124552514D01*
X177156639Y-125266800D02*
X177061401Y-125314419D01*
X177061401Y-125314419D02*
X176870925Y-125314419D01*
X176870925Y-125314419D02*
X176775687Y-125266800D01*
X176775687Y-125266800D02*
X176728068Y-125171561D01*
X176728068Y-125171561D02*
X176728068Y-125123942D01*
X176728068Y-125123942D02*
X176775687Y-125028704D01*
X176775687Y-125028704D02*
X176870925Y-124981085D01*
X176870925Y-124981085D02*
X177013782Y-124981085D01*
X177013782Y-124981085D02*
X177109020Y-124933466D01*
X177109020Y-124933466D02*
X177156639Y-124838228D01*
X177156639Y-124838228D02*
X177156639Y-124790609D01*
X177156639Y-124790609D02*
X177109020Y-124695371D01*
X177109020Y-124695371D02*
X177013782Y-124647752D01*
X177013782Y-124647752D02*
X176870925Y-124647752D01*
X176870925Y-124647752D02*
X176775687Y-124695371D01*
X176299496Y-124647752D02*
X176299496Y-125647752D01*
X176299496Y-124695371D02*
X176204258Y-124647752D01*
X176204258Y-124647752D02*
X176013782Y-124647752D01*
X176013782Y-124647752D02*
X175918544Y-124695371D01*
X175918544Y-124695371D02*
X175870925Y-124742990D01*
X175870925Y-124742990D02*
X175823306Y-124838228D01*
X175823306Y-124838228D02*
X175823306Y-125123942D01*
X175823306Y-125123942D02*
X175870925Y-125219180D01*
X175870925Y-125219180D02*
X175918544Y-125266800D01*
X175918544Y-125266800D02*
X176013782Y-125314419D01*
X176013782Y-125314419D02*
X176204258Y-125314419D01*
X176204258Y-125314419D02*
X176299496Y-125266800D01*
X175013782Y-125266800D02*
X175109020Y-125314419D01*
X175109020Y-125314419D02*
X175299496Y-125314419D01*
X175299496Y-125314419D02*
X175394734Y-125266800D01*
X175394734Y-125266800D02*
X175442353Y-125171561D01*
X175442353Y-125171561D02*
X175442353Y-124790609D01*
X175442353Y-124790609D02*
X175394734Y-124695371D01*
X175394734Y-124695371D02*
X175299496Y-124647752D01*
X175299496Y-124647752D02*
X175109020Y-124647752D01*
X175109020Y-124647752D02*
X175013782Y-124695371D01*
X175013782Y-124695371D02*
X174966163Y-124790609D01*
X174966163Y-124790609D02*
X174966163Y-124885847D01*
X174966163Y-124885847D02*
X175442353Y-124981085D01*
X174109020Y-125314419D02*
X174109020Y-124790609D01*
X174109020Y-124790609D02*
X174156639Y-124695371D01*
X174156639Y-124695371D02*
X174251877Y-124647752D01*
X174251877Y-124647752D02*
X174442353Y-124647752D01*
X174442353Y-124647752D02*
X174537591Y-124695371D01*
X174109020Y-125266800D02*
X174204258Y-125314419D01*
X174204258Y-125314419D02*
X174442353Y-125314419D01*
X174442353Y-125314419D02*
X174537591Y-125266800D01*
X174537591Y-125266800D02*
X174585210Y-125171561D01*
X174585210Y-125171561D02*
X174585210Y-125076323D01*
X174585210Y-125076323D02*
X174537591Y-124981085D01*
X174537591Y-124981085D02*
X174442353Y-124933466D01*
X174442353Y-124933466D02*
X174204258Y-124933466D01*
X174204258Y-124933466D02*
X174109020Y-124885847D01*
X173632829Y-125314419D02*
X173632829Y-124314419D01*
X173537591Y-124933466D02*
X173251877Y-125314419D01*
X173251877Y-124647752D02*
X173632829Y-125028704D01*
X172442353Y-125266800D02*
X172537591Y-125314419D01*
X172537591Y-125314419D02*
X172728067Y-125314419D01*
X172728067Y-125314419D02*
X172823305Y-125266800D01*
X172823305Y-125266800D02*
X172870924Y-125171561D01*
X172870924Y-125171561D02*
X172870924Y-124790609D01*
X172870924Y-124790609D02*
X172823305Y-124695371D01*
X172823305Y-124695371D02*
X172728067Y-124647752D01*
X172728067Y-124647752D02*
X172537591Y-124647752D01*
X172537591Y-124647752D02*
X172442353Y-124695371D01*
X172442353Y-124695371D02*
X172394734Y-124790609D01*
X172394734Y-124790609D02*
X172394734Y-124885847D01*
X172394734Y-124885847D02*
X172870924Y-124981085D01*
X171966162Y-125314419D02*
X171966162Y-124647752D01*
X171966162Y-124838228D02*
X171918543Y-124742990D01*
X171918543Y-124742990D02*
X171870924Y-124695371D01*
X171870924Y-124695371D02*
X171775686Y-124647752D01*
X171775686Y-124647752D02*
X171680448Y-124647752D01*
X179251877Y-126257752D02*
X178870925Y-126257752D01*
X179109020Y-125924419D02*
X179109020Y-126781561D01*
X179109020Y-126781561D02*
X179061401Y-126876800D01*
X179061401Y-126876800D02*
X178966163Y-126924419D01*
X178966163Y-126924419D02*
X178870925Y-126924419D01*
X178156639Y-126876800D02*
X178251877Y-126924419D01*
X178251877Y-126924419D02*
X178442353Y-126924419D01*
X178442353Y-126924419D02*
X178537591Y-126876800D01*
X178537591Y-126876800D02*
X178585210Y-126781561D01*
X178585210Y-126781561D02*
X178585210Y-126400609D01*
X178585210Y-126400609D02*
X178537591Y-126305371D01*
X178537591Y-126305371D02*
X178442353Y-126257752D01*
X178442353Y-126257752D02*
X178251877Y-126257752D01*
X178251877Y-126257752D02*
X178156639Y-126305371D01*
X178156639Y-126305371D02*
X178109020Y-126400609D01*
X178109020Y-126400609D02*
X178109020Y-126495847D01*
X178109020Y-126495847D02*
X178585210Y-126591085D01*
X177728067Y-126876800D02*
X177632829Y-126924419D01*
X177632829Y-126924419D02*
X177442353Y-126924419D01*
X177442353Y-126924419D02*
X177347115Y-126876800D01*
X177347115Y-126876800D02*
X177299496Y-126781561D01*
X177299496Y-126781561D02*
X177299496Y-126733942D01*
X177299496Y-126733942D02*
X177347115Y-126638704D01*
X177347115Y-126638704D02*
X177442353Y-126591085D01*
X177442353Y-126591085D02*
X177585210Y-126591085D01*
X177585210Y-126591085D02*
X177680448Y-126543466D01*
X177680448Y-126543466D02*
X177728067Y-126448228D01*
X177728067Y-126448228D02*
X177728067Y-126400609D01*
X177728067Y-126400609D02*
X177680448Y-126305371D01*
X177680448Y-126305371D02*
X177585210Y-126257752D01*
X177585210Y-126257752D02*
X177442353Y-126257752D01*
X177442353Y-126257752D02*
X177347115Y-126305371D01*
X177013781Y-126257752D02*
X176632829Y-126257752D01*
X176870924Y-125924419D02*
X176870924Y-126781561D01*
X176870924Y-126781561D02*
X176823305Y-126876800D01*
X176823305Y-126876800D02*
X176728067Y-126924419D01*
X176728067Y-126924419D02*
X176632829Y-126924419D01*
X175537590Y-126924419D02*
X175537590Y-125924419D01*
X175537590Y-126305371D02*
X175442352Y-126257752D01*
X175442352Y-126257752D02*
X175251876Y-126257752D01*
X175251876Y-126257752D02*
X175156638Y-126305371D01*
X175156638Y-126305371D02*
X175109019Y-126352990D01*
X175109019Y-126352990D02*
X175061400Y-126448228D01*
X175061400Y-126448228D02*
X175061400Y-126733942D01*
X175061400Y-126733942D02*
X175109019Y-126829180D01*
X175109019Y-126829180D02*
X175156638Y-126876800D01*
X175156638Y-126876800D02*
X175251876Y-126924419D01*
X175251876Y-126924419D02*
X175442352Y-126924419D01*
X175442352Y-126924419D02*
X175537590Y-126876800D01*
X174489971Y-126924419D02*
X174585209Y-126876800D01*
X174585209Y-126876800D02*
X174632828Y-126829180D01*
X174632828Y-126829180D02*
X174680447Y-126733942D01*
X174680447Y-126733942D02*
X174680447Y-126448228D01*
X174680447Y-126448228D02*
X174632828Y-126352990D01*
X174632828Y-126352990D02*
X174585209Y-126305371D01*
X174585209Y-126305371D02*
X174489971Y-126257752D01*
X174489971Y-126257752D02*
X174347114Y-126257752D01*
X174347114Y-126257752D02*
X174251876Y-126305371D01*
X174251876Y-126305371D02*
X174204257Y-126352990D01*
X174204257Y-126352990D02*
X174156638Y-126448228D01*
X174156638Y-126448228D02*
X174156638Y-126733942D01*
X174156638Y-126733942D02*
X174204257Y-126829180D01*
X174204257Y-126829180D02*
X174251876Y-126876800D01*
X174251876Y-126876800D02*
X174347114Y-126924419D01*
X174347114Y-126924419D02*
X174489971Y-126924419D01*
X173299495Y-126924419D02*
X173299495Y-126400609D01*
X173299495Y-126400609D02*
X173347114Y-126305371D01*
X173347114Y-126305371D02*
X173442352Y-126257752D01*
X173442352Y-126257752D02*
X173632828Y-126257752D01*
X173632828Y-126257752D02*
X173728066Y-126305371D01*
X173299495Y-126876800D02*
X173394733Y-126924419D01*
X173394733Y-126924419D02*
X173632828Y-126924419D01*
X173632828Y-126924419D02*
X173728066Y-126876800D01*
X173728066Y-126876800D02*
X173775685Y-126781561D01*
X173775685Y-126781561D02*
X173775685Y-126686323D01*
X173775685Y-126686323D02*
X173728066Y-126591085D01*
X173728066Y-126591085D02*
X173632828Y-126543466D01*
X173632828Y-126543466D02*
X173394733Y-126543466D01*
X173394733Y-126543466D02*
X173299495Y-126495847D01*
X172823304Y-126924419D02*
X172823304Y-126257752D01*
X172823304Y-126448228D02*
X172775685Y-126352990D01*
X172775685Y-126352990D02*
X172728066Y-126305371D01*
X172728066Y-126305371D02*
X172632828Y-126257752D01*
X172632828Y-126257752D02*
X172537590Y-126257752D01*
X171775685Y-126924419D02*
X171775685Y-125924419D01*
X171775685Y-126876800D02*
X171870923Y-126924419D01*
X171870923Y-126924419D02*
X172061399Y-126924419D01*
X172061399Y-126924419D02*
X172156637Y-126876800D01*
X172156637Y-126876800D02*
X172204256Y-126829180D01*
X172204256Y-126829180D02*
X172251875Y-126733942D01*
X172251875Y-126733942D02*
X172251875Y-126448228D01*
X172251875Y-126448228D02*
X172204256Y-126352990D01*
X172204256Y-126352990D02*
X172156637Y-126305371D01*
X172156637Y-126305371D02*
X172061399Y-126257752D01*
X172061399Y-126257752D02*
X171870923Y-126257752D01*
X171870923Y-126257752D02*
X171775685Y-126305371D01*
X178537592Y-130144419D02*
X178870925Y-129668228D01*
X179109020Y-130144419D02*
X179109020Y-129144419D01*
X179109020Y-129144419D02*
X178728068Y-129144419D01*
X178728068Y-129144419D02*
X178632830Y-129192038D01*
X178632830Y-129192038D02*
X178585211Y-129239657D01*
X178585211Y-129239657D02*
X178537592Y-129334895D01*
X178537592Y-129334895D02*
X178537592Y-129477752D01*
X178537592Y-129477752D02*
X178585211Y-129572990D01*
X178585211Y-129572990D02*
X178632830Y-129620609D01*
X178632830Y-129620609D02*
X178728068Y-129668228D01*
X178728068Y-129668228D02*
X179109020Y-129668228D01*
X177585211Y-130144419D02*
X178156639Y-130144419D01*
X177870925Y-130144419D02*
X177870925Y-129144419D01*
X177870925Y-129144419D02*
X177966163Y-129287276D01*
X177966163Y-129287276D02*
X178061401Y-129382514D01*
X178061401Y-129382514D02*
X178156639Y-129430133D01*
X178680449Y-133364419D02*
X178680449Y-132364419D01*
X178680449Y-133316800D02*
X178775687Y-133364419D01*
X178775687Y-133364419D02*
X178966163Y-133364419D01*
X178966163Y-133364419D02*
X179061401Y-133316800D01*
X179061401Y-133316800D02*
X179109020Y-133269180D01*
X179109020Y-133269180D02*
X179156639Y-133173942D01*
X179156639Y-133173942D02*
X179156639Y-132888228D01*
X179156639Y-132888228D02*
X179109020Y-132792990D01*
X179109020Y-132792990D02*
X179061401Y-132745371D01*
X179061401Y-132745371D02*
X178966163Y-132697752D01*
X178966163Y-132697752D02*
X178775687Y-132697752D01*
X178775687Y-132697752D02*
X178680449Y-132745371D01*
X177823306Y-133316800D02*
X177918544Y-133364419D01*
X177918544Y-133364419D02*
X178109020Y-133364419D01*
X178109020Y-133364419D02*
X178204258Y-133316800D01*
X178204258Y-133316800D02*
X178251877Y-133221561D01*
X178251877Y-133221561D02*
X178251877Y-132840609D01*
X178251877Y-132840609D02*
X178204258Y-132745371D01*
X178204258Y-132745371D02*
X178109020Y-132697752D01*
X178109020Y-132697752D02*
X177918544Y-132697752D01*
X177918544Y-132697752D02*
X177823306Y-132745371D01*
X177823306Y-132745371D02*
X177775687Y-132840609D01*
X177775687Y-132840609D02*
X177775687Y-132935847D01*
X177775687Y-132935847D02*
X178251877Y-133031085D01*
X177394734Y-133316800D02*
X177299496Y-133364419D01*
X177299496Y-133364419D02*
X177109020Y-133364419D01*
X177109020Y-133364419D02*
X177013782Y-133316800D01*
X177013782Y-133316800D02*
X176966163Y-133221561D01*
X176966163Y-133221561D02*
X176966163Y-133173942D01*
X176966163Y-133173942D02*
X177013782Y-133078704D01*
X177013782Y-133078704D02*
X177109020Y-133031085D01*
X177109020Y-133031085D02*
X177251877Y-133031085D01*
X177251877Y-133031085D02*
X177347115Y-132983466D01*
X177347115Y-132983466D02*
X177394734Y-132888228D01*
X177394734Y-132888228D02*
X177394734Y-132840609D01*
X177394734Y-132840609D02*
X177347115Y-132745371D01*
X177347115Y-132745371D02*
X177251877Y-132697752D01*
X177251877Y-132697752D02*
X177109020Y-132697752D01*
X177109020Y-132697752D02*
X177013782Y-132745371D01*
X176537591Y-133364419D02*
X176537591Y-132697752D01*
X176537591Y-132364419D02*
X176585210Y-132412038D01*
X176585210Y-132412038D02*
X176537591Y-132459657D01*
X176537591Y-132459657D02*
X176489972Y-132412038D01*
X176489972Y-132412038D02*
X176537591Y-132364419D01*
X176537591Y-132364419D02*
X176537591Y-132459657D01*
X175632830Y-132697752D02*
X175632830Y-133507276D01*
X175632830Y-133507276D02*
X175680449Y-133602514D01*
X175680449Y-133602514D02*
X175728068Y-133650133D01*
X175728068Y-133650133D02*
X175823306Y-133697752D01*
X175823306Y-133697752D02*
X175966163Y-133697752D01*
X175966163Y-133697752D02*
X176061401Y-133650133D01*
X175632830Y-133316800D02*
X175728068Y-133364419D01*
X175728068Y-133364419D02*
X175918544Y-133364419D01*
X175918544Y-133364419D02*
X176013782Y-133316800D01*
X176013782Y-133316800D02*
X176061401Y-133269180D01*
X176061401Y-133269180D02*
X176109020Y-133173942D01*
X176109020Y-133173942D02*
X176109020Y-132888228D01*
X176109020Y-132888228D02*
X176061401Y-132792990D01*
X176061401Y-132792990D02*
X176013782Y-132745371D01*
X176013782Y-132745371D02*
X175918544Y-132697752D01*
X175918544Y-132697752D02*
X175728068Y-132697752D01*
X175728068Y-132697752D02*
X175632830Y-132745371D01*
X175156639Y-132697752D02*
X175156639Y-133364419D01*
X175156639Y-132792990D02*
X175109020Y-132745371D01*
X175109020Y-132745371D02*
X175013782Y-132697752D01*
X175013782Y-132697752D02*
X174870925Y-132697752D01*
X174870925Y-132697752D02*
X174775687Y-132745371D01*
X174775687Y-132745371D02*
X174728068Y-132840609D01*
X174728068Y-132840609D02*
X174728068Y-133364419D01*
X173537591Y-132459657D02*
X173489972Y-132412038D01*
X173489972Y-132412038D02*
X173394734Y-132364419D01*
X173394734Y-132364419D02*
X173156639Y-132364419D01*
X173156639Y-132364419D02*
X173061401Y-132412038D01*
X173061401Y-132412038D02*
X173013782Y-132459657D01*
X173013782Y-132459657D02*
X172966163Y-132554895D01*
X172966163Y-132554895D02*
X172966163Y-132650133D01*
X172966163Y-132650133D02*
X173013782Y-132792990D01*
X173013782Y-132792990D02*
X173585210Y-133364419D01*
X173585210Y-133364419D02*
X172966163Y-133364419D01*
X172347115Y-132364419D02*
X172251877Y-132364419D01*
X172251877Y-132364419D02*
X172156639Y-132412038D01*
X172156639Y-132412038D02*
X172109020Y-132459657D01*
X172109020Y-132459657D02*
X172061401Y-132554895D01*
X172061401Y-132554895D02*
X172013782Y-132745371D01*
X172013782Y-132745371D02*
X172013782Y-132983466D01*
X172013782Y-132983466D02*
X172061401Y-133173942D01*
X172061401Y-133173942D02*
X172109020Y-133269180D01*
X172109020Y-133269180D02*
X172156639Y-133316800D01*
X172156639Y-133316800D02*
X172251877Y-133364419D01*
X172251877Y-133364419D02*
X172347115Y-133364419D01*
X172347115Y-133364419D02*
X172442353Y-133316800D01*
X172442353Y-133316800D02*
X172489972Y-133269180D01*
X172489972Y-133269180D02*
X172537591Y-133173942D01*
X172537591Y-133173942D02*
X172585210Y-132983466D01*
X172585210Y-132983466D02*
X172585210Y-132745371D01*
X172585210Y-132745371D02*
X172537591Y-132554895D01*
X172537591Y-132554895D02*
X172489972Y-132459657D01*
X172489972Y-132459657D02*
X172442353Y-132412038D01*
X172442353Y-132412038D02*
X172347115Y-132364419D01*
X171632829Y-132459657D02*
X171585210Y-132412038D01*
X171585210Y-132412038D02*
X171489972Y-132364419D01*
X171489972Y-132364419D02*
X171251877Y-132364419D01*
X171251877Y-132364419D02*
X171156639Y-132412038D01*
X171156639Y-132412038D02*
X171109020Y-132459657D01*
X171109020Y-132459657D02*
X171061401Y-132554895D01*
X171061401Y-132554895D02*
X171061401Y-132650133D01*
X171061401Y-132650133D02*
X171109020Y-132792990D01*
X171109020Y-132792990D02*
X171680448Y-133364419D01*
X171680448Y-133364419D02*
X171061401Y-133364419D01*
X170156639Y-132364419D02*
X170632829Y-132364419D01*
X170632829Y-132364419D02*
X170680448Y-132840609D01*
X170680448Y-132840609D02*
X170632829Y-132792990D01*
X170632829Y-132792990D02*
X170537591Y-132745371D01*
X170537591Y-132745371D02*
X170299496Y-132745371D01*
X170299496Y-132745371D02*
X170204258Y-132792990D01*
X170204258Y-132792990D02*
X170156639Y-132840609D01*
X170156639Y-132840609D02*
X170109020Y-132935847D01*
X170109020Y-132935847D02*
X170109020Y-133173942D01*
X170109020Y-133173942D02*
X170156639Y-133269180D01*
X170156639Y-133269180D02*
X170204258Y-133316800D01*
X170204258Y-133316800D02*
X170299496Y-133364419D01*
X170299496Y-133364419D02*
X170537591Y-133364419D01*
X170537591Y-133364419D02*
X170632829Y-133316800D01*
X170632829Y-133316800D02*
X170680448Y-133269180D01*
X168299496Y-132888228D02*
X168347115Y-132840609D01*
X168347115Y-132840609D02*
X168442353Y-132792990D01*
X168442353Y-132792990D02*
X168537591Y-132792990D01*
X168537591Y-132792990D02*
X168632829Y-132840609D01*
X168632829Y-132840609D02*
X168680448Y-132888228D01*
X168680448Y-132888228D02*
X168728067Y-132983466D01*
X168728067Y-132983466D02*
X168728067Y-133078704D01*
X168728067Y-133078704D02*
X168680448Y-133173942D01*
X168680448Y-133173942D02*
X168632829Y-133221561D01*
X168632829Y-133221561D02*
X168537591Y-133269180D01*
X168537591Y-133269180D02*
X168442353Y-133269180D01*
X168442353Y-133269180D02*
X168347115Y-133221561D01*
X168347115Y-133221561D02*
X168299496Y-133173942D01*
X168299496Y-132792990D02*
X168299496Y-133173942D01*
X168299496Y-133173942D02*
X168251877Y-133221561D01*
X168251877Y-133221561D02*
X168204258Y-133221561D01*
X168204258Y-133221561D02*
X168109019Y-133173942D01*
X168109019Y-133173942D02*
X168061400Y-133078704D01*
X168061400Y-133078704D02*
X168061400Y-132840609D01*
X168061400Y-132840609D02*
X168156639Y-132697752D01*
X168156639Y-132697752D02*
X168299496Y-132602514D01*
X168299496Y-132602514D02*
X168489972Y-132554895D01*
X168489972Y-132554895D02*
X168680448Y-132602514D01*
X168680448Y-132602514D02*
X168823305Y-132697752D01*
X168823305Y-132697752D02*
X168918543Y-132840609D01*
X168918543Y-132840609D02*
X168966162Y-133031085D01*
X168966162Y-133031085D02*
X168918543Y-133221561D01*
X168918543Y-133221561D02*
X168823305Y-133364419D01*
X168823305Y-133364419D02*
X168680448Y-133459657D01*
X168680448Y-133459657D02*
X168489972Y-133507276D01*
X168489972Y-133507276D02*
X168299496Y-133459657D01*
X168299496Y-133459657D02*
X168156639Y-133364419D01*
X167632829Y-133364419D02*
X167632829Y-132364419D01*
X167537591Y-132983466D02*
X167251877Y-133364419D01*
X167251877Y-132697752D02*
X167632829Y-133078704D01*
X166394734Y-133364419D02*
X166394734Y-132840609D01*
X166394734Y-132840609D02*
X166442353Y-132745371D01*
X166442353Y-132745371D02*
X166537591Y-132697752D01*
X166537591Y-132697752D02*
X166728067Y-132697752D01*
X166728067Y-132697752D02*
X166823305Y-132745371D01*
X166394734Y-133316800D02*
X166489972Y-133364419D01*
X166489972Y-133364419D02*
X166728067Y-133364419D01*
X166728067Y-133364419D02*
X166823305Y-133316800D01*
X166823305Y-133316800D02*
X166870924Y-133221561D01*
X166870924Y-133221561D02*
X166870924Y-133126323D01*
X166870924Y-133126323D02*
X166823305Y-133031085D01*
X166823305Y-133031085D02*
X166728067Y-132983466D01*
X166728067Y-132983466D02*
X166489972Y-132983466D01*
X166489972Y-132983466D02*
X166394734Y-132935847D01*
X165918543Y-133364419D02*
X165918543Y-132697752D01*
X165918543Y-132364419D02*
X165966162Y-132412038D01*
X165966162Y-132412038D02*
X165918543Y-132459657D01*
X165918543Y-132459657D02*
X165870924Y-132412038D01*
X165870924Y-132412038D02*
X165918543Y-132364419D01*
X165918543Y-132364419D02*
X165918543Y-132459657D01*
X165442353Y-132697752D02*
X165442353Y-133364419D01*
X165442353Y-132792990D02*
X165394734Y-132745371D01*
X165394734Y-132745371D02*
X165299496Y-132697752D01*
X165299496Y-132697752D02*
X165156639Y-132697752D01*
X165156639Y-132697752D02*
X165061401Y-132745371D01*
X165061401Y-132745371D02*
X165013782Y-132840609D01*
X165013782Y-132840609D02*
X165013782Y-133364419D01*
X164156639Y-133316800D02*
X164251877Y-133364419D01*
X164251877Y-133364419D02*
X164442353Y-133364419D01*
X164442353Y-133364419D02*
X164537591Y-133316800D01*
X164537591Y-133316800D02*
X164585210Y-133221561D01*
X164585210Y-133221561D02*
X164585210Y-132840609D01*
X164585210Y-132840609D02*
X164537591Y-132745371D01*
X164537591Y-132745371D02*
X164442353Y-132697752D01*
X164442353Y-132697752D02*
X164251877Y-132697752D01*
X164251877Y-132697752D02*
X164156639Y-132745371D01*
X164156639Y-132745371D02*
X164109020Y-132840609D01*
X164109020Y-132840609D02*
X164109020Y-132935847D01*
X164109020Y-132935847D02*
X164585210Y-133031085D01*
X163156639Y-133364419D02*
X163728067Y-133364419D01*
X163442353Y-133364419D02*
X163442353Y-132364419D01*
X163442353Y-132364419D02*
X163537591Y-132507276D01*
X163537591Y-132507276D02*
X163632829Y-132602514D01*
X163632829Y-132602514D02*
X163728067Y-132650133D01*
X162204258Y-133364419D02*
X162775686Y-133364419D01*
X162489972Y-133364419D02*
X162489972Y-132364419D01*
X162489972Y-132364419D02*
X162585210Y-132507276D01*
X162585210Y-132507276D02*
X162680448Y-132602514D01*
X162680448Y-132602514D02*
X162775686Y-132650133D01*
X161728067Y-133364419D02*
X161537591Y-133364419D01*
X161537591Y-133364419D02*
X161442353Y-133316800D01*
X161442353Y-133316800D02*
X161394734Y-133269180D01*
X161394734Y-133269180D02*
X161299496Y-133126323D01*
X161299496Y-133126323D02*
X161251877Y-132935847D01*
X161251877Y-132935847D02*
X161251877Y-132554895D01*
X161251877Y-132554895D02*
X161299496Y-132459657D01*
X161299496Y-132459657D02*
X161347115Y-132412038D01*
X161347115Y-132412038D02*
X161442353Y-132364419D01*
X161442353Y-132364419D02*
X161632829Y-132364419D01*
X161632829Y-132364419D02*
X161728067Y-132412038D01*
X161728067Y-132412038D02*
X161775686Y-132459657D01*
X161775686Y-132459657D02*
X161823305Y-132554895D01*
X161823305Y-132554895D02*
X161823305Y-132792990D01*
X161823305Y-132792990D02*
X161775686Y-132888228D01*
X161775686Y-132888228D02*
X161728067Y-132935847D01*
X161728067Y-132935847D02*
X161632829Y-132983466D01*
X161632829Y-132983466D02*
X161442353Y-132983466D01*
X161442353Y-132983466D02*
X161347115Y-132935847D01*
X161347115Y-132935847D02*
X161299496Y-132888228D01*
X161299496Y-132888228D02*
X161251877Y-132792990D01*
%TO.C,JP1*%
X170291619Y-112750266D02*
X171005904Y-112750266D01*
X171005904Y-112750266D02*
X171148761Y-112702647D01*
X171148761Y-112702647D02*
X171244000Y-112607409D01*
X171244000Y-112607409D02*
X171291619Y-112464552D01*
X171291619Y-112464552D02*
X171291619Y-112369314D01*
X171291619Y-113226457D02*
X170291619Y-113226457D01*
X170291619Y-113226457D02*
X170291619Y-113607409D01*
X170291619Y-113607409D02*
X170339238Y-113702647D01*
X170339238Y-113702647D02*
X170386857Y-113750266D01*
X170386857Y-113750266D02*
X170482095Y-113797885D01*
X170482095Y-113797885D02*
X170624952Y-113797885D01*
X170624952Y-113797885D02*
X170720190Y-113750266D01*
X170720190Y-113750266D02*
X170767809Y-113702647D01*
X170767809Y-113702647D02*
X170815428Y-113607409D01*
X170815428Y-113607409D02*
X170815428Y-113226457D01*
X171291619Y-114750266D02*
X171291619Y-114178838D01*
X171291619Y-114464552D02*
X170291619Y-114464552D01*
X170291619Y-114464552D02*
X170434476Y-114369314D01*
X170434476Y-114369314D02*
X170529714Y-114274076D01*
X170529714Y-114274076D02*
X170577333Y-114178838D01*
X168491619Y-116135981D02*
X168491619Y-116231219D01*
X168491619Y-116231219D02*
X168539238Y-116326457D01*
X168539238Y-116326457D02*
X168586857Y-116374076D01*
X168586857Y-116374076D02*
X168682095Y-116421695D01*
X168682095Y-116421695D02*
X168872571Y-116469314D01*
X168872571Y-116469314D02*
X169110666Y-116469314D01*
X169110666Y-116469314D02*
X169301142Y-116421695D01*
X169301142Y-116421695D02*
X169396380Y-116374076D01*
X169396380Y-116374076D02*
X169444000Y-116326457D01*
X169444000Y-116326457D02*
X169491619Y-116231219D01*
X169491619Y-116231219D02*
X169491619Y-116135981D01*
X169491619Y-116135981D02*
X169444000Y-116040743D01*
X169444000Y-116040743D02*
X169396380Y-115993124D01*
X169396380Y-115993124D02*
X169301142Y-115945505D01*
X169301142Y-115945505D02*
X169110666Y-115897886D01*
X169110666Y-115897886D02*
X168872571Y-115897886D01*
X168872571Y-115897886D02*
X168682095Y-115945505D01*
X168682095Y-115945505D02*
X168586857Y-115993124D01*
X168586857Y-115993124D02*
X168539238Y-116040743D01*
X168539238Y-116040743D02*
X168491619Y-116135981D01*
X169491619Y-111269314D02*
X169491619Y-110697886D01*
X169491619Y-110983600D02*
X168491619Y-110983600D01*
X168491619Y-110983600D02*
X168634476Y-110888362D01*
X168634476Y-110888362D02*
X168729714Y-110793124D01*
X168729714Y-110793124D02*
X168777333Y-110697886D01*
%TO.C,J3*%
X182090133Y-109748419D02*
X182090133Y-110462704D01*
X182090133Y-110462704D02*
X182137752Y-110605561D01*
X182137752Y-110605561D02*
X182232990Y-110700800D01*
X182232990Y-110700800D02*
X182375847Y-110748419D01*
X182375847Y-110748419D02*
X182471085Y-110748419D01*
X181709180Y-109748419D02*
X181090133Y-109748419D01*
X181090133Y-109748419D02*
X181423466Y-110129371D01*
X181423466Y-110129371D02*
X181280609Y-110129371D01*
X181280609Y-110129371D02*
X181185371Y-110176990D01*
X181185371Y-110176990D02*
X181137752Y-110224609D01*
X181137752Y-110224609D02*
X181090133Y-110319847D01*
X181090133Y-110319847D02*
X181090133Y-110557942D01*
X181090133Y-110557942D02*
X181137752Y-110653180D01*
X181137752Y-110653180D02*
X181185371Y-110700800D01*
X181185371Y-110700800D02*
X181280609Y-110748419D01*
X181280609Y-110748419D02*
X181566323Y-110748419D01*
X181566323Y-110748419D02*
X181661561Y-110700800D01*
X181661561Y-110700800D02*
X181709180Y-110653180D01*
%TO.C,J1*%
X161770133Y-107208419D02*
X161770133Y-107922704D01*
X161770133Y-107922704D02*
X161817752Y-108065561D01*
X161817752Y-108065561D02*
X161912990Y-108160800D01*
X161912990Y-108160800D02*
X162055847Y-108208419D01*
X162055847Y-108208419D02*
X162151085Y-108208419D01*
X160770133Y-108208419D02*
X161341561Y-108208419D01*
X161055847Y-108208419D02*
X161055847Y-107208419D01*
X161055847Y-107208419D02*
X161151085Y-107351276D01*
X161151085Y-107351276D02*
X161246323Y-107446514D01*
X161246323Y-107446514D02*
X161341561Y-107494133D01*
D11*
%TO.C,JP1*%
X168036800Y-115633600D02*
X170036800Y-115633600D01*
X170036800Y-115633600D02*
X170036800Y-111533600D01*
X168036800Y-111533600D02*
X168036800Y-115633600D01*
X170036800Y-111533600D02*
X168036800Y-111533600D01*
%TO.C,J3*%
X183086800Y-121573600D02*
X180426800Y-121573600D01*
X183086800Y-113893600D02*
X183086800Y-121573600D01*
X183086800Y-113893600D02*
X180426800Y-113893600D01*
X183086800Y-112623600D02*
X183086800Y-111293600D01*
X183086800Y-111293600D02*
X181756800Y-111293600D01*
X180426800Y-113893600D02*
X180426800Y-121573600D01*
%TO.C,G\u002A\u002A\u002A*%
G36*
X183338542Y-105685743D02*
G01*
X183423467Y-105691933D01*
X183490887Y-105701573D01*
X183523841Y-105708328D01*
X183614116Y-105727377D01*
X183680099Y-105742670D01*
X183729924Y-105756376D01*
X183771723Y-105770667D01*
X183813631Y-105787715D01*
X183895373Y-105822754D01*
X183894834Y-106368894D01*
X183894294Y-106915035D01*
X183859199Y-106844085D01*
X183853689Y-106833056D01*
X183804373Y-106742409D01*
X183754464Y-106663094D01*
X183710727Y-106605960D01*
X183686030Y-106558711D01*
X183678251Y-106485030D01*
X183678743Y-106465884D01*
X183683546Y-106393890D01*
X183692312Y-106303498D01*
X183703652Y-106206894D01*
X183716180Y-106116261D01*
X183728506Y-106043785D01*
X183732552Y-106006680D01*
X183719371Y-105984663D01*
X183680156Y-105966987D01*
X183669741Y-105963322D01*
X183583304Y-105939627D01*
X183477448Y-105921773D01*
X183346887Y-105909053D01*
X183186333Y-105900756D01*
X183167038Y-105900010D01*
X183078301Y-105895028D01*
X183003370Y-105888360D01*
X182949465Y-105880771D01*
X182923809Y-105873023D01*
X182922186Y-105871604D01*
X182904478Y-105834532D01*
X182905975Y-105784858D01*
X182923951Y-105736938D01*
X182955683Y-105705125D01*
X182956955Y-105704512D01*
X182998426Y-105694322D01*
X183066053Y-105687293D01*
X183151103Y-105683481D01*
X183244843Y-105682945D01*
X183338542Y-105685743D01*
G37*
G36*
X183255779Y-100787601D02*
G01*
X183391157Y-100796690D01*
X183507538Y-100815926D01*
X183599656Y-100844228D01*
X183662243Y-100880515D01*
X183666484Y-100883807D01*
X183707255Y-100903145D01*
X183759884Y-100916526D01*
X183779166Y-100919858D01*
X183837885Y-100939490D01*
X183868942Y-100972742D01*
X183878029Y-101024832D01*
X183877288Y-101045854D01*
X183867009Y-101085276D01*
X183839825Y-101109092D01*
X183789653Y-101120914D01*
X183710410Y-101124354D01*
X183636616Y-101127662D01*
X183577541Y-101141467D01*
X183532716Y-101171572D01*
X183493773Y-101223802D01*
X183452344Y-101303982D01*
X183428317Y-101359392D01*
X183405696Y-101437854D01*
X183399132Y-101518422D01*
X183399118Y-101620412D01*
X183647442Y-101620412D01*
X183895766Y-101620412D01*
X183895766Y-101727956D01*
X183895766Y-101835500D01*
X183577082Y-101829946D01*
X183514286Y-101828933D01*
X183403646Y-101826607D01*
X183321996Y-101821460D01*
X183264948Y-101810310D01*
X183228114Y-101789981D01*
X183207104Y-101757292D01*
X183197531Y-101709065D01*
X183195005Y-101642121D01*
X183195138Y-101553282D01*
X183195412Y-101471870D01*
X183197636Y-101405489D01*
X183203928Y-101354785D01*
X183216407Y-101309320D01*
X183237192Y-101258653D01*
X183268403Y-101192347D01*
X183286635Y-101155655D01*
X183321852Y-101091816D01*
X183352957Y-101043813D01*
X183374827Y-101019946D01*
X183380891Y-101014389D01*
X183371324Y-101007872D01*
X183335997Y-101003539D01*
X183271679Y-101001069D01*
X183175138Y-101000141D01*
X183133289Y-100999950D01*
X183039578Y-100997880D01*
X182974684Y-100991981D01*
X182933727Y-100980262D01*
X182911830Y-100960736D01*
X182904112Y-100931414D01*
X182905694Y-100890306D01*
X182911339Y-100860148D01*
X182928908Y-100829504D01*
X182962385Y-100808535D01*
X183016630Y-100795575D01*
X183096502Y-100788957D01*
X183206861Y-100787014D01*
X183255779Y-100787601D01*
G37*
G36*
X183133057Y-99566976D02*
G01*
X183210419Y-99570091D01*
X183266480Y-99575550D01*
X183307235Y-99585883D01*
X183342994Y-99603753D01*
X183384072Y-99631826D01*
X183417513Y-99654531D01*
X183466694Y-99679388D01*
X183523199Y-99694497D01*
X183601103Y-99704574D01*
X183652023Y-99710381D01*
X183720630Y-99724007D01*
X183762594Y-99744503D01*
X183783603Y-99775359D01*
X183789342Y-99820063D01*
X183787555Y-99849168D01*
X183772234Y-99886856D01*
X183735449Y-99909256D01*
X183670275Y-99922315D01*
X183634099Y-99928456D01*
X183547293Y-99956781D01*
X183477962Y-99999125D01*
X183434971Y-100050649D01*
X183432328Y-100056656D01*
X183419121Y-100106254D01*
X183408461Y-100177576D01*
X183402166Y-100259064D01*
X183395589Y-100414267D01*
X183617621Y-100414267D01*
X183622391Y-100414269D01*
X183709317Y-100415182D01*
X183784438Y-100417506D01*
X183839866Y-100420903D01*
X183867710Y-100425033D01*
X183881542Y-100436001D01*
X183892519Y-100469749D01*
X183895766Y-100531458D01*
X183895766Y-100627116D01*
X183586569Y-100627116D01*
X183277372Y-100627116D01*
X183236388Y-100569559D01*
X183223105Y-100549133D01*
X183208379Y-100516078D01*
X183198876Y-100473167D01*
X183192951Y-100411860D01*
X183188956Y-100323619D01*
X183187815Y-100285663D01*
X183187513Y-100201549D01*
X183192362Y-100136174D01*
X183203687Y-100077408D01*
X183222808Y-100013124D01*
X183223896Y-100009839D01*
X183246405Y-99946329D01*
X183267148Y-99895041D01*
X183281760Y-99866808D01*
X183284390Y-99863069D01*
X183286441Y-99838679D01*
X183259113Y-99809161D01*
X183234908Y-99793836D01*
X183198223Y-99782783D01*
X183143599Y-99777238D01*
X183062314Y-99775719D01*
X183057798Y-99775716D01*
X182971606Y-99773257D01*
X182915119Y-99764152D01*
X182882970Y-99745347D01*
X182869793Y-99713789D01*
X182870220Y-99666423D01*
X182870742Y-99661581D01*
X182882685Y-99619585D01*
X182909985Y-99590982D01*
X182957545Y-99573916D01*
X183030268Y-99566532D01*
X183133057Y-99566976D01*
G37*
G36*
X181837202Y-100414926D02*
G01*
X181985334Y-100415609D01*
X182104600Y-100417272D01*
X182198191Y-100420348D01*
X182269301Y-100425270D01*
X182321120Y-100432471D01*
X182356842Y-100442384D01*
X182379658Y-100455442D01*
X182392761Y-100472079D01*
X182399344Y-100492727D01*
X182402598Y-100517820D01*
X182404448Y-100544533D01*
X182401277Y-100577313D01*
X182386455Y-100600076D01*
X182355220Y-100614635D01*
X182302811Y-100622805D01*
X182224464Y-100626401D01*
X182115417Y-100627237D01*
X181864831Y-100627358D01*
X181824921Y-100685981D01*
X181806743Y-100716834D01*
X181793246Y-100756863D01*
X181786715Y-100810555D01*
X181785012Y-100888766D01*
X181785012Y-101032927D01*
X182119350Y-101038436D01*
X182147771Y-101038932D01*
X182268657Y-101041924D01*
X182358739Y-101046038D01*
X182421897Y-101051591D01*
X182462013Y-101058902D01*
X182482967Y-101068289D01*
X182497660Y-101087950D01*
X182510542Y-101135983D01*
X182508607Y-101188122D01*
X182490962Y-101226641D01*
X182488880Y-101228282D01*
X182464080Y-101235712D01*
X182414104Y-101241250D01*
X182336383Y-101245030D01*
X182228350Y-101247189D01*
X182087435Y-101247860D01*
X182059276Y-101247847D01*
X181938063Y-101247454D01*
X181846205Y-101246220D01*
X181778604Y-101243743D01*
X181730161Y-101239623D01*
X181695776Y-101233459D01*
X181670351Y-101224852D01*
X181648786Y-101213399D01*
X181619641Y-101190317D01*
X181597103Y-101156413D01*
X181582333Y-101107824D01*
X181574358Y-101039407D01*
X181572207Y-100946017D01*
X181574907Y-100822509D01*
X181581595Y-100627116D01*
X181250909Y-100627116D01*
X181155293Y-100626934D01*
X181054021Y-100625466D01*
X180980736Y-100621424D01*
X180931139Y-100613528D01*
X180900930Y-100600500D01*
X180885808Y-100581059D01*
X180881474Y-100553925D01*
X180883627Y-100517820D01*
X180883814Y-100515910D01*
X180887197Y-100491142D01*
X180894132Y-100470789D01*
X180907812Y-100454417D01*
X180931428Y-100441593D01*
X180968172Y-100431883D01*
X181021238Y-100424856D01*
X181093817Y-100420077D01*
X181189102Y-100417114D01*
X181310285Y-100415534D01*
X181460557Y-100414904D01*
X181643113Y-100414790D01*
X181657010Y-100414790D01*
X181837202Y-100414926D01*
G37*
G36*
X182819921Y-103838684D02*
G01*
X182877431Y-103854735D01*
X182955920Y-103887705D01*
X183049513Y-103934709D01*
X183152333Y-103992864D01*
X183258504Y-104059289D01*
X183282982Y-104075324D01*
X183353624Y-104120193D01*
X183405408Y-104149153D01*
X183446313Y-104165632D01*
X183484315Y-104173060D01*
X183527391Y-104174863D01*
X183589670Y-104178023D01*
X183657767Y-104194745D01*
X183698472Y-104227502D01*
X183715168Y-104278155D01*
X183716018Y-104313176D01*
X183701276Y-104357037D01*
X183662019Y-104380497D01*
X183593926Y-104387451D01*
X183509279Y-104387451D01*
X183522318Y-104445098D01*
X183536111Y-104486418D01*
X183561557Y-104545965D01*
X183594293Y-104614989D01*
X183630033Y-104685086D01*
X183664490Y-104747855D01*
X183693381Y-104794893D01*
X183712417Y-104817798D01*
X183731563Y-104837778D01*
X183758294Y-104881554D01*
X183780342Y-104931252D01*
X183789736Y-104971077D01*
X183799997Y-105003671D01*
X183824817Y-105043736D01*
X183839095Y-105066424D01*
X183856806Y-105122205D01*
X183857170Y-105177404D01*
X183839007Y-105217563D01*
X183831064Y-105223709D01*
X183787596Y-105236765D01*
X183732794Y-105236141D01*
X183683491Y-105221417D01*
X183679414Y-105218707D01*
X183653315Y-105188976D01*
X183621698Y-105140407D01*
X183591064Y-105084641D01*
X183567916Y-105033318D01*
X183558755Y-104998082D01*
X183554200Y-104982785D01*
X183531271Y-104954320D01*
X183520847Y-104943058D01*
X183494453Y-104902615D01*
X183467973Y-104850158D01*
X183451284Y-104813390D01*
X183416845Y-104741040D01*
X183382071Y-104671250D01*
X183350589Y-104605284D01*
X183324495Y-104529842D01*
X183319441Y-104470708D01*
X183334231Y-104421631D01*
X183341425Y-104407284D01*
X183346324Y-104386593D01*
X183336086Y-104367672D01*
X183305688Y-104343732D01*
X183250104Y-104307986D01*
X183191426Y-104270747D01*
X183125122Y-104227981D01*
X183073530Y-104193988D01*
X183062008Y-104186520D01*
X183006672Y-104153942D01*
X182935405Y-104115167D01*
X182860680Y-104077046D01*
X182800619Y-104046960D01*
X182754028Y-104020448D01*
X182727752Y-103998361D01*
X182715355Y-103975033D01*
X182710397Y-103944798D01*
X182716550Y-103888992D01*
X182749195Y-103850849D01*
X182806651Y-103837591D01*
X182819921Y-103838684D01*
G37*
G36*
X175888035Y-101450470D02*
G01*
X175914446Y-101481129D01*
X175948511Y-101527793D01*
X175984177Y-101582036D01*
X176015387Y-101635432D01*
X176017128Y-101638550D01*
X176041274Y-101675366D01*
X176079414Y-101728019D01*
X176124110Y-101786200D01*
X176129365Y-101792871D01*
X176174266Y-101852197D01*
X176212094Y-101905909D01*
X176235131Y-101943105D01*
X176235225Y-101943287D01*
X176260045Y-101980275D01*
X176301175Y-102031167D01*
X176349763Y-102085005D01*
X176353038Y-102088444D01*
X176398496Y-102138767D01*
X176433573Y-102182116D01*
X176450912Y-102209442D01*
X176470352Y-102233640D01*
X176511383Y-102268798D01*
X176564933Y-102306998D01*
X176566290Y-102307887D01*
X176618294Y-102343231D01*
X176656842Y-102371826D01*
X176673676Y-102387556D01*
X176675099Y-102390046D01*
X176697463Y-102400859D01*
X176709860Y-102405614D01*
X176744117Y-102428141D01*
X176787864Y-102462940D01*
X176816979Y-102486371D01*
X176857958Y-102514178D01*
X176883806Y-102525021D01*
X176896329Y-102529752D01*
X176908119Y-102556061D01*
X176908292Y-102557962D01*
X176920824Y-102589161D01*
X176949153Y-102637561D01*
X176987701Y-102693527D01*
X177009531Y-102723623D01*
X177079695Y-102832546D01*
X177123101Y-102924881D01*
X177141383Y-103003932D01*
X177141906Y-103011408D01*
X177140184Y-103052399D01*
X177131320Y-103072609D01*
X177111584Y-103067257D01*
X177093015Y-103038843D01*
X177084865Y-102998908D01*
X177084609Y-102995110D01*
X177074104Y-102957937D01*
X177052458Y-102906153D01*
X177025527Y-102851731D01*
X176999164Y-102806644D01*
X176979225Y-102782867D01*
X176979153Y-102782821D01*
X176962457Y-102762455D01*
X176935520Y-102719726D01*
X176904138Y-102663825D01*
X176873667Y-102611421D01*
X176832571Y-102560136D01*
X176789765Y-102531844D01*
X176740673Y-102503392D01*
X176700443Y-102466961D01*
X176684967Y-102451134D01*
X176638601Y-102416504D01*
X176582772Y-102384755D01*
X176551239Y-102366876D01*
X176486592Y-102318292D01*
X176432004Y-102263616D01*
X176406857Y-102233979D01*
X176351358Y-102172909D01*
X176300339Y-102121387D01*
X176280110Y-102100629D01*
X176240258Y-102049464D01*
X176216126Y-102003932D01*
X176205082Y-101979962D01*
X176170880Y-101929311D01*
X176126812Y-101879742D01*
X176098543Y-101850318D01*
X176067777Y-101811668D01*
X176055822Y-101786621D01*
X176054227Y-101776509D01*
X176038323Y-101762311D01*
X176036067Y-101761902D01*
X176017123Y-101743020D01*
X175996427Y-101704665D01*
X175996403Y-101704607D01*
X175968037Y-101653996D01*
X175934108Y-101613229D01*
X175908247Y-101585315D01*
X175896185Y-101561413D01*
X175890110Y-101543580D01*
X175867842Y-101512067D01*
X175852400Y-101484984D01*
X175854202Y-101455711D01*
X175877138Y-101443038D01*
X175888035Y-101450470D01*
G37*
G36*
X180935731Y-101346197D02*
G01*
X181017300Y-101357499D01*
X181124165Y-101376100D01*
X181260981Y-101402245D01*
X181266687Y-101403338D01*
X181318016Y-101411298D01*
X181380866Y-101417704D01*
X181459229Y-101422717D01*
X181557095Y-101426495D01*
X181678456Y-101429197D01*
X181827304Y-101430983D01*
X182007630Y-101432012D01*
X182172108Y-101432825D01*
X182309288Y-101434105D01*
X182417603Y-101435977D01*
X182500403Y-101438586D01*
X182561035Y-101442075D01*
X182602850Y-101446588D01*
X182629194Y-101452267D01*
X182643417Y-101459257D01*
X182644725Y-101460390D01*
X182663926Y-101496363D01*
X182668496Y-101545600D01*
X182659102Y-101592629D01*
X182636409Y-101621979D01*
X182617697Y-101629481D01*
X182569597Y-101645755D01*
X182502121Y-101667012D01*
X182423560Y-101690581D01*
X182358675Y-101710200D01*
X182214916Y-101757894D01*
X182079174Y-101808465D01*
X181956730Y-101859627D01*
X181852867Y-101909099D01*
X181772869Y-101954595D01*
X181722019Y-101993832D01*
X181710665Y-102005627D01*
X181677756Y-102045434D01*
X181665669Y-102077605D01*
X181669094Y-102114215D01*
X181673939Y-102130711D01*
X181699285Y-102168273D01*
X181745043Y-102194932D01*
X181814815Y-102211709D01*
X181912200Y-102219626D01*
X182040798Y-102219705D01*
X182252240Y-102214616D01*
X182280652Y-102163288D01*
X182317745Y-102116732D01*
X182368749Y-102094271D01*
X182425430Y-102105692D01*
X182445453Y-102118636D01*
X182464928Y-102149898D01*
X182473484Y-102204322D01*
X182474733Y-102241968D01*
X182467739Y-102278238D01*
X182445823Y-102313089D01*
X182403276Y-102359110D01*
X182327486Y-102436334D01*
X182041345Y-102436334D01*
X181942886Y-102436194D01*
X181861989Y-102435122D01*
X181803050Y-102432134D01*
X181758985Y-102426247D01*
X181722712Y-102416479D01*
X181687146Y-102401847D01*
X181645205Y-102381367D01*
X181629820Y-102373562D01*
X181559339Y-102331689D01*
X181513396Y-102287354D01*
X181483823Y-102230211D01*
X181462452Y-102149917D01*
X181455278Y-102110967D01*
X181451471Y-102041632D01*
X181466048Y-101982060D01*
X181502474Y-101922086D01*
X181564218Y-101851544D01*
X181630864Y-101788218D01*
X181701682Y-101739488D01*
X181789323Y-101698610D01*
X181917763Y-101647018D01*
X181589761Y-101638091D01*
X181488500Y-101634688D01*
X181394232Y-101630220D01*
X181317371Y-101625203D01*
X181263938Y-101620030D01*
X181239953Y-101615099D01*
X181225978Y-101609604D01*
X181176436Y-101598428D01*
X181097067Y-101585204D01*
X180991326Y-101570483D01*
X180862666Y-101554819D01*
X180841157Y-101551816D01*
X180791062Y-101540602D01*
X180760676Y-101527650D01*
X180746132Y-101502927D01*
X180739197Y-101456367D01*
X180744082Y-101408139D01*
X180760775Y-101375686D01*
X180769277Y-101369026D01*
X180796230Y-101353607D01*
X180829852Y-101344498D01*
X180874800Y-101341946D01*
X180935731Y-101346197D01*
G37*
G36*
X180729620Y-102554279D02*
G01*
X180799443Y-102567629D01*
X180892365Y-102592291D01*
X181013434Y-102628859D01*
X181042557Y-102637906D01*
X181237040Y-102695434D01*
X181406949Y-102739645D01*
X181559040Y-102771801D01*
X181700070Y-102793165D01*
X181836795Y-102804996D01*
X181975972Y-102808558D01*
X182109327Y-102805881D01*
X182238209Y-102796438D01*
X182334873Y-102780389D01*
X182456507Y-102753042D01*
X182585916Y-102730062D01*
X182688373Y-102719685D01*
X182761878Y-102722094D01*
X182804435Y-102737472D01*
X182823106Y-102763995D01*
X182831783Y-102814366D01*
X182821592Y-102866403D01*
X182793560Y-102904346D01*
X182783417Y-102910032D01*
X182740149Y-102928606D01*
X182673235Y-102953805D01*
X182589673Y-102983051D01*
X182496459Y-103013767D01*
X182470253Y-103022204D01*
X182363886Y-103057519D01*
X182258680Y-103093915D01*
X182165552Y-103127560D01*
X182095417Y-103154618D01*
X182074051Y-103163302D01*
X182004491Y-103190889D01*
X181945904Y-103213160D01*
X181909174Y-103225946D01*
X181898642Y-103229755D01*
X181852104Y-103254033D01*
X181802750Y-103287728D01*
X181766930Y-103313591D01*
X181704033Y-103354581D01*
X181638679Y-103393477D01*
X181597906Y-103416929D01*
X181548639Y-103449422D01*
X181526502Y-103473896D01*
X181528294Y-103494843D01*
X181550811Y-103516755D01*
X181592005Y-103546062D01*
X181746976Y-103632592D01*
X181927706Y-103700311D01*
X182135970Y-103749792D01*
X182373542Y-103781605D01*
X182400368Y-103784368D01*
X182470615Y-103794560D01*
X182525641Y-103806734D01*
X182555351Y-103818824D01*
X182571968Y-103843049D01*
X182582126Y-103891824D01*
X182577262Y-103942839D01*
X182557182Y-103978999D01*
X182526306Y-103990301D01*
X182465966Y-103995916D01*
X182385031Y-103995125D01*
X182290836Y-103988623D01*
X182190714Y-103977105D01*
X182091999Y-103961265D01*
X182002027Y-103941798D01*
X181928131Y-103919400D01*
X181894832Y-103907698D01*
X181821152Y-103884403D01*
X181748048Y-103863811D01*
X181740998Y-103861931D01*
X181669190Y-103836708D01*
X181589729Y-103797186D01*
X181496569Y-103740012D01*
X181383662Y-103661836D01*
X181365294Y-103647940D01*
X181319776Y-103600520D01*
X181299016Y-103548190D01*
X181296063Y-103523946D01*
X181307240Y-103440545D01*
X181347474Y-103358622D01*
X181412457Y-103285133D01*
X181497879Y-103227039D01*
X181525674Y-103212041D01*
X181596345Y-103169347D01*
X181660850Y-103125308D01*
X181692611Y-103102538D01*
X181745367Y-103067768D01*
X181785012Y-103045281D01*
X181793046Y-103041510D01*
X181814694Y-103029627D01*
X181807056Y-103024765D01*
X181767040Y-103023110D01*
X181741229Y-103021337D01*
X181667876Y-103010876D01*
X181570758Y-102992495D01*
X181456650Y-102967768D01*
X181332326Y-102938270D01*
X181204559Y-102905575D01*
X181080124Y-102871257D01*
X180965794Y-102836890D01*
X180923244Y-102823611D01*
X180833257Y-102796765D01*
X180755476Y-102775191D01*
X180697064Y-102760826D01*
X180665186Y-102755608D01*
X180633667Y-102751054D01*
X180600152Y-102734323D01*
X180587107Y-102711332D01*
X180579582Y-102663612D01*
X180584888Y-102614168D01*
X180602729Y-102580510D01*
X180608224Y-102576152D01*
X180639061Y-102559135D01*
X180677843Y-102551646D01*
X180729620Y-102554279D01*
G37*
G36*
X182027084Y-97969925D02*
G01*
X182107201Y-97971119D01*
X182392565Y-97975370D01*
X182470143Y-98063572D01*
X182493727Y-98091658D01*
X182535021Y-98154432D01*
X182548968Y-98205471D01*
X182553710Y-98250382D01*
X182565459Y-98294644D01*
X182571287Y-98315324D01*
X182578580Y-98367235D01*
X182581950Y-98429360D01*
X182581957Y-98429958D01*
X182579641Y-98493389D01*
X182568656Y-98533614D01*
X182545807Y-98562391D01*
X182513014Y-98594622D01*
X182472310Y-98645977D01*
X182452347Y-98688717D01*
X182456854Y-98716388D01*
X182467763Y-98734845D01*
X182475979Y-98781411D01*
X182471832Y-98831771D01*
X182455487Y-98867563D01*
X182450881Y-98871438D01*
X182409621Y-98885555D01*
X182352146Y-98887607D01*
X182292743Y-98878239D01*
X182245698Y-98858097D01*
X182206463Y-98831705D01*
X182144078Y-98797524D01*
X182081487Y-98777121D01*
X182007011Y-98767255D01*
X181908971Y-98764686D01*
X181901244Y-98764673D01*
X181810282Y-98761947D01*
X181747965Y-98754734D01*
X181717610Y-98743401D01*
X181705591Y-98732473D01*
X181694915Y-98729025D01*
X181699598Y-98744280D01*
X181716602Y-98771132D01*
X181742886Y-98802475D01*
X181773439Y-98844890D01*
X181788485Y-98901038D01*
X181777260Y-98950705D01*
X181742030Y-98986169D01*
X181685057Y-98999707D01*
X181658402Y-98995721D01*
X181617330Y-98971982D01*
X181568228Y-98922105D01*
X181540014Y-98887768D01*
X181511949Y-98848938D01*
X181500939Y-98826767D01*
X181498000Y-98816719D01*
X181480053Y-98782011D01*
X181451277Y-98736334D01*
X181430263Y-98699321D01*
X181397366Y-98616720D01*
X181370688Y-98517991D01*
X181356133Y-98447819D01*
X181348916Y-98397258D01*
X181349227Y-98385822D01*
X181566439Y-98385822D01*
X181572389Y-98428097D01*
X181583756Y-98461483D01*
X181589901Y-98511249D01*
X181597381Y-98554987D01*
X181620262Y-98605027D01*
X181650623Y-98648374D01*
X181660937Y-98604681D01*
X181674924Y-98570538D01*
X181705199Y-98543497D01*
X181755480Y-98527692D01*
X181830696Y-98521677D01*
X181935780Y-98524003D01*
X181977295Y-98526232D01*
X182063645Y-98531861D01*
X182140202Y-98538055D01*
X182194138Y-98543830D01*
X182222838Y-98547386D01*
X182262716Y-98546779D01*
X182290846Y-98530536D01*
X182322735Y-98492465D01*
X182351826Y-98449615D01*
X182365198Y-98410811D01*
X182364143Y-98363897D01*
X182350473Y-98296033D01*
X182344489Y-98270887D01*
X182333923Y-98236614D01*
X182318588Y-98212191D01*
X182293366Y-98195964D01*
X182253139Y-98186279D01*
X182192790Y-98181483D01*
X182107201Y-98179922D01*
X181991255Y-98179941D01*
X181953740Y-98180041D01*
X181850959Y-98180871D01*
X181776339Y-98182896D01*
X181724268Y-98186672D01*
X181689134Y-98192757D01*
X181665326Y-98201707D01*
X181647232Y-98214080D01*
X181638253Y-98222384D01*
X181603859Y-98270133D01*
X181578425Y-98328890D01*
X181566439Y-98385822D01*
X181349227Y-98385822D01*
X181350026Y-98356476D01*
X181359850Y-98312829D01*
X181378775Y-98253675D01*
X181385903Y-98233093D01*
X181427889Y-98142581D01*
X181480039Y-98078141D01*
X181480795Y-98077446D01*
X181521753Y-98041341D01*
X181559458Y-98013899D01*
X181599441Y-97994028D01*
X181647232Y-97980632D01*
X181708361Y-97972617D01*
X181788359Y-97968891D01*
X181892757Y-97968358D01*
X182027084Y-97969925D01*
G37*
G36*
X180762533Y-104089680D02*
G01*
X180850923Y-104102182D01*
X180954345Y-104121710D01*
X181062608Y-104146118D01*
X181165520Y-104173260D01*
X181252889Y-104200989D01*
X181321495Y-104220160D01*
X181430183Y-104239274D01*
X181571417Y-104255270D01*
X181746136Y-104268252D01*
X181955280Y-104278322D01*
X182027717Y-104281374D01*
X182135772Y-104287630D01*
X182213098Y-104294971D01*
X182262768Y-104303730D01*
X182287857Y-104314239D01*
X182308478Y-104348064D01*
X182317135Y-104398083D01*
X182316995Y-104407535D01*
X182312930Y-104436541D01*
X182299668Y-104461144D01*
X182272435Y-104484797D01*
X182226458Y-104510949D01*
X182156963Y-104543051D01*
X182059177Y-104584554D01*
X182008511Y-104606434D01*
X181927389Y-104644260D01*
X181857105Y-104680234D01*
X181808768Y-104708842D01*
X181797735Y-104715987D01*
X181739114Y-104747772D01*
X181663785Y-104782431D01*
X181585235Y-104813641D01*
X181509830Y-104844038D01*
X181434704Y-104882795D01*
X181386336Y-104919139D01*
X181337170Y-104970458D01*
X181374848Y-105018358D01*
X181377259Y-105021470D01*
X181402247Y-105060627D01*
X181412526Y-105089848D01*
X181413166Y-105096539D01*
X181424070Y-105114862D01*
X181452725Y-105133562D01*
X181504620Y-105155632D01*
X181585244Y-105184067D01*
X181592985Y-105186638D01*
X181644121Y-105201230D01*
X181697938Y-105211179D01*
X181762627Y-105217304D01*
X181846382Y-105220428D01*
X181957393Y-105221372D01*
X182034170Y-105221824D01*
X182135548Y-105224771D01*
X182208883Y-105231616D01*
X182258781Y-105243693D01*
X182289847Y-105262337D01*
X182306689Y-105288883D01*
X182313911Y-105324664D01*
X182316070Y-105355857D01*
X182313113Y-105383991D01*
X182300208Y-105404407D01*
X182273099Y-105418340D01*
X182227534Y-105427027D01*
X182159258Y-105431702D01*
X182064016Y-105433601D01*
X181937555Y-105433959D01*
X181872139Y-105433823D01*
X181760958Y-105432564D01*
X181678752Y-105429752D01*
X181621152Y-105425095D01*
X181583789Y-105418305D01*
X181562291Y-105409092D01*
X181551930Y-105402754D01*
X181505158Y-105381759D01*
X181448705Y-105363199D01*
X181423778Y-105355492D01*
X181339150Y-105314505D01*
X181268638Y-105258299D01*
X181222918Y-105194835D01*
X181220754Y-105190224D01*
X181192588Y-105136178D01*
X181160261Y-105080969D01*
X181146981Y-105056704D01*
X181124618Y-104987303D01*
X181119526Y-104916845D01*
X181131673Y-104856029D01*
X181161028Y-104815552D01*
X181166836Y-104811401D01*
X181210917Y-104778041D01*
X181258584Y-104739843D01*
X181271359Y-104730100D01*
X181330873Y-104693869D01*
X181408797Y-104654939D01*
X181493203Y-104618952D01*
X181572163Y-104591547D01*
X181577385Y-104589900D01*
X181624976Y-104569814D01*
X181676620Y-104542094D01*
X181736733Y-104505671D01*
X181650014Y-104482819D01*
X181627315Y-104477477D01*
X181547920Y-104464678D01*
X181472157Y-104459184D01*
X181456153Y-104458501D01*
X181388730Y-104449822D01*
X181306528Y-104433342D01*
X181223833Y-104411786D01*
X181220321Y-104410745D01*
X181069299Y-104367665D01*
X180945187Y-104336218D01*
X180841969Y-104315173D01*
X180753632Y-104303300D01*
X180674160Y-104299370D01*
X180632861Y-104298510D01*
X180567099Y-104290990D01*
X180528491Y-104272736D01*
X180511638Y-104240108D01*
X180511141Y-104189468D01*
X180522814Y-104147010D01*
X180557218Y-104112043D01*
X180617530Y-104092441D01*
X180707609Y-104086176D01*
X180762533Y-104089680D01*
G37*
G36*
X180692834Y-98993350D02*
G01*
X180814962Y-99021414D01*
X180858519Y-99033584D01*
X180939041Y-99057542D01*
X181008016Y-99079835D01*
X181054044Y-99096865D01*
X181073037Y-99104224D01*
X181122132Y-99118068D01*
X181186545Y-99130024D01*
X181269636Y-99140410D01*
X181374763Y-99149542D01*
X181505287Y-99157738D01*
X181664567Y-99165315D01*
X181855962Y-99172591D01*
X181924749Y-99175044D01*
X182114721Y-99182743D01*
X182272044Y-99190763D01*
X182398854Y-99199291D01*
X182497288Y-99208517D01*
X182569480Y-99218630D01*
X182617566Y-99229819D01*
X182643682Y-99242272D01*
X182660742Y-99268087D01*
X182670789Y-99316132D01*
X182667259Y-99365616D01*
X182649529Y-99399705D01*
X182628921Y-99405573D01*
X182575624Y-99411678D01*
X182494342Y-99416960D01*
X182389054Y-99421167D01*
X182263740Y-99424049D01*
X182143327Y-99426239D01*
X182047003Y-99428941D01*
X181975013Y-99432625D01*
X181921669Y-99437857D01*
X181881284Y-99445202D01*
X181848168Y-99455226D01*
X181816634Y-99468494D01*
X181770081Y-99494656D01*
X181712259Y-99535239D01*
X181654352Y-99582106D01*
X181603791Y-99628811D01*
X181568005Y-99668908D01*
X181554426Y-99695953D01*
X181555052Y-99698422D01*
X181575665Y-99717602D01*
X181619560Y-99744234D01*
X181678744Y-99773344D01*
X181706593Y-99785485D01*
X181780387Y-99812317D01*
X181848174Y-99825451D01*
X181928082Y-99828932D01*
X181994691Y-99830857D01*
X182069993Y-99836914D01*
X182127472Y-99845666D01*
X182136804Y-99847731D01*
X182195825Y-99860070D01*
X182272468Y-99875354D01*
X182352610Y-99890754D01*
X182400617Y-99900128D01*
X182461269Y-99915092D01*
X182505014Y-99933435D01*
X182543314Y-99960580D01*
X182587631Y-100001949D01*
X182624291Y-100039423D01*
X182654779Y-100078580D01*
X182668619Y-100114564D01*
X182671884Y-100158670D01*
X182671640Y-100169772D01*
X182663423Y-100221912D01*
X182646436Y-100253668D01*
X182618313Y-100267429D01*
X182566839Y-100269914D01*
X182516932Y-100254362D01*
X182484471Y-100223712D01*
X182457279Y-100178295D01*
X182403321Y-100129261D01*
X182329715Y-100104770D01*
X182308543Y-100101165D01*
X182237153Y-100088382D01*
X182166367Y-100075025D01*
X182143035Y-100070992D01*
X182073406Y-100061628D01*
X181988027Y-100052515D01*
X181900306Y-100045158D01*
X181825857Y-100039038D01*
X181758314Y-100029570D01*
X181699435Y-100014192D01*
X181635909Y-99989288D01*
X181554426Y-99951244D01*
X181470452Y-99909045D01*
X181403766Y-99870024D01*
X181359832Y-99834976D01*
X181333146Y-99799421D01*
X181318207Y-99758878D01*
X181319142Y-99706335D01*
X181344291Y-99635502D01*
X181391148Y-99556613D01*
X181456319Y-99476606D01*
X181538097Y-99389180D01*
X181453140Y-99378728D01*
X181444865Y-99377725D01*
X181381038Y-99370474D01*
X181300068Y-99361815D01*
X181217415Y-99353409D01*
X181198040Y-99351315D01*
X181121551Y-99339776D01*
X181055381Y-99325100D01*
X181012075Y-99309941D01*
X181000985Y-99304522D01*
X180942649Y-99281587D01*
X180865232Y-99256395D01*
X180779221Y-99231814D01*
X180695105Y-99210708D01*
X180623371Y-99195943D01*
X180574506Y-99190384D01*
X180573121Y-99190381D01*
X180514416Y-99180511D01*
X180482243Y-99148879D01*
X180472442Y-99091453D01*
X180473478Y-99072123D01*
X180491354Y-99023078D01*
X180532735Y-98993833D01*
X180599327Y-98984040D01*
X180692834Y-98993350D01*
G37*
G36*
X180566576Y-105252772D02*
G01*
X180614918Y-105288934D01*
X180633055Y-105306171D01*
X180686546Y-105342519D01*
X180747464Y-105371414D01*
X180756148Y-105374663D01*
X180811472Y-105396838D01*
X180888094Y-105429047D01*
X180977065Y-105467483D01*
X181069436Y-105508341D01*
X181089101Y-105517048D01*
X181183309Y-105556283D01*
X181273911Y-105590413D01*
X181351444Y-105616029D01*
X181406447Y-105629724D01*
X181426500Y-105633010D01*
X181501154Y-105645481D01*
X181590238Y-105660601D01*
X181678588Y-105675801D01*
X181735325Y-105683905D01*
X181833405Y-105694007D01*
X181951602Y-105703126D01*
X182081270Y-105710615D01*
X182213762Y-105715828D01*
X182296527Y-105718313D01*
X182399530Y-105721837D01*
X182475420Y-105725525D01*
X182529282Y-105730039D01*
X182566201Y-105736043D01*
X182591263Y-105744200D01*
X182609554Y-105755174D01*
X182626157Y-105769628D01*
X182635849Y-105779155D01*
X182658646Y-105810660D01*
X182669269Y-105851160D01*
X182671884Y-105913790D01*
X182671631Y-105932668D01*
X182664069Y-106000562D01*
X182646278Y-106036202D01*
X182609154Y-106056881D01*
X182535732Y-106080870D01*
X182434425Y-106103468D01*
X182309358Y-106123909D01*
X182164655Y-106141429D01*
X182004440Y-106155261D01*
X181860250Y-106165418D01*
X181951359Y-106247559D01*
X182010612Y-106296120D01*
X182088199Y-106352116D01*
X182163242Y-106399911D01*
X182165752Y-106401380D01*
X182233859Y-106447174D01*
X182306684Y-106505549D01*
X182378688Y-106570890D01*
X182444332Y-106637583D01*
X182498078Y-106700013D01*
X182534388Y-106752568D01*
X182547722Y-106789632D01*
X182551752Y-106819647D01*
X182565459Y-106844085D01*
X182575678Y-106859755D01*
X182582610Y-106901226D01*
X182581540Y-106952742D01*
X182573057Y-107000168D01*
X182557749Y-107029367D01*
X182557659Y-107029441D01*
X182522815Y-107042642D01*
X182474888Y-107044842D01*
X182471422Y-107044444D01*
X182416839Y-107019923D01*
X182374266Y-106963166D01*
X182344827Y-106875633D01*
X182330573Y-106843163D01*
X182290574Y-106788603D01*
X182232455Y-106726179D01*
X182162839Y-106662318D01*
X182088346Y-106603450D01*
X182015599Y-106556004D01*
X181963361Y-106523232D01*
X181872700Y-106456706D01*
X181777381Y-106377705D01*
X181688103Y-106295257D01*
X181615561Y-106218390D01*
X181601170Y-106200853D01*
X181562223Y-106138412D01*
X181549134Y-106080647D01*
X181549036Y-106060000D01*
X181554434Y-106021218D01*
X181571542Y-105993218D01*
X181605110Y-105973906D01*
X181659893Y-105961189D01*
X181740643Y-105952973D01*
X181852114Y-105947162D01*
X181892178Y-105945409D01*
X181961757Y-105941725D01*
X182006994Y-105938364D01*
X182024185Y-105935638D01*
X182009627Y-105933859D01*
X181968979Y-105930757D01*
X181896070Y-105922337D01*
X181808365Y-105910192D01*
X181716960Y-105895769D01*
X181647982Y-105884234D01*
X181547753Y-105867705D01*
X181455259Y-105852691D01*
X181384117Y-105841417D01*
X181297402Y-105821712D01*
X181183114Y-105784048D01*
X181055975Y-105732200D01*
X180979111Y-105698552D01*
X180887139Y-105659291D01*
X180804418Y-105624970D01*
X180742479Y-105600436D01*
X180721864Y-105592573D01*
X180621305Y-105550998D01*
X180548078Y-105513481D01*
X180496063Y-105476480D01*
X180459139Y-105436451D01*
X180447299Y-105418328D01*
X180424137Y-105358735D01*
X180421451Y-105301978D01*
X180440515Y-105260133D01*
X180460073Y-105246498D01*
X180510820Y-105237942D01*
X180566576Y-105252772D01*
G37*
G36*
X182873166Y-101892973D02*
G01*
X182958683Y-101944120D01*
X183007251Y-101977834D01*
X183073713Y-102020741D01*
X183128738Y-102048628D01*
X183183018Y-102065429D01*
X183247247Y-102075079D01*
X183332117Y-102081512D01*
X183376243Y-102084471D01*
X183445340Y-102091159D01*
X183491568Y-102100324D01*
X183523423Y-102114029D01*
X183549400Y-102134341D01*
X183562773Y-102148065D01*
X183587420Y-102191632D01*
X183594230Y-102252136D01*
X183593585Y-102270645D01*
X183585813Y-102316777D01*
X183572058Y-102342022D01*
X183543150Y-102356805D01*
X183490138Y-102377235D01*
X183435488Y-102393700D01*
X183396048Y-102400592D01*
X183382512Y-102403770D01*
X183385969Y-102419207D01*
X183413786Y-102452721D01*
X183444439Y-102486358D01*
X183528693Y-102580594D01*
X183591500Y-102654606D01*
X183635594Y-102712162D01*
X183663706Y-102757029D01*
X183678570Y-102792975D01*
X183682917Y-102823766D01*
X183682920Y-102825703D01*
X183685692Y-102855401D01*
X183699054Y-102874798D01*
X183730955Y-102890171D01*
X183789342Y-102907795D01*
X183895766Y-102937657D01*
X183895766Y-103077219D01*
X183895766Y-103216781D01*
X183810469Y-103216781D01*
X183804443Y-103216802D01*
X183732878Y-103222775D01*
X183691570Y-103241700D01*
X183676793Y-103276993D01*
X183684822Y-103332074D01*
X183692893Y-103359552D01*
X183716090Y-103413056D01*
X183750300Y-103448899D01*
X183806020Y-103479883D01*
X183834221Y-103494872D01*
X183863739Y-103524271D01*
X183874805Y-103568279D01*
X183873784Y-103619784D01*
X183854096Y-103654793D01*
X183810208Y-103672837D01*
X183737050Y-103677954D01*
X183725197Y-103677899D01*
X183666429Y-103674156D01*
X183629159Y-103662036D01*
X183601524Y-103638045D01*
X183584570Y-103617123D01*
X183544027Y-103553312D01*
X183507516Y-103471567D01*
X183470927Y-103363241D01*
X183462090Y-103332944D01*
X183443573Y-103244095D01*
X183445100Y-103177982D01*
X183467517Y-103128962D01*
X183511670Y-103091395D01*
X183567624Y-103057276D01*
X183484028Y-103057210D01*
X183455064Y-103055577D01*
X183380792Y-103042858D01*
X183310431Y-103021669D01*
X183247077Y-103001908D01*
X183166761Y-102989835D01*
X183063622Y-102986194D01*
X183056554Y-102986186D01*
X182970840Y-102983643D01*
X182914710Y-102974473D01*
X182882804Y-102955645D01*
X182869761Y-102924130D01*
X182870220Y-102876898D01*
X182876419Y-102846392D01*
X182899377Y-102811617D01*
X182942882Y-102789266D01*
X183011724Y-102777282D01*
X183110695Y-102773606D01*
X183161408Y-102774468D01*
X183263765Y-102784861D01*
X183349093Y-102808399D01*
X183387802Y-102822110D01*
X183429852Y-102834027D01*
X183449448Y-102835353D01*
X183448495Y-102829189D01*
X183429813Y-102804410D01*
X183395104Y-102769258D01*
X183379475Y-102753910D01*
X183335659Y-102703037D01*
X183304714Y-102656251D01*
X183272534Y-102609327D01*
X183233866Y-102573127D01*
X183223794Y-102565715D01*
X183178990Y-102516900D01*
X183136957Y-102450524D01*
X183105469Y-102380454D01*
X183092297Y-102320555D01*
X183089319Y-102288033D01*
X183073586Y-102263223D01*
X183034458Y-102251065D01*
X182986813Y-102233650D01*
X182944815Y-102203244D01*
X182916007Y-102176649D01*
X182866644Y-102137602D01*
X182809349Y-102096505D01*
X182760213Y-102061541D01*
X182726460Y-102030912D01*
X182711037Y-102002864D01*
X182707359Y-101969178D01*
X182707370Y-101966788D01*
X182719099Y-101906901D01*
X182751735Y-101874527D01*
X182803637Y-101869830D01*
X182873166Y-101892973D01*
G37*
G36*
X175647697Y-99112067D02*
G01*
X175671713Y-99112409D01*
X175756552Y-99121432D01*
X175829865Y-99137616D01*
X175883806Y-99160360D01*
X175910526Y-99189063D01*
X175918714Y-99199370D01*
X175951701Y-99223958D01*
X175999834Y-99251699D01*
X176030833Y-99270229D01*
X176083693Y-99311129D01*
X176131680Y-99357699D01*
X176166531Y-99401563D01*
X176179984Y-99434343D01*
X176180329Y-99436623D01*
X176190768Y-99464129D01*
X176212820Y-99512446D01*
X176242503Y-99572756D01*
X176262294Y-99612686D01*
X176299223Y-99697302D01*
X176324708Y-99777718D01*
X176342450Y-99867159D01*
X176356149Y-99978848D01*
X176361134Y-100034531D01*
X176362867Y-100090333D01*
X176357715Y-100124587D01*
X176345154Y-100145206D01*
X176333102Y-100163913D01*
X176331745Y-100199270D01*
X176333476Y-100203479D01*
X176351452Y-100255258D01*
X176351540Y-100282306D01*
X176333868Y-100290105D01*
X176326302Y-100290435D01*
X176306221Y-100298002D01*
X176290649Y-100320626D01*
X176276234Y-100364967D01*
X176259626Y-100437687D01*
X176254161Y-100462403D01*
X176226521Y-100564710D01*
X176193836Y-100657996D01*
X176159456Y-100733562D01*
X176126734Y-100782708D01*
X176102302Y-100813294D01*
X176091297Y-100836474D01*
X176082487Y-100854847D01*
X176056240Y-100883930D01*
X176045993Y-100893349D01*
X176031654Y-100912571D01*
X176037573Y-100933124D01*
X176065109Y-100967859D01*
X176087800Y-100999870D01*
X176106092Y-101043184D01*
X176106160Y-101075561D01*
X176086462Y-101088289D01*
X176081018Y-101086906D01*
X176056524Y-101065106D01*
X176029930Y-101025230D01*
X175995970Y-100962171D01*
X175945906Y-101011927D01*
X175940354Y-101017443D01*
X175891077Y-101066307D01*
X175841961Y-101114895D01*
X175833759Y-101123205D01*
X175791159Y-101171803D01*
X175758489Y-101216885D01*
X175744928Y-101236511D01*
X175712757Y-101259713D01*
X175662183Y-101265663D01*
X175616829Y-101271782D01*
X175569587Y-101300425D01*
X175549057Y-101347551D01*
X175559218Y-101407667D01*
X175567367Y-101425309D01*
X175593385Y-101453616D01*
X175636710Y-101460709D01*
X175643666Y-101460443D01*
X175698365Y-101448261D01*
X175753066Y-101423540D01*
X175773040Y-101410577D01*
X175826108Y-101371313D01*
X175884552Y-101323274D01*
X175941672Y-101272541D01*
X175990768Y-101225191D01*
X176025139Y-101187304D01*
X176038085Y-101164958D01*
X176039728Y-101155585D01*
X176057696Y-101141501D01*
X176065366Y-101140109D01*
X176100171Y-101120392D01*
X176144002Y-101084076D01*
X176187206Y-101039795D01*
X176220130Y-100996186D01*
X176230164Y-100981007D01*
X176268655Y-100931766D01*
X176313267Y-100882874D01*
X176333385Y-100861368D01*
X176363319Y-100822294D01*
X176375096Y-100795654D01*
X176382331Y-100776460D01*
X176410571Y-100751278D01*
X176431772Y-100733233D01*
X176446046Y-100698729D01*
X176457097Y-100667184D01*
X176487119Y-100632838D01*
X176512882Y-100606707D01*
X176543852Y-100552782D01*
X176570866Y-100473842D01*
X176596046Y-100364657D01*
X176598100Y-100354245D01*
X176608185Y-100297186D01*
X176609460Y-100263553D01*
X176600873Y-100243504D01*
X176581375Y-100227192D01*
X176549098Y-100211431D01*
X176498060Y-100201418D01*
X176488986Y-100200837D01*
X176451352Y-100188472D01*
X176419502Y-100166000D01*
X176402411Y-100141372D01*
X176409049Y-100122540D01*
X176426969Y-100119396D01*
X176462251Y-100129648D01*
X176488626Y-100140015D01*
X176538001Y-100148293D01*
X176542691Y-100148542D01*
X176585737Y-100162199D01*
X176631444Y-100190282D01*
X176660693Y-100215392D01*
X176674293Y-100238244D01*
X176673920Y-100270443D01*
X176662485Y-100324578D01*
X176650874Y-100375884D01*
X176644547Y-100419364D01*
X176651914Y-100441204D01*
X176676507Y-100448848D01*
X176721857Y-100449742D01*
X176751860Y-100450929D01*
X176828958Y-100467018D01*
X176885158Y-100499360D01*
X176913848Y-100544688D01*
X176936472Y-100581318D01*
X176994320Y-100615543D01*
X176996908Y-100616602D01*
X177054443Y-100651741D01*
X177095862Y-100697352D01*
X177099472Y-100703251D01*
X177126430Y-100737356D01*
X177148661Y-100751278D01*
X177158563Y-100754944D01*
X177188672Y-100778896D01*
X177225115Y-100817793D01*
X177242217Y-100838218D01*
X177278856Y-100881553D01*
X177304157Y-100910915D01*
X177320160Y-100931025D01*
X177352051Y-100974637D01*
X177388798Y-101027418D01*
X177408683Y-101054248D01*
X177458957Y-101112902D01*
X177521526Y-101178663D01*
X177589303Y-101244732D01*
X177655199Y-101304310D01*
X177712129Y-101350599D01*
X177753004Y-101376799D01*
X177780313Y-101395518D01*
X177804216Y-101429261D01*
X177811260Y-101442510D01*
X177839745Y-101480726D01*
X177883779Y-101532341D01*
X177937305Y-101590037D01*
X177940673Y-101593523D01*
X177999123Y-101651902D01*
X178039162Y-101686325D01*
X178064971Y-101699870D01*
X178066831Y-101699368D01*
X178080732Y-101695614D01*
X178098289Y-101684122D01*
X178125934Y-101694433D01*
X178139057Y-101701824D01*
X178185945Y-101702025D01*
X178248832Y-101677120D01*
X178323498Y-101629136D01*
X178405724Y-101560097D01*
X178429631Y-101537364D01*
X178476779Y-101489519D01*
X178509402Y-101452077D01*
X178521535Y-101431653D01*
X178531031Y-101411214D01*
X178558861Y-101372507D01*
X178598639Y-101325228D01*
X178635327Y-101281111D01*
X178670652Y-101231141D01*
X178689497Y-101194714D01*
X178702172Y-101161804D01*
X178722350Y-101126307D01*
X178723988Y-101124243D01*
X178764999Y-101061067D01*
X178811119Y-100970727D01*
X178812850Y-100967078D01*
X178836107Y-100926544D01*
X178856526Y-100903165D01*
X178866649Y-100892121D01*
X178876074Y-100858178D01*
X178876095Y-100857343D01*
X178888510Y-100827404D01*
X178917661Y-100786231D01*
X178954578Y-100744101D01*
X178990293Y-100711287D01*
X179015836Y-100698066D01*
X179025114Y-100695340D01*
X179059831Y-100672809D01*
X179109843Y-100632118D01*
X179169360Y-100578862D01*
X179232597Y-100518637D01*
X179293763Y-100457037D01*
X179347072Y-100399659D01*
X179386736Y-100352097D01*
X179406966Y-100319947D01*
X179417416Y-100296917D01*
X179446308Y-100247252D01*
X179482969Y-100193591D01*
X179520948Y-100144571D01*
X179553791Y-100108827D01*
X179575048Y-100094993D01*
X179581005Y-100093705D01*
X179610781Y-100075220D01*
X179647652Y-100041781D01*
X179662148Y-100026941D01*
X179684314Y-100008400D01*
X179709962Y-99997065D01*
X179747090Y-99991163D01*
X179803696Y-99988922D01*
X179879340Y-99988604D01*
X179887779Y-99988568D01*
X179939651Y-99989169D01*
X180043952Y-99995048D01*
X180122277Y-100006726D01*
X180171537Y-100023621D01*
X180188644Y-100045153D01*
X180188657Y-100045653D01*
X180199388Y-100071428D01*
X180224118Y-100107890D01*
X180251080Y-100163195D01*
X180259593Y-100241353D01*
X180259320Y-100270678D01*
X180255744Y-100308366D01*
X180245188Y-100322330D01*
X180224118Y-100320440D01*
X180197647Y-100320005D01*
X180188644Y-100343931D01*
X180186054Y-100362525D01*
X180170906Y-100387661D01*
X180160350Y-100401688D01*
X180152754Y-100437485D01*
X180148295Y-100460342D01*
X180129375Y-100509390D01*
X180100735Y-100565035D01*
X180080712Y-100599598D01*
X180043671Y-100664151D01*
X180013758Y-100716990D01*
X180007609Y-100727630D01*
X179977124Y-100773134D01*
X179950485Y-100803414D01*
X179934833Y-100819483D01*
X179922582Y-100844337D01*
X179917821Y-100865553D01*
X179897619Y-100914249D01*
X179866169Y-100977021D01*
X179828490Y-101044934D01*
X179789604Y-101109049D01*
X179754533Y-101160431D01*
X179728296Y-101190142D01*
X179711932Y-101206806D01*
X179677917Y-101253249D01*
X179638863Y-101315898D01*
X179599775Y-101385650D01*
X179565658Y-101453403D01*
X179541518Y-101510053D01*
X179532359Y-101546497D01*
X179532345Y-101547393D01*
X179523413Y-101584116D01*
X179501164Y-101641202D01*
X179470271Y-101708933D01*
X179435409Y-101777592D01*
X179401253Y-101837461D01*
X179372479Y-101878824D01*
X179349336Y-101911100D01*
X179314421Y-101972209D01*
X179283665Y-102038460D01*
X179276004Y-102056586D01*
X179242271Y-102128107D01*
X179199529Y-102210696D01*
X179155161Y-102289907D01*
X179150499Y-102297828D01*
X179108565Y-102366178D01*
X179075073Y-102410128D01*
X179042353Y-102435918D01*
X179002735Y-102449787D01*
X178948550Y-102457974D01*
X178930141Y-102462385D01*
X178910174Y-102479126D01*
X178892819Y-102515164D01*
X178873235Y-102578233D01*
X178869774Y-102590492D01*
X178852192Y-102653842D01*
X178844322Y-102691619D01*
X178846761Y-102711415D01*
X178860102Y-102720817D01*
X178884942Y-102727416D01*
X178914176Y-102740580D01*
X178929286Y-102761886D01*
X178937781Y-102778771D01*
X178966755Y-102816792D01*
X179011434Y-102868596D01*
X179066751Y-102928057D01*
X179092886Y-102955231D01*
X179155210Y-103020564D01*
X179198899Y-103068109D01*
X179228489Y-103103596D01*
X179248513Y-103132755D01*
X179263507Y-103161315D01*
X179278004Y-103195007D01*
X179282471Y-103205476D01*
X179306680Y-103254225D01*
X179328458Y-103287730D01*
X179334299Y-103295501D01*
X179357749Y-103333024D01*
X179389993Y-103389585D01*
X179425861Y-103456236D01*
X179432333Y-103468465D01*
X179479258Y-103551603D01*
X179530826Y-103635801D01*
X179576997Y-103704560D01*
X179581641Y-103711022D01*
X179618419Y-103764809D01*
X179644751Y-103807863D01*
X179655202Y-103831374D01*
X179661211Y-103848164D01*
X179682694Y-103887986D01*
X179714167Y-103938066D01*
X179737375Y-103976718D01*
X179775685Y-104054672D01*
X179804734Y-104130526D01*
X179819841Y-104177081D01*
X179850213Y-104263905D01*
X179880169Y-104343108D01*
X179899826Y-104395921D01*
X179916317Y-104448644D01*
X179922633Y-104481016D01*
X179926311Y-104504669D01*
X179939872Y-104554426D01*
X179959996Y-104614046D01*
X179964238Y-104625974D01*
X179987633Y-104710088D01*
X180007687Y-104817827D01*
X180025025Y-104953133D01*
X180040272Y-105119944D01*
X180043493Y-105162351D01*
X180044831Y-105213673D01*
X180037776Y-105249871D01*
X180017818Y-105273263D01*
X179980448Y-105286166D01*
X179921155Y-105290897D01*
X179835428Y-105289773D01*
X179718758Y-105285110D01*
X179626314Y-105280650D01*
X179498007Y-105270865D01*
X179393286Y-105255619D01*
X179304760Y-105232113D01*
X179225037Y-105197547D01*
X179146723Y-105149119D01*
X179062429Y-105084030D01*
X178964761Y-104999480D01*
X178894732Y-104936952D01*
X178820989Y-104870611D01*
X178768105Y-104822097D01*
X178732756Y-104788192D01*
X178711621Y-104765682D01*
X178701376Y-104751352D01*
X178698699Y-104741985D01*
X178697150Y-104735535D01*
X178676528Y-104724024D01*
X178670520Y-104722128D01*
X178640474Y-104702308D01*
X178595253Y-104665548D01*
X178542118Y-104617600D01*
X178520440Y-104597362D01*
X178471483Y-104553486D01*
X178434613Y-104523022D01*
X178416519Y-104511613D01*
X178416325Y-104511608D01*
X178399587Y-104497053D01*
X178378258Y-104462835D01*
X178359149Y-104430357D01*
X178323520Y-104376940D01*
X178282139Y-104319742D01*
X178246852Y-104272787D01*
X178203068Y-104214001D01*
X178169963Y-104168974D01*
X178123186Y-104108452D01*
X178067444Y-104048850D01*
X178022524Y-104016657D01*
X177990931Y-104014040D01*
X177981177Y-104022432D01*
X177953023Y-104057507D01*
X177915968Y-104111679D01*
X177875427Y-104177296D01*
X177870310Y-104185880D01*
X177813320Y-104271417D01*
X177749246Y-104353612D01*
X177689200Y-104418095D01*
X177654516Y-104450569D01*
X177607819Y-104494694D01*
X177572055Y-104529719D01*
X177538546Y-104564502D01*
X177498616Y-104607899D01*
X177443585Y-104668766D01*
X177429791Y-104683731D01*
X177375154Y-104737802D01*
X177324228Y-104781139D01*
X177286507Y-104805480D01*
X177246809Y-104831004D01*
X177221217Y-104879435D01*
X177220433Y-104882950D01*
X177199595Y-104931358D01*
X177165957Y-104978311D01*
X177162607Y-104981967D01*
X177126599Y-105025772D01*
X177100847Y-105064247D01*
X177097128Y-105070820D01*
X177084992Y-105084815D01*
X177064884Y-105093131D01*
X177029939Y-105096708D01*
X176973297Y-105096487D01*
X176888094Y-105093409D01*
X176794596Y-105088189D01*
X176729548Y-105080845D01*
X176687543Y-105070372D01*
X176662348Y-105055730D01*
X176635575Y-105037308D01*
X176599852Y-105025999D01*
X176584807Y-105023986D01*
X176570208Y-105011546D01*
X176569089Y-105008282D01*
X176547838Y-104989792D01*
X176508127Y-104967490D01*
X176496594Y-104961676D01*
X176460563Y-104938335D01*
X176446046Y-104919861D01*
X176431045Y-104907197D01*
X176394341Y-104901837D01*
X176358054Y-104894836D01*
X176318320Y-104868741D01*
X176268743Y-104817889D01*
X176234933Y-104777971D01*
X176193550Y-104725094D01*
X176165855Y-104684859D01*
X176164581Y-104682725D01*
X176140540Y-104649494D01*
X176122509Y-104635775D01*
X176108508Y-104624260D01*
X176091297Y-104591432D01*
X176090634Y-104589709D01*
X176074485Y-104562391D01*
X176046690Y-104550004D01*
X175995447Y-104547088D01*
X175984053Y-104546870D01*
X175926561Y-104538471D01*
X175889851Y-104520482D01*
X175863596Y-104502688D01*
X175813493Y-104495587D01*
X175768531Y-104516047D01*
X175739411Y-104538566D01*
X175691298Y-104567751D01*
X175643303Y-104591117D01*
X175609650Y-104601056D01*
X175602431Y-104603241D01*
X175573055Y-104626857D01*
X175534573Y-104669803D01*
X175493437Y-104723826D01*
X175456101Y-104780672D01*
X175429017Y-104832087D01*
X175385766Y-104954202D01*
X175357270Y-105083393D01*
X175345535Y-105208311D01*
X175351352Y-105320419D01*
X175375508Y-105411186D01*
X175396771Y-105458682D01*
X175446079Y-105559730D01*
X175494113Y-105646965D01*
X175535620Y-105710564D01*
X175542170Y-105719566D01*
X175566901Y-105760304D01*
X175576912Y-105788829D01*
X175581221Y-105804732D01*
X175600552Y-105845076D01*
X175630156Y-105895183D01*
X175633479Y-105900390D01*
X175683801Y-105990131D01*
X175718811Y-106080290D01*
X175740407Y-106179421D01*
X175750492Y-106296074D01*
X175750966Y-106438802D01*
X175745417Y-106676733D01*
X175816367Y-106738023D01*
X175842731Y-106759156D01*
X175892588Y-106792043D01*
X175931660Y-106809390D01*
X175944903Y-106812930D01*
X175995472Y-106830483D01*
X176051862Y-106853948D01*
X176062261Y-106858375D01*
X176138900Y-106879990D01*
X176219026Y-106888429D01*
X176310330Y-106888429D01*
X176271763Y-106847376D01*
X176244907Y-106808397D01*
X176233197Y-106769730D01*
X176228941Y-106746408D01*
X176206590Y-106711054D01*
X176202928Y-106707508D01*
X176185547Y-106665061D01*
X176179353Y-106589155D01*
X176177440Y-106546680D01*
X176167849Y-106461936D01*
X176153023Y-106382912D01*
X176142752Y-106334971D01*
X176131525Y-106264953D01*
X176127049Y-106210574D01*
X176128542Y-106185661D01*
X176140435Y-106128943D01*
X176160491Y-106075168D01*
X176184225Y-106035048D01*
X176207151Y-106019295D01*
X176210544Y-106019013D01*
X176243007Y-106009121D01*
X176287511Y-105989480D01*
X176331314Y-105973633D01*
X176398949Y-105957632D01*
X176472044Y-105946536D01*
X176489813Y-105944660D01*
X176580373Y-105933870D01*
X176648534Y-105920213D01*
X176697478Y-105899032D01*
X176730387Y-105865668D01*
X176750443Y-105815463D01*
X176760829Y-105743758D01*
X176764727Y-105645896D01*
X176765320Y-105517217D01*
X176766165Y-105393838D01*
X176769507Y-105301109D01*
X176776546Y-105235073D01*
X176788478Y-105191346D01*
X176806503Y-105165542D01*
X176831819Y-105153275D01*
X176865624Y-105150161D01*
X176879429Y-105151199D01*
X176904057Y-105165302D01*
X176900100Y-105188778D01*
X176867310Y-105212470D01*
X176863726Y-105214080D01*
X176850544Y-105222084D01*
X176840760Y-105235439D01*
X176833652Y-105259163D01*
X176828496Y-105298274D01*
X176824571Y-105357792D01*
X176821151Y-105442735D01*
X176817516Y-105558121D01*
X176814237Y-105661292D01*
X176811034Y-105751709D01*
X176808147Y-105823334D01*
X176805798Y-105870612D01*
X176804213Y-105887984D01*
X176793877Y-105898321D01*
X176769754Y-105925137D01*
X176757268Y-105937654D01*
X176724565Y-105958499D01*
X176676637Y-105974561D01*
X176606740Y-105987770D01*
X176508127Y-106000060D01*
X176398570Y-106019117D01*
X176305256Y-106050630D01*
X176237018Y-106091918D01*
X176198862Y-106140703D01*
X176188001Y-106178745D01*
X176187560Y-106227458D01*
X176198955Y-106296568D01*
X176209732Y-106356668D01*
X176222240Y-106444526D01*
X176231281Y-106528370D01*
X176231633Y-106532422D01*
X176240161Y-106598137D01*
X176251835Y-106650413D01*
X176264237Y-106678251D01*
X176275860Y-106695175D01*
X176286409Y-106735929D01*
X176290860Y-106755213D01*
X176316135Y-106797370D01*
X176354880Y-106840792D01*
X176396847Y-106874728D01*
X176431788Y-106888429D01*
X176449215Y-106892751D01*
X176463783Y-106915035D01*
X176452436Y-106927374D01*
X176412953Y-106937833D01*
X176352623Y-106943601D01*
X176279253Y-106944816D01*
X176200647Y-106941618D01*
X176124613Y-106934147D01*
X176058955Y-106922543D01*
X176011479Y-106906945D01*
X175995825Y-106899530D01*
X175940361Y-106876503D01*
X175896185Y-106862482D01*
X175871001Y-106852387D01*
X175823135Y-106822974D01*
X175772023Y-106783167D01*
X175692205Y-106713520D01*
X175696630Y-106472078D01*
X175696734Y-106466314D01*
X175697679Y-106362340D01*
X175695698Y-106284320D01*
X175689964Y-106223226D01*
X175679649Y-106170028D01*
X175663922Y-106115696D01*
X175643070Y-106056498D01*
X175621986Y-106006146D01*
X175606285Y-105978660D01*
X175582173Y-105946515D01*
X175554665Y-105900263D01*
X175532685Y-105855292D01*
X175523699Y-105825453D01*
X175517315Y-105807354D01*
X175495175Y-105767197D01*
X175462665Y-105716862D01*
X175435770Y-105675980D01*
X175406360Y-105626378D01*
X175390520Y-105593127D01*
X175380937Y-105572746D01*
X175362867Y-105558121D01*
X175352429Y-105549383D01*
X175345697Y-105518212D01*
X175339153Y-105481520D01*
X175319719Y-105433959D01*
X175314613Y-105422843D01*
X175302100Y-105368086D01*
X175295083Y-105291005D01*
X175293531Y-105201260D01*
X175297411Y-105108513D01*
X175306690Y-105022423D01*
X175321337Y-104952651D01*
X175332392Y-104916870D01*
X175354458Y-104851447D01*
X175373652Y-104801126D01*
X175394486Y-104760921D01*
X175430717Y-104704923D01*
X175473351Y-104647696D01*
X175516112Y-104597084D01*
X175552724Y-104560931D01*
X175576912Y-104547080D01*
X175592670Y-104543160D01*
X175633598Y-104523856D01*
X175683336Y-104493876D01*
X175714366Y-104475234D01*
X175768486Y-104450472D01*
X175809919Y-104440739D01*
X175817773Y-104440598D01*
X175844138Y-104434210D01*
X175858641Y-104411390D01*
X175859842Y-104405381D01*
X175921037Y-104405381D01*
X175928871Y-104456056D01*
X175963875Y-104484798D01*
X176027683Y-104493876D01*
X176044335Y-104494030D01*
X176080906Y-104498029D01*
X176109788Y-104512180D01*
X176140424Y-104542715D01*
X176182262Y-104595866D01*
X176185905Y-104600646D01*
X176225293Y-104650700D01*
X176256519Y-104687640D01*
X176273106Y-104703769D01*
X176276508Y-104705938D01*
X176286409Y-104729404D01*
X176287225Y-104735678D01*
X176306779Y-104769586D01*
X176343613Y-104806604D01*
X176385963Y-104836396D01*
X176422067Y-104848624D01*
X176453558Y-104855347D01*
X176494133Y-104880329D01*
X176502397Y-104887775D01*
X176544832Y-104917636D01*
X176596814Y-104946692D01*
X176613337Y-104954993D01*
X176662867Y-104982361D01*
X176696903Y-105004703D01*
X176703665Y-105008794D01*
X176741481Y-105020390D01*
X176798095Y-105030081D01*
X176864537Y-105037257D01*
X176931832Y-105041309D01*
X176991010Y-105041627D01*
X177033096Y-105037602D01*
X177049118Y-105028624D01*
X177056649Y-105008029D01*
X177081236Y-104976144D01*
X177108860Y-104945517D01*
X177143317Y-104901247D01*
X177168728Y-104858125D01*
X177169280Y-104830531D01*
X177140535Y-104816843D01*
X177079667Y-104813149D01*
X177031482Y-104811251D01*
X176985654Y-104800575D01*
X176955678Y-104777675D01*
X176928897Y-104754635D01*
X176894090Y-104740939D01*
X176817404Y-104737114D01*
X176698482Y-104726730D01*
X176606853Y-104711269D01*
X176537299Y-104689712D01*
X176484607Y-104661043D01*
X176458918Y-104641602D01*
X176424570Y-104610152D01*
X176410950Y-104589169D01*
X176406577Y-104574991D01*
X176383965Y-104547088D01*
X176369861Y-104531683D01*
X176357359Y-104500839D01*
X176352879Y-104483832D01*
X176333753Y-104442346D01*
X176304697Y-104391085D01*
X176270123Y-104321747D01*
X176240292Y-104205582D01*
X176239094Y-104195948D01*
X176224713Y-104129908D01*
X176222994Y-104127420D01*
X176287070Y-104127420D01*
X176291018Y-104173220D01*
X176307970Y-104236066D01*
X176336364Y-104309698D01*
X176374635Y-104387858D01*
X176385931Y-104408710D01*
X176418831Y-104470893D01*
X176443955Y-104520523D01*
X176456588Y-104548365D01*
X176463418Y-104559622D01*
X176494487Y-104590368D01*
X176539527Y-104623749D01*
X176560529Y-104636592D01*
X176626882Y-104663634D01*
X176704368Y-104671250D01*
X176758211Y-104672925D01*
X176842168Y-104681486D01*
X176917552Y-104695671D01*
X176975395Y-104713633D01*
X177006730Y-104733525D01*
X177020576Y-104744158D01*
X177064186Y-104756432D01*
X177119394Y-104759699D01*
X177171537Y-104753634D01*
X177205946Y-104737914D01*
X177225793Y-104725583D01*
X177244769Y-104742348D01*
X177248482Y-104746762D01*
X177263434Y-104748578D01*
X177288673Y-104732791D01*
X177328410Y-104696243D01*
X177386854Y-104635775D01*
X177423911Y-104596500D01*
X177473547Y-104544140D01*
X177511087Y-104504843D01*
X177530438Y-104485007D01*
X177532815Y-104482702D01*
X177557862Y-104458381D01*
X177599210Y-104418212D01*
X177649242Y-104369594D01*
X177705908Y-104308016D01*
X177769497Y-104226979D01*
X177820697Y-104149708D01*
X177824891Y-104142547D01*
X177866251Y-104077155D01*
X177907548Y-104019515D01*
X177940424Y-103981379D01*
X177948040Y-103973969D01*
X177977557Y-103940288D01*
X177989840Y-103917467D01*
X177991777Y-103912788D01*
X178078537Y-103912788D01*
X178090558Y-103968083D01*
X178135536Y-104034593D01*
X178174545Y-104080996D01*
X178236213Y-104155898D01*
X178284167Y-104217118D01*
X178324936Y-104273129D01*
X178365051Y-104332404D01*
X178399317Y-104382745D01*
X178432326Y-104427905D01*
X178453738Y-104453326D01*
X178504148Y-104499768D01*
X178589420Y-104576594D01*
X178651889Y-104629982D01*
X178692991Y-104661133D01*
X178714163Y-104671250D01*
X178726255Y-104675151D01*
X178746313Y-104699982D01*
X178749533Y-104706568D01*
X178774729Y-104740161D01*
X178812272Y-104778529D01*
X178883424Y-104842906D01*
X178982654Y-104931912D01*
X179061120Y-105000995D01*
X179122023Y-105052856D01*
X179168563Y-105090194D01*
X179203941Y-105115709D01*
X179231356Y-105132102D01*
X179288643Y-105158923D01*
X179374584Y-105188039D01*
X179472806Y-105207914D01*
X179590922Y-105219956D01*
X179736544Y-105225574D01*
X179984663Y-105229979D01*
X179988259Y-105141292D01*
X179988602Y-105112261D01*
X179984775Y-105055525D01*
X179976202Y-105017130D01*
X179970099Y-104995771D01*
X179962705Y-104943563D01*
X179959304Y-104881135D01*
X179958720Y-104864198D01*
X179946507Y-104776472D01*
X179922541Y-104697761D01*
X179913211Y-104674494D01*
X179890060Y-104604166D01*
X179875240Y-104541088D01*
X179868622Y-104509853D01*
X179848124Y-104441290D01*
X179822068Y-104373642D01*
X179805570Y-104333383D01*
X179787647Y-104280047D01*
X179780683Y-104244805D01*
X179778473Y-104223589D01*
X179763552Y-104178796D01*
X179754291Y-104160361D01*
X179732933Y-104113242D01*
X179708700Y-104056139D01*
X179692358Y-104020027D01*
X179662988Y-103967273D01*
X179637143Y-103933662D01*
X179615692Y-103907278D01*
X179603308Y-103872488D01*
X179599401Y-103853356D01*
X179576702Y-103819853D01*
X179562343Y-103805043D01*
X179550096Y-103779599D01*
X179545762Y-103767512D01*
X179524173Y-103732935D01*
X179490556Y-103688649D01*
X179469783Y-103661763D01*
X179436638Y-103612007D01*
X179417830Y-103574135D01*
X179416181Y-103569281D01*
X179395442Y-103523930D01*
X179366512Y-103474169D01*
X179290291Y-103350021D01*
X179231458Y-103233518D01*
X179223179Y-103214817D01*
X179206313Y-103181632D01*
X179185203Y-103149688D01*
X179154665Y-103112376D01*
X179109518Y-103063087D01*
X179044579Y-102995212D01*
X179032268Y-102982416D01*
X178975826Y-102923035D01*
X178924554Y-102868072D01*
X178888256Y-102828010D01*
X178875124Y-102814012D01*
X178841090Y-102785936D01*
X178817696Y-102778023D01*
X178811621Y-102782341D01*
X178793046Y-102812299D01*
X178775471Y-102859389D01*
X178766611Y-102885072D01*
X178742368Y-102941860D01*
X178710140Y-103008854D01*
X178674423Y-103077537D01*
X178639708Y-103139389D01*
X178610492Y-103185895D01*
X178591266Y-103208535D01*
X178584050Y-103215692D01*
X178574537Y-103246271D01*
X178574025Y-103249809D01*
X178558989Y-103280240D01*
X178527329Y-103326866D01*
X178484744Y-103381130D01*
X178480917Y-103385731D01*
X178432555Y-103447294D01*
X178390083Y-103506897D01*
X178362308Y-103552232D01*
X178359156Y-103558190D01*
X178323793Y-103612591D01*
X178285022Y-103657534D01*
X178248142Y-103700718D01*
X178219328Y-103750017D01*
X178216606Y-103755905D01*
X178183715Y-103799543D01*
X178138083Y-103836354D01*
X178099500Y-103866732D01*
X178078537Y-103912788D01*
X177991777Y-103912788D01*
X177999671Y-103893716D01*
X178030272Y-103854467D01*
X178072711Y-103812762D01*
X178117799Y-103778579D01*
X178119590Y-103777443D01*
X178152836Y-103749636D01*
X178166577Y-103725081D01*
X178170226Y-103712696D01*
X178191225Y-103676724D01*
X178224671Y-103632369D01*
X178241437Y-103611628D01*
X178290366Y-103546462D01*
X178334052Y-103482842D01*
X178355140Y-103451461D01*
X178404167Y-103384124D01*
X178453332Y-103322064D01*
X178482944Y-103284782D01*
X178510635Y-103244499D01*
X178521325Y-103220963D01*
X178524666Y-103208799D01*
X178543090Y-103171869D01*
X178572240Y-103124548D01*
X178608562Y-103067360D01*
X178649192Y-102997255D01*
X178683633Y-102931711D01*
X178707506Y-102879126D01*
X178716437Y-102847897D01*
X178717758Y-102838553D01*
X178729776Y-102800046D01*
X178750252Y-102750200D01*
X178751648Y-102747089D01*
X178773965Y-102690602D01*
X178799743Y-102616227D01*
X178817696Y-102558459D01*
X178823683Y-102539195D01*
X178863298Y-102402600D01*
X178943211Y-102397295D01*
X178970632Y-102395062D01*
X179003649Y-102387763D01*
X179029608Y-102370075D01*
X179056893Y-102335290D01*
X179093885Y-102276697D01*
X179132548Y-102209623D01*
X179174918Y-102128320D01*
X179207407Y-102057787D01*
X179227757Y-102011961D01*
X179264018Y-101940184D01*
X179298142Y-101882245D01*
X179400077Y-101705538D01*
X179487981Y-101492753D01*
X179492391Y-101480087D01*
X179519524Y-101409992D01*
X179546819Y-101350228D01*
X179568978Y-101312581D01*
X179592875Y-101273229D01*
X179603797Y-101236260D01*
X179605428Y-101227867D01*
X179626771Y-101194295D01*
X179664824Y-101159239D01*
X179690665Y-101136039D01*
X179742611Y-101067883D01*
X179797367Y-100970295D01*
X179812969Y-100938550D01*
X179841888Y-100877158D01*
X179861896Y-100831058D01*
X179869370Y-100808396D01*
X179874219Y-100794656D01*
X179897272Y-100767939D01*
X179902302Y-100763310D01*
X179930857Y-100728172D01*
X179960546Y-100681515D01*
X179975963Y-100654162D01*
X180011238Y-100592374D01*
X180047522Y-100529560D01*
X180068109Y-100491006D01*
X180090623Y-100438460D01*
X180099542Y-100402010D01*
X180103234Y-100376927D01*
X180117694Y-100352186D01*
X180128399Y-100341498D01*
X180136256Y-100306396D01*
X180125468Y-100268781D01*
X180098980Y-100245451D01*
X180078247Y-100234046D01*
X180069877Y-100213215D01*
X180088196Y-100199736D01*
X180125387Y-100196740D01*
X180165055Y-100204883D01*
X180191333Y-100222900D01*
X180202238Y-100234743D01*
X180206109Y-100217113D01*
X180206109Y-100217109D01*
X180195879Y-100183629D01*
X180170906Y-100143365D01*
X180169891Y-100142067D01*
X180145518Y-100105887D01*
X180135431Y-100081109D01*
X180119662Y-100064827D01*
X180070497Y-100052215D01*
X179989766Y-100044437D01*
X179879340Y-100041781D01*
X179827497Y-100042071D01*
X179772870Y-100044837D01*
X179737203Y-100052789D01*
X179710590Y-100068612D01*
X179683127Y-100094993D01*
X179671505Y-100106565D01*
X179635267Y-100136292D01*
X179609807Y-100148205D01*
X179593440Y-100158557D01*
X179563748Y-100191307D01*
X179529009Y-100237260D01*
X179495913Y-100286904D01*
X179471150Y-100330727D01*
X179461409Y-100359215D01*
X179461260Y-100360561D01*
X179446323Y-100384966D01*
X179410830Y-100426723D01*
X179360368Y-100480431D01*
X179300519Y-100540691D01*
X179236869Y-100602103D01*
X179175001Y-100659267D01*
X179120501Y-100706784D01*
X179078953Y-100739255D01*
X179055940Y-100751278D01*
X179038679Y-100758301D01*
X179005178Y-100786493D01*
X178969446Y-100826219D01*
X178941003Y-100866552D01*
X178929368Y-100896565D01*
X178927472Y-100912143D01*
X178914335Y-100935799D01*
X178913115Y-100936724D01*
X178895469Y-100959486D01*
X178866899Y-101003742D01*
X178832375Y-101060905D01*
X178796869Y-101122390D01*
X178765353Y-101179612D01*
X178742797Y-101223986D01*
X178734174Y-101246926D01*
X178723402Y-101267835D01*
X178694702Y-101306499D01*
X178654356Y-101354351D01*
X178614564Y-101401856D01*
X178585597Y-101441723D01*
X178574537Y-101464381D01*
X178572850Y-101470105D01*
X178552194Y-101498873D01*
X178513547Y-101541206D01*
X178463896Y-101590546D01*
X178410226Y-101640337D01*
X178359522Y-101684021D01*
X178318769Y-101715040D01*
X178294953Y-101726837D01*
X178282143Y-101730728D01*
X178244697Y-101757733D01*
X178193933Y-101806089D01*
X178134312Y-101870638D01*
X178070297Y-101946220D01*
X178006350Y-102027674D01*
X177946933Y-102109841D01*
X177896510Y-102187562D01*
X177877667Y-102219685D01*
X177833665Y-102300182D01*
X177790100Y-102386245D01*
X177750344Y-102470569D01*
X177717772Y-102545845D01*
X177695754Y-102604766D01*
X177687666Y-102640024D01*
X177686519Y-102658715D01*
X177672949Y-102679705D01*
X177635353Y-102684658D01*
X177602552Y-102691445D01*
X177547087Y-102725197D01*
X177492023Y-102781323D01*
X177444887Y-102853163D01*
X177428935Y-102880487D01*
X177381469Y-102946142D01*
X177322272Y-103014881D01*
X177259174Y-103078538D01*
X177200004Y-103128949D01*
X177152595Y-103157949D01*
X177143992Y-103161667D01*
X177085073Y-103197816D01*
X177035373Y-103243219D01*
X177028204Y-103251416D01*
X176980063Y-103296218D01*
X176931304Y-103329270D01*
X176909975Y-103342638D01*
X176861913Y-103383691D01*
X176817024Y-103433530D01*
X176796247Y-103460076D01*
X176753264Y-103513108D01*
X176718478Y-103553792D01*
X176705642Y-103568203D01*
X176667479Y-103611737D01*
X176617581Y-103669185D01*
X176563382Y-103732004D01*
X176533488Y-103765856D01*
X176479685Y-103822621D01*
X176433088Y-103866828D01*
X176401308Y-103891014D01*
X176392565Y-103896095D01*
X176344549Y-103941825D01*
X176316335Y-104000467D01*
X176314562Y-104059156D01*
X176317984Y-104089439D01*
X176303658Y-104103652D01*
X176297689Y-104104924D01*
X176287070Y-104127420D01*
X176222994Y-104127420D01*
X176202386Y-104097587D01*
X176170476Y-104097886D01*
X176127348Y-104129707D01*
X176121767Y-104134891D01*
X176083948Y-104163139D01*
X176054852Y-104174723D01*
X176048199Y-104175927D01*
X176017966Y-104198578D01*
X175983958Y-104242797D01*
X175952532Y-104299223D01*
X175930046Y-104358493D01*
X175921037Y-104405381D01*
X175859842Y-104405381D01*
X175868381Y-104362655D01*
X175869810Y-104354338D01*
X175888100Y-104294551D01*
X175917790Y-104232335D01*
X175953247Y-104176717D01*
X175988837Y-104136726D01*
X176018927Y-104121390D01*
X176020735Y-104121319D01*
X176054218Y-104107519D01*
X176091297Y-104077046D01*
X176129381Y-104047793D01*
X176182246Y-104032703D01*
X176182451Y-104032702D01*
X176202386Y-104029282D01*
X176215900Y-104026964D01*
X176240535Y-104004147D01*
X176265588Y-103955723D01*
X176304990Y-103891878D01*
X176361092Y-103840765D01*
X176375483Y-103830648D01*
X176421299Y-103790800D01*
X176476459Y-103735622D01*
X176532014Y-103673854D01*
X176556714Y-103644810D01*
X176606684Y-103586333D01*
X176647893Y-103538467D01*
X176673266Y-103509448D01*
X176692813Y-103486726D01*
X176730847Y-103440707D01*
X176773052Y-103388250D01*
X176806066Y-103350174D01*
X176851273Y-103306904D01*
X176887439Y-103281826D01*
X176904050Y-103272726D01*
X176949697Y-103239061D01*
X176996140Y-103196137D01*
X177017714Y-103173131D01*
X177041957Y-103141554D01*
X177046078Y-103118654D01*
X177033886Y-103094147D01*
X177023000Y-103076679D01*
X177021117Y-103060404D01*
X177045908Y-103057144D01*
X177068592Y-103060289D01*
X177093462Y-103074881D01*
X177112182Y-103089133D01*
X177150292Y-103082974D01*
X177200694Y-103050261D01*
X177260458Y-102993483D01*
X177326652Y-102915129D01*
X177396346Y-102817689D01*
X177400291Y-102811758D01*
X177452134Y-102737413D01*
X177494383Y-102686321D01*
X177533981Y-102651089D01*
X177577869Y-102624321D01*
X177585242Y-102620370D01*
X177620225Y-102596914D01*
X177634454Y-102578809D01*
X177642139Y-102552687D01*
X177663022Y-102503530D01*
X177692959Y-102439861D01*
X177727806Y-102369986D01*
X177763417Y-102302215D01*
X177795647Y-102244856D01*
X177820351Y-102206215D01*
X177831044Y-102191300D01*
X177855340Y-102153289D01*
X177865040Y-102131151D01*
X177865079Y-102130610D01*
X177875528Y-102108227D01*
X177900895Y-102066042D01*
X177935990Y-102012717D01*
X177938017Y-102009741D01*
X177972817Y-101956055D01*
X177997536Y-101913206D01*
X178006940Y-101890234D01*
X178007675Y-101884899D01*
X178026016Y-101865333D01*
X178032853Y-101861384D01*
X178038710Y-101834600D01*
X178023122Y-101790567D01*
X177998349Y-101750611D01*
X178061920Y-101750611D01*
X178071429Y-101793726D01*
X178073354Y-101800489D01*
X178086234Y-101822267D01*
X178106662Y-101813726D01*
X178124867Y-101795486D01*
X178126114Y-101773463D01*
X178095627Y-101748690D01*
X178088885Y-101744581D01*
X178066831Y-101735919D01*
X178061920Y-101750611D01*
X177998349Y-101750611D01*
X177988823Y-101735246D01*
X177938547Y-101674599D01*
X177882965Y-101614571D01*
X177824167Y-101548605D01*
X177778882Y-101493821D01*
X177740343Y-101442286D01*
X177735348Y-101435494D01*
X177705985Y-101403031D01*
X177684057Y-101389825D01*
X177663530Y-101378914D01*
X177624348Y-101348798D01*
X177573307Y-101305454D01*
X177516924Y-101254872D01*
X177461722Y-101203040D01*
X177414219Y-101155944D01*
X177380935Y-101119574D01*
X177368392Y-101099917D01*
X177361350Y-101083329D01*
X177335594Y-101046764D01*
X177297442Y-101001787D01*
X177266253Y-100966420D01*
X177237561Y-100930618D01*
X177226493Y-100912006D01*
X177215000Y-100894837D01*
X177182857Y-100860092D01*
X177136537Y-100814085D01*
X177082531Y-100762852D01*
X177027331Y-100712433D01*
X176977427Y-100668864D01*
X176939311Y-100638185D01*
X176919475Y-100626433D01*
X176915631Y-100625589D01*
X176890966Y-100606002D01*
X176862606Y-100568786D01*
X176846737Y-100545433D01*
X176821857Y-100522727D01*
X176785950Y-100511634D01*
X176726792Y-100506552D01*
X176626723Y-100501282D01*
X176606004Y-100564062D01*
X176603189Y-100572173D01*
X176583277Y-100615536D01*
X176563854Y-100640282D01*
X176559295Y-100643619D01*
X176532031Y-100672136D01*
X176497842Y-100715811D01*
X176464185Y-100764084D01*
X176438521Y-100806395D01*
X176428308Y-100832182D01*
X176427578Y-100835488D01*
X176410911Y-100862359D01*
X176376731Y-100904986D01*
X176331022Y-100955767D01*
X176320814Y-100966676D01*
X176274867Y-101018774D01*
X176240211Y-101062841D01*
X176223690Y-101090298D01*
X176212581Y-101109345D01*
X176179065Y-101132924D01*
X176170529Y-101136718D01*
X176135052Y-101163984D01*
X176098049Y-101204781D01*
X176085827Y-101219987D01*
X176053844Y-101252829D01*
X176031545Y-101266152D01*
X176025405Y-101268072D01*
X175998962Y-101289772D01*
X175967135Y-101327744D01*
X175955850Y-101342516D01*
X175924995Y-101375813D01*
X175903369Y-101389337D01*
X175881255Y-101399574D01*
X175850198Y-101427116D01*
X175815299Y-101459499D01*
X175734320Y-101500601D01*
X175633074Y-101513987D01*
X175627609Y-101513975D01*
X175575473Y-101511014D01*
X175548252Y-101500430D01*
X175536353Y-101478726D01*
X175518664Y-101450995D01*
X175481072Y-101425953D01*
X175443631Y-101404386D01*
X175439374Y-101380037D01*
X175470487Y-101354351D01*
X175492251Y-101340019D01*
X175505964Y-101322686D01*
X175504307Y-101321209D01*
X175477985Y-101316807D01*
X175424570Y-101313251D01*
X175350465Y-101310874D01*
X175262074Y-101310007D01*
X175218559Y-101309796D01*
X175050593Y-101303691D01*
X174900697Y-101287781D01*
X174755431Y-101260218D01*
X174601353Y-101219152D01*
X174531682Y-101198194D01*
X174468729Y-101177397D01*
X174428843Y-101159670D01*
X174405854Y-101141229D01*
X174393591Y-101118291D01*
X174385881Y-101087073D01*
X174384676Y-101081554D01*
X174370512Y-101040854D01*
X174354087Y-101020648D01*
X174333086Y-101004486D01*
X174309297Y-100956654D01*
X174292126Y-100885397D01*
X174281959Y-100797431D01*
X174279185Y-100699469D01*
X174279722Y-100688607D01*
X174335292Y-100688607D01*
X174335653Y-100746345D01*
X174338502Y-100817668D01*
X174345590Y-100869957D01*
X174358566Y-100913367D01*
X174379083Y-100958056D01*
X174394799Y-100989682D01*
X174422140Y-101048272D01*
X174440725Y-101092723D01*
X174442059Y-101096265D01*
X174466362Y-101131817D01*
X174507793Y-101141938D01*
X174539872Y-101145801D01*
X174598561Y-101159285D01*
X174663434Y-101179031D01*
X174712146Y-101195438D01*
X174809441Y-101224662D01*
X174898481Y-101244564D01*
X174990173Y-101256812D01*
X175095426Y-101263078D01*
X175225147Y-101265032D01*
X175258624Y-101265078D01*
X175364334Y-101264380D01*
X175440440Y-101261799D01*
X175491573Y-101256662D01*
X175522362Y-101248300D01*
X175537440Y-101236040D01*
X175541437Y-101219212D01*
X175543969Y-101208983D01*
X175564239Y-101201073D01*
X175610963Y-101205412D01*
X175651036Y-101209783D01*
X175682333Y-101203077D01*
X175703917Y-101179016D01*
X175723141Y-101154975D01*
X175745354Y-101141501D01*
X175746890Y-101141323D01*
X175766307Y-101123975D01*
X175787519Y-101086931D01*
X175788444Y-101084878D01*
X175813742Y-101044326D01*
X175840627Y-101021278D01*
X175853643Y-101014461D01*
X175887816Y-100986196D01*
X175917768Y-100951325D01*
X175931070Y-100923313D01*
X175929523Y-100919450D01*
X175906694Y-100902005D01*
X175865145Y-100881637D01*
X175854197Y-100876977D01*
X175805443Y-100853194D01*
X175772023Y-100832336D01*
X175757041Y-100822611D01*
X175712556Y-100800679D01*
X175656730Y-100778025D01*
X175624798Y-100765739D01*
X175569402Y-100741794D01*
X175531678Y-100722089D01*
X175526878Y-100719067D01*
X175493942Y-100707546D01*
X175460728Y-100722055D01*
X175419311Y-100743484D01*
X175355948Y-100765901D01*
X175280375Y-100786098D01*
X175199221Y-100803044D01*
X175119116Y-100815704D01*
X175046689Y-100823049D01*
X174988568Y-100824044D01*
X174951384Y-100817659D01*
X174941765Y-100802861D01*
X174948633Y-100794680D01*
X174981146Y-100781986D01*
X175042594Y-100770582D01*
X175136246Y-100759746D01*
X175234878Y-100747709D01*
X175319728Y-100730506D01*
X175370453Y-100710189D01*
X175380010Y-100703494D01*
X175405606Y-100674349D01*
X175401420Y-100659938D01*
X175541437Y-100659938D01*
X175542369Y-100662550D01*
X175563321Y-100679642D01*
X175603399Y-100702629D01*
X175651357Y-100725944D01*
X175695947Y-100744016D01*
X175725920Y-100751278D01*
X175727535Y-100751355D01*
X175758937Y-100761462D01*
X175806399Y-100783917D01*
X175857774Y-100812096D01*
X175900914Y-100839374D01*
X175923671Y-100859125D01*
X175932066Y-100869012D01*
X175962655Y-100876070D01*
X175997366Y-100856733D01*
X176027351Y-100814785D01*
X176032089Y-100805134D01*
X176054519Y-100766806D01*
X176071533Y-100748270D01*
X176074199Y-100746307D01*
X176092189Y-100721380D01*
X176119446Y-100674685D01*
X176151196Y-100614256D01*
X176173764Y-100566210D01*
X176204625Y-100481914D01*
X176215459Y-100417517D01*
X176215422Y-100408717D01*
X176211051Y-100367223D01*
X176192264Y-100345092D01*
X176148944Y-100328838D01*
X176143844Y-100327220D01*
X176086194Y-100301063D01*
X176038085Y-100267708D01*
X176019229Y-100252332D01*
X175976166Y-100224499D01*
X175930092Y-100200567D01*
X175891803Y-100185866D01*
X175872091Y-100185727D01*
X175864560Y-100196397D01*
X175837117Y-100240835D01*
X175803115Y-100300585D01*
X175769167Y-100363817D01*
X175741884Y-100418701D01*
X175725562Y-100450120D01*
X175699335Y-100488123D01*
X175679108Y-100502954D01*
X175675075Y-100503641D01*
X175649639Y-100522976D01*
X175622032Y-100560601D01*
X175617795Y-100567702D01*
X175589165Y-100608345D01*
X175564996Y-100632432D01*
X175554504Y-100640151D01*
X175541437Y-100659938D01*
X175401420Y-100659938D01*
X175399429Y-100653086D01*
X175362135Y-100644853D01*
X175323779Y-100637627D01*
X175276628Y-100618895D01*
X175267542Y-100614362D01*
X175212955Y-100590386D01*
X175153347Y-100567757D01*
X175136076Y-100561894D01*
X175099105Y-100551673D01*
X175083483Y-100555051D01*
X175080264Y-100572623D01*
X175071696Y-100594016D01*
X175042581Y-100632930D01*
X174999970Y-100676973D01*
X174973189Y-100701039D01*
X174929763Y-100733082D01*
X174889916Y-100747762D01*
X174840334Y-100751278D01*
X174816951Y-100751713D01*
X174776850Y-100755196D01*
X174760990Y-100761027D01*
X174760998Y-100761286D01*
X174768773Y-100783045D01*
X174786760Y-100820610D01*
X174795474Y-100835298D01*
X174835984Y-100874057D01*
X174899565Y-100901013D01*
X174992154Y-100919008D01*
X175007797Y-100921572D01*
X175075646Y-100940565D01*
X175134054Y-100967143D01*
X175135677Y-100968125D01*
X175200477Y-101000825D01*
X175281803Y-101033157D01*
X175367624Y-101061179D01*
X175445912Y-101080951D01*
X175504634Y-101088531D01*
X175520617Y-101088803D01*
X175586613Y-101095326D01*
X175631376Y-101109058D01*
X175647861Y-101128057D01*
X175647614Y-101129278D01*
X175628066Y-101136837D01*
X175583947Y-101140002D01*
X175524682Y-101139324D01*
X175459695Y-101135354D01*
X175398412Y-101128640D01*
X175350256Y-101119734D01*
X175324652Y-101109186D01*
X175306995Y-101097701D01*
X175266507Y-101088289D01*
X175242796Y-101085528D01*
X175212408Y-101072223D01*
X175194240Y-101057177D01*
X175127726Y-101019128D01*
X175045913Y-100988253D01*
X174963425Y-100970527D01*
X174859291Y-100945135D01*
X174777450Y-100895649D01*
X174721909Y-100823433D01*
X174717274Y-100814454D01*
X174693283Y-100774454D01*
X174674741Y-100752785D01*
X174668759Y-100746796D01*
X174649301Y-100714590D01*
X174627643Y-100666973D01*
X174620459Y-100650055D01*
X174592773Y-100605594D01*
X174562757Y-100591641D01*
X174538244Y-100584692D01*
X174538840Y-100557526D01*
X174540216Y-100550750D01*
X174540038Y-100549344D01*
X174619090Y-100549344D01*
X174627208Y-100567412D01*
X174650315Y-100606694D01*
X174683157Y-100657883D01*
X174722165Y-100711867D01*
X174748976Y-100736715D01*
X174766523Y-100735103D01*
X174780785Y-100725403D01*
X174819284Y-100715803D01*
X174836776Y-100711980D01*
X174880110Y-100691854D01*
X174930114Y-100660242D01*
X174930873Y-100659694D01*
X174972061Y-100623525D01*
X175006781Y-100582170D01*
X175030407Y-100543225D01*
X175038315Y-100514288D01*
X175025880Y-100502954D01*
X175018644Y-100502095D01*
X175009245Y-100497859D01*
X175125757Y-100497859D01*
X175140088Y-100502954D01*
X175162074Y-100508525D01*
X175207556Y-100527183D01*
X175263198Y-100554426D01*
X175265374Y-100555566D01*
X175351378Y-100594510D01*
X175427004Y-100617413D01*
X175487233Y-100623734D01*
X175527050Y-100612931D01*
X175541437Y-100584464D01*
X175548813Y-100566880D01*
X175575351Y-100529824D01*
X175614557Y-100485075D01*
X175644987Y-100450907D01*
X175686508Y-100397242D01*
X175713380Y-100353592D01*
X175715157Y-100349835D01*
X175742633Y-100294210D01*
X175772439Y-100236892D01*
X175778911Y-100224637D01*
X175798384Y-100184586D01*
X175806646Y-100162132D01*
X175791573Y-100142733D01*
X175744744Y-100122430D01*
X175669858Y-100102649D01*
X175570652Y-100084371D01*
X175450864Y-100068579D01*
X175351422Y-100057602D01*
X175329818Y-100116207D01*
X175303706Y-100179847D01*
X175268036Y-100253668D01*
X175232047Y-100317429D01*
X175201877Y-100359460D01*
X175201278Y-100360113D01*
X175172393Y-100398766D01*
X175143775Y-100446976D01*
X175129368Y-100477065D01*
X175125757Y-100497859D01*
X175009245Y-100497859D01*
X174979701Y-100484543D01*
X174932781Y-100451310D01*
X174889639Y-100411603D01*
X174862034Y-100374630D01*
X174838304Y-100326125D01*
X174728697Y-100431725D01*
X174708705Y-100451188D01*
X174662883Y-100497557D01*
X174631029Y-100532403D01*
X174619090Y-100549344D01*
X174540038Y-100549344D01*
X174534857Y-100508486D01*
X174514141Y-100457126D01*
X174505723Y-100440442D01*
X174489779Y-100399426D01*
X174487818Y-100375947D01*
X174505523Y-100361567D01*
X174531255Y-100375321D01*
X174560582Y-100423135D01*
X174566611Y-100435328D01*
X174587008Y-100470191D01*
X174600204Y-100483213D01*
X174602201Y-100482152D01*
X174623018Y-100463451D01*
X174659540Y-100426465D01*
X174705334Y-100377650D01*
X174787380Y-100288317D01*
X174863433Y-100288317D01*
X174901585Y-100336818D01*
X174917794Y-100355055D01*
X174957877Y-100392227D01*
X175003582Y-100428694D01*
X175044558Y-100456448D01*
X175070454Y-100467479D01*
X175074697Y-100464971D01*
X175080264Y-100442140D01*
X175085012Y-100423058D01*
X175107157Y-100389907D01*
X175111773Y-100384746D01*
X175136955Y-100350169D01*
X175171823Y-100296656D01*
X175210293Y-100233438D01*
X175224922Y-100208604D01*
X175266051Y-100137714D01*
X175289680Y-100090434D01*
X175295745Y-100061067D01*
X175284179Y-100043912D01*
X175254918Y-100033271D01*
X175207898Y-100023444D01*
X175165245Y-100014221D01*
X175106898Y-99999747D01*
X175104587Y-99999036D01*
X175386355Y-99999036D01*
X175390644Y-100000508D01*
X175422086Y-100006308D01*
X175476843Y-100014424D01*
X175546594Y-100023582D01*
X175562651Y-100025610D01*
X175653632Y-100039181D01*
X175719412Y-100054203D01*
X175768918Y-100073216D01*
X175811082Y-100098758D01*
X175830655Y-100109854D01*
X175849913Y-100111703D01*
X175850852Y-100110296D01*
X175853153Y-100103339D01*
X175918229Y-100103339D01*
X175925067Y-100130096D01*
X175953442Y-100146371D01*
X175956988Y-100147793D01*
X176001170Y-100171894D01*
X176047953Y-100205299D01*
X176049128Y-100206257D01*
X176103285Y-100243134D01*
X176160191Y-100272262D01*
X176200317Y-100286081D01*
X176224614Y-100283934D01*
X176244444Y-100263246D01*
X176261077Y-100237184D01*
X176265733Y-100208040D01*
X176242065Y-100190094D01*
X176229559Y-100183498D01*
X176215459Y-100164671D01*
X176204880Y-100142181D01*
X176179083Y-100108922D01*
X176109786Y-100030892D01*
X176050203Y-99961421D01*
X176014684Y-99916433D01*
X176002831Y-99895447D01*
X176002424Y-99892723D01*
X175985556Y-99882144D01*
X175980012Y-99884439D01*
X175963618Y-99913255D01*
X175944659Y-99975742D01*
X175922859Y-100072732D01*
X175918229Y-100103339D01*
X175853153Y-100103339D01*
X175859371Y-100084536D01*
X175871949Y-100034851D01*
X175872091Y-100034210D01*
X175886224Y-99970431D01*
X175889105Y-99956612D01*
X175901702Y-99895821D01*
X175910559Y-99852505D01*
X175913908Y-99835289D01*
X175904890Y-99831365D01*
X175874014Y-99822444D01*
X175869436Y-99821078D01*
X175827405Y-99799981D01*
X175782568Y-99767309D01*
X175771713Y-99758183D01*
X175742750Y-99739197D01*
X175708378Y-99728424D01*
X175658585Y-99723611D01*
X175583359Y-99722507D01*
X175530640Y-99722759D01*
X175477980Y-99724946D01*
X175448199Y-99731007D01*
X175433803Y-99742858D01*
X175427300Y-99762416D01*
X175410147Y-99846061D01*
X175394865Y-99926698D01*
X175386766Y-99978664D01*
X175386355Y-99999036D01*
X175104587Y-99999036D01*
X175068086Y-99987806D01*
X175058520Y-99984425D01*
X175036662Y-99984243D01*
X175019342Y-100004335D01*
X174999161Y-100051543D01*
X174988731Y-100077282D01*
X174970221Y-100115452D01*
X174958096Y-100130468D01*
X174951429Y-100135689D01*
X174931226Y-100164252D01*
X174905303Y-100209392D01*
X174863433Y-100288317D01*
X174787380Y-100288317D01*
X174800446Y-100274090D01*
X174749677Y-100229446D01*
X174728574Y-100212807D01*
X174679473Y-100190717D01*
X174613178Y-100184241D01*
X174560106Y-100179909D01*
X174533966Y-100168860D01*
X174538677Y-100154951D01*
X174572629Y-100142034D01*
X174634211Y-100133961D01*
X174660535Y-100132730D01*
X174708902Y-100135356D01*
X174743744Y-100150308D01*
X174780515Y-100182739D01*
X174795065Y-100197071D01*
X174825716Y-100225565D01*
X174838304Y-100235041D01*
X174840763Y-100236892D01*
X174840921Y-100236876D01*
X174848650Y-100220815D01*
X174858546Y-100183680D01*
X174858788Y-100182593D01*
X174871207Y-100145741D01*
X174884635Y-100130468D01*
X174893630Y-100121809D01*
X174912080Y-100090441D01*
X174932589Y-100047892D01*
X174949237Y-100006685D01*
X174956102Y-99979341D01*
X174955405Y-99978475D01*
X174933054Y-99974592D01*
X174885576Y-99971862D01*
X174821593Y-99970831D01*
X174791331Y-99970620D01*
X174731283Y-99967661D01*
X174700470Y-99960601D01*
X174694424Y-99948659D01*
X174709918Y-99937382D01*
X174760722Y-99927191D01*
X174846178Y-99921344D01*
X174990591Y-99916200D01*
X174996121Y-99894585D01*
X175069207Y-99894585D01*
X175072137Y-99918819D01*
X175087388Y-99928920D01*
X175127829Y-99946132D01*
X175181521Y-99965062D01*
X175236952Y-99981706D01*
X175282614Y-99992058D01*
X175284552Y-99992333D01*
X175302236Y-99989185D01*
X175316322Y-99970376D01*
X175329911Y-99929455D01*
X175346104Y-99859972D01*
X175351422Y-99835314D01*
X175375751Y-99722507D01*
X175230478Y-99722507D01*
X175085205Y-99722507D01*
X175074399Y-99813750D01*
X175071068Y-99847737D01*
X175069207Y-99894585D01*
X174996121Y-99894585D01*
X175009697Y-99841525D01*
X175014331Y-99823600D01*
X175027414Y-99774877D01*
X175036239Y-99744679D01*
X175034130Y-99736067D01*
X175011772Y-99728104D01*
X174962917Y-99723799D01*
X174883117Y-99722507D01*
X174821200Y-99721821D01*
X174764561Y-99718367D01*
X174735603Y-99711419D01*
X174729880Y-99700335D01*
X174750846Y-99687393D01*
X174806404Y-99676804D01*
X174895429Y-99669295D01*
X175036662Y-99661379D01*
X175053658Y-99660426D01*
X175054248Y-99546414D01*
X175055599Y-99502090D01*
X175063025Y-99447632D01*
X175076419Y-99425208D01*
X175078435Y-99424743D01*
X175089774Y-99435528D01*
X175096062Y-99473878D01*
X175098001Y-99543655D01*
X175098001Y-99669295D01*
X175246664Y-99669295D01*
X175375751Y-99669295D01*
X175395326Y-99669295D01*
X175414801Y-99591954D01*
X175428842Y-99549252D01*
X175453119Y-99503883D01*
X175478709Y-99478518D01*
X175500196Y-99480242D01*
X175502368Y-99489513D01*
X175497785Y-99525268D01*
X175484283Y-99575891D01*
X175457255Y-99660426D01*
X175583359Y-99664742D01*
X175607947Y-99665583D01*
X175663361Y-99668168D01*
X175725051Y-99674672D01*
X175763883Y-99685588D01*
X175787503Y-99702488D01*
X175820825Y-99730200D01*
X175862886Y-99753020D01*
X175900523Y-99764486D01*
X175921827Y-99759542D01*
X175922157Y-99758943D01*
X175928363Y-99733030D01*
X175935734Y-99682721D01*
X175942745Y-99618312D01*
X175951556Y-99548207D01*
X175963343Y-99505458D01*
X175978551Y-99491920D01*
X175987686Y-99497262D01*
X175998449Y-99529699D01*
X176002100Y-99584932D01*
X175998372Y-99655267D01*
X175986993Y-99733013D01*
X175982063Y-99764232D01*
X175984206Y-99808495D01*
X175985556Y-99810919D01*
X176003912Y-99843872D01*
X176029143Y-99869689D01*
X176051326Y-99882144D01*
X176051354Y-99882144D01*
X176071622Y-99896650D01*
X176110008Y-99938767D01*
X176164917Y-100006616D01*
X176234758Y-100098321D01*
X176258752Y-100120487D01*
X176283536Y-100123375D01*
X176296069Y-100102031D01*
X176302751Y-100052370D01*
X176301621Y-99984161D01*
X176293592Y-99905847D01*
X176279576Y-99825871D01*
X176260485Y-99752675D01*
X176237231Y-99694701D01*
X176235847Y-99692047D01*
X176217966Y-99656369D01*
X176190809Y-99600916D01*
X176159676Y-99536503D01*
X176152126Y-99521307D01*
X176107142Y-99445040D01*
X176055008Y-99374413D01*
X176001529Y-99315922D01*
X175952512Y-99276064D01*
X175913761Y-99261334D01*
X175894167Y-99258057D01*
X175866026Y-99239162D01*
X175858510Y-99230834D01*
X175824734Y-99205372D01*
X175777378Y-99177081D01*
X175749443Y-99163533D01*
X175647697Y-99137312D01*
X175545965Y-99146295D01*
X175446738Y-99190384D01*
X175435312Y-99197572D01*
X175397637Y-99219081D01*
X175362261Y-99232585D01*
X175319743Y-99239937D01*
X175260639Y-99242990D01*
X175175507Y-99243596D01*
X175114146Y-99243967D01*
X175045475Y-99246524D01*
X174998466Y-99252623D01*
X174964824Y-99263547D01*
X174936250Y-99280577D01*
X174920688Y-99293469D01*
X174880884Y-99336503D01*
X174838379Y-99392100D01*
X174799807Y-99450550D01*
X174771800Y-99502141D01*
X174760990Y-99537165D01*
X174758190Y-99550303D01*
X174734964Y-99573971D01*
X174721066Y-99583281D01*
X174689314Y-99622948D01*
X174654539Y-99684456D01*
X174621052Y-99759704D01*
X174593160Y-99840589D01*
X174570557Y-99907292D01*
X174537569Y-99990323D01*
X174502385Y-100068387D01*
X174495770Y-100082168D01*
X174459104Y-100165511D01*
X174425145Y-100253154D01*
X174397019Y-100336008D01*
X174377850Y-100404988D01*
X174370766Y-100451005D01*
X174368277Y-100468903D01*
X174353029Y-100494085D01*
X174347911Y-100504655D01*
X174341355Y-100545374D01*
X174336921Y-100609183D01*
X174335292Y-100688607D01*
X174279722Y-100688607D01*
X174284189Y-100598227D01*
X174297359Y-100500420D01*
X174319080Y-100412762D01*
X174339358Y-100354684D01*
X174358819Y-100306728D01*
X174372292Y-100282123D01*
X174383355Y-100256576D01*
X174388504Y-100213367D01*
X174394799Y-100176744D01*
X174414355Y-100118267D01*
X174442555Y-100055097D01*
X174444665Y-100050930D01*
X174484664Y-99966381D01*
X174517389Y-99887039D01*
X174539555Y-99821524D01*
X174547883Y-99778457D01*
X174547912Y-99777597D01*
X174558541Y-99746620D01*
X174582436Y-99706426D01*
X174609318Y-99659996D01*
X174629015Y-99609320D01*
X174645370Y-99571940D01*
X174674538Y-99539620D01*
X174694350Y-99523503D01*
X174707778Y-99499986D01*
X174708557Y-99494564D01*
X174724795Y-99459891D01*
X174757078Y-99410154D01*
X174798805Y-99353911D01*
X174843378Y-99299720D01*
X174884196Y-99256139D01*
X174914660Y-99231725D01*
X174926927Y-99226699D01*
X174979407Y-99214274D01*
X175054205Y-99203868D01*
X175141828Y-99196934D01*
X175206536Y-99192777D01*
X175285107Y-99183624D01*
X175343398Y-99169719D01*
X175390669Y-99149288D01*
X175426517Y-99134307D01*
X175498848Y-99118246D01*
X175583196Y-99111147D01*
X175647697Y-99112067D01*
G37*
%TO.C,J1*%
X162766800Y-129193600D02*
X160106800Y-129193600D01*
X162766800Y-111353600D02*
X162766800Y-129193600D01*
X162766800Y-111353600D02*
X160106800Y-111353600D01*
X162766800Y-110083600D02*
X162766800Y-108753600D01*
X162766800Y-108753600D02*
X161436800Y-108753600D01*
X160106800Y-111353600D02*
X160106800Y-129193600D01*
%TD*%
%LPC*%
D12*
%TO.C,LS1*%
X176436800Y-139197600D03*
X166436800Y-139197600D03*
%TD*%
D13*
%TO.C,JP1*%
X169036800Y-114883600D03*
X169036800Y-113583600D03*
X169036800Y-112283600D03*
%TD*%
D14*
%TO.C,J3*%
X181756800Y-112623600D03*
D15*
X181756800Y-115163600D03*
X181756800Y-117703600D03*
X181756800Y-120243600D03*
%TD*%
D14*
%TO.C,J1*%
X161436800Y-110083600D03*
D15*
X161436800Y-112623600D03*
X161436800Y-115163600D03*
X161436800Y-117703600D03*
X161436800Y-120243600D03*
X161436800Y-122783600D03*
X161436800Y-125323600D03*
X161436800Y-127863600D03*
%TD*%
%LPD*%
M02*
